<?xml version="1.0" encoding="UTF-8" standalone="no"?>
<!DOCTYPE svg  PUBLIC '-//W3C//DTD SVG 1.1//EN'  'http://www.w3.org/Graphics/SVG/1.1/DTD/svg11.dtd'>
<svg xmlns="http://www.w3.org/2000/svg">
<defs>
<font id="WarnockPro-Disp" horiz-adv-x="475">
<font-face underline-position="-75" font-weight="400" descent="-200" panose-1="2 10 5 3 6 5 11 2 2 4" units-per-em="1000" unicode-range="U+0020-2215" bbox="-170 -253 1310 857" x-height="435" underline-thickness="50" font-family="Warnock Pro Display" ascent="800" cap-height="660"/>
<missing-glyph horiz-adv-x="1000"/>
<glyph glyph-name=".notdef" horiz-adv-x="1000"/>
<glyph glyph-name=".null" horiz-adv-x="0"/>
<glyph glyph-name="nonmarkingreturn" horiz-adv-x="333"/>
<glyph glyph-name="space" horiz-adv-x="195" unicode=" "/>
<glyph glyph-name="exclam" horiz-adv-x="213" unicode="!" d="M111 100l7 2q9 -4 24.5 -21.5t21.5 -31.5l-3 -8q-5 -11 -21.5 -28.5t-27.5 -23.5l-6 -2q-29 16 -46 53l2 8q21 32 49 52zM120 204l-17 -11q-22 276 -36 380l-19 37q61 27 104 39l7 1q-2 -22 -7 -83t-14.5 -168t-17.5 -195z"/>
<glyph glyph-name="quotedbl" horiz-adv-x="276" unicode='&quot;' d="M219 517l-15 -15q-13 101 -22 159l-17 25q5 2 71 28h12q-1 -7 -6.5 -49.5t-12 -84.5t-10.5 -63zM86 515l-13 -14q-3 19 -11 76.5t-13 82.5l-17 25q11 4 23 8.5t26.5 10t22.5 8.5h12q-1 -6 -6.5 -48t-12 -84.5t-11.5 -64.5z"/>
<glyph glyph-name="numbersign" d="M92 462l88 -1l40 179l31 5l-42 -184h122l39 179l32 5l-43 -184l92 1l-29 -55l-77 2l-34 -144l94 1l-28 -53l-78 1l-46 -199l-30 -4l46 203h-120l-46 -199l-29 -4l46 203l-103 -1l28 53l88 -1l33 144l-103 -1zM316 409h-121l-33 -144h121z" unicode="#"/>
<glyph glyph-name="dollar" d="M246 284v-239q49 2 84 34t35 86q0 44 -29.5 69.5t-89.5 49.5zM222 376v228q-53 -6 -80.5 -37t-27.5 -75q0 -46 26.5 -70.5t81.5 -45.5zM222 626v84l24 8v-92q34 -1 66.5 -13.5t48.5 -28.5q29 22 53 32l2 -3q-4 -62 -26 -128l-4 -3q-16 29 -31 85q-12 13 -43.5 24.5 t-65.5 12.5v-236q46 -15 72.5 -26.5t57.5 -32.5t45 -50.5t14 -69.5q0 -46 -20.5 -80.5t-52.5 -52t-60.5 -25.5t-55.5 -10v-96l-24 -7v102q-49 1 -99.5 20t-86.5 45q3 16 17 50.5t24 50.5l5 2q5 -19 22 -121q39 -22 118 -24v248q-38 13 -63.5 25t-52.5 32.5t-40.5 50 t-13.5 68.5q0 65 46.5 109.5t123.5 49.5z" unicode="$"/>
<glyph glyph-name="percent" horiz-adv-x="616" unicode="%" d="M453 306q-27 0 -44 -27t-22 -58.5t-5 -67.5q0 -57 17.5 -103.5t56.5 -46.5q34 0 50.5 47.5t16.5 101.5q0 22 -2 43t-8.5 49t-22 45t-37.5 17zM454 322q60 0 93.5 -50t33.5 -114q0 -76 -37.5 -123t-93.5 -47q-53 0 -90.5 42.5t-37.5 120.5q0 80 40 125.5t92 45.5zM501 666 l19 -22q-80 -132 -226.5 -376.5t-182.5 -304.5l-16 22q227 380 406 681zM165 638q-25 0 -42 -26.5t-23 -59.5t-6 -68q0 -59 16.5 -104.5t57.5 -45.5q35 0 51 47t16 102q0 155 -70 155zM165 654q61 0 95 -50t34 -113q0 -77 -37.5 -124.5t-93.5 -47.5q-53 0 -91 43t-38 120 q0 79 41 125.5t90 46.5z"/>
<glyph glyph-name="ampersand" horiz-adv-x="720" unicode="&amp;" d="M245 380h2q110 71 110 155q0 41 -19.5 71t-58.5 30h-1q-37 0 -62.5 -33.5t-25.5 -82.5q0 -64 55 -140zM695 5l-2 -5q-26 -12 -74 -12q-43 0 -83.5 22.5t-102.5 73.5q-45 -50 -95.5 -73t-91.5 -23q-87 0 -147.5 50t-60.5 137q0 57 50 100q32 29 95 70q-55 73 -55 150 q0 63 44 110.5t108 47.5h1q65 0 102.5 -35.5t37.5 -88.5q0 -46 -46 -84q-33 -27 -118 -80q36 -46 105.5 -112t106.5 -97q70 100 87 204l-8 52l4 5q18 0 52.5 -8.5t58.5 -21.5l-2 -5l-63 -40q-14 -36 -49.5 -98t-64.5 -100q135 -109 211 -139zM192 330h-2q-35 -29 -53 -59.5 t-18 -74.5q0 -69 50 -114.5t119 -45.5t131 58v2q-49 41 -119 112.5t-108 121.5z"/>
<glyph glyph-name="quotesingle" horiz-adv-x="144" unicode="&apos;" d="M85 516l-13 -15q-3 16 -10.5 74.5t-13.5 84.5l-17 25q13 5 73 27h11q-1 -6 -6.5 -48.5t-12 -84.5t-11.5 -63z"/>
<glyph glyph-name="parenleft" horiz-adv-x="309" unicode="(" d="M84 275q0 78 16 155t60.5 160t112.5 136l6 -8q-61 -66 -100.5 -178t-39.5 -266q0 -153 39.5 -266.5t100.5 -179.5l-6 -9q-99 77 -144 203.5t-45 252.5z"/>
<glyph glyph-name="parenright" horiz-adv-x="308" unicode=")" d="M225 274q0 -124 -45 -250t-144 -205l-6 9q61 68 100.5 180.5t39.5 266.5q0 291 -140 443l6 8q68 -53 112.5 -136t60.5 -160t16 -156z"/>
<glyph glyph-name="asterisk" horiz-adv-x="328" unicode="*" d="M157 493l8 3l2 -95l7 -21q-1 0 -3.5 -0.5t-4.5 -0.5q-14 0 -33 4.5t-25 10.5l15 15zM176 542l-9 -2l-2 95l-5 18q6 2 13 2q42 0 49 -12l-12 -15zM180 517l1 10l78 49l13 13q7 -4 15 -23.5t8 -31.5q0 -5 -1 -6l-19 3zM148 516l-3 -10l-77 -47l-13 -15q-6 5 -13.5 23 t-7.5 30q0 6 1 8l18 -4zM156 535l-9 -4l-80 44l-20 2q2 11 17.5 30.5t24.5 20.5l9 -18zM174 503l7 3l79 -43l18 -4q-2 -11 -17 -29t-24 -19l-6 18z"/>
<glyph glyph-name="plus" horiz-adv-x="485" unicode="+" d="M263 33l-41 -13v194h-172l13 33h159v163l41 13v-176h172l-13 -33h-159v-181z"/>
<glyph glyph-name="comma" horiz-adv-x="193" unicode="," d="M37 -111l-9 8q57 64 57 129q0 21 -9 37l-37 18v6l72 44h9q8 -4 17.5 -26.5t9.5 -50.5q0 -88 -110 -165z"/>
<glyph glyph-name="hyphen" horiz-adv-x="319" unicode="-" d="M245 212l-206 -20l29 55l44 -1l169 8v-4z"/>
<glyph glyph-name="period" horiz-adv-x="193" unicode="." d="M97 100l5 2q10 -4 25 -21.5t21 -31.5l-2 -8q-5 -11 -21.5 -28.5t-27.5 -23.5l-6 -2q-29 16 -46 53l2 8q24 38 50 52z"/>
<glyph glyph-name="slash" horiz-adv-x="378" unicode="/" d="M78 -77h-31l260 754h31z"/>
<glyph glyph-name="zero" d="M237 637q-34 0 -59.5 -31.5t-39 -82.5t-19.5 -102.5t-6 -102.5q0 -54 6.5 -106t20.5 -100.5t39.5 -78t58.5 -29.5q61 0 93 94.5t32 224.5q0 43 -4.5 87.5t-16 100.5t-39 91t-66.5 35zM243 654q86 0 145.5 -84.5t59.5 -243.5q0 -90 -18.5 -158t-50 -106t-67 -56.5 t-74.5 -18.5q-88 0 -149 79.5t-61 247.5q0 157 63 248.5t152 91.5z" unicode="0"/>
<glyph glyph-name="one" d="M211 586l-121 -2l2 4q5 2 36 12.5t74.5 25.5t75.5 28h6q0 -47 2.5 -328.5t2.5 -288.5l107 -36l-2 -4q-144 3 -146 3q-12 0 -162 -3l2 4l114 36q9 165 9 549z" unicode="1"/>
<glyph glyph-name="two" d="M32 7l37 43q12 8 17 13q44 38 94 94t82 104q64 97 64 194q0 72 -37.5 118t-101.5 46q-48 0 -77 -23q-16 -102 -30 -137l-5 -3q-17 27 -41 99q95 99 199 99q70 0 125 -47t55 -140q0 -67 -32.5 -119.5t-104.5 -129.5q-73 -77 -159 -156v-2q30 0 135.5 2.5t130.5 2.5 q41 51 63 72l4 -1q-4 -24 -19 -75.5t-23 -65.5q-6 0 -80.5 2.5t-126.5 2.5h-169v7z" unicode="2"/>
<glyph glyph-name="three" d="M80 143l6 2q8 -19 22 -122q22 -11 71 -11q71 0 116.5 50t45.5 122q0 61 -33.5 97t-91.5 45q-75 -12 -94 -14l-3 4q14 21 38 36q7 0 29 -1t29 -2q50 15 75.5 54t25.5 87q0 58 -33 95.5t-86 37.5t-87 -27q-11 -93 -20 -110l-4 -1q-20 30 -44 80q96 89 192 89q80 0 123 -43 t43 -103q0 -63 -39.5 -98.5t-112.5 -65.5v-4q95 -10 140 -53t45 -107q0 -87 -68.5 -140t-159.5 -53q-59 0 -106 19t-65 38q15 49 46 99z" unicode="3"/>
<glyph glyph-name="four" d="M271 220l6 383h-2q-133 -214 -219 -379q51 -4 215 -4zM347 197l2 -161l88 -35l-3 -4q-4 0 -54.5 1.5t-76.5 1.5q-14 0 -128 -3l3 4l88 35q0 13 2 67.5t2 91.5l-249 -3l-12 19q36 73 140.5 237t125.5 184q20 11 72 22l2 -434h67q23 35 47 61h4q0 -13 -11 -67.5t-16 -72.5 l-3 -5q-13 22 -24 63z" unicode="4"/>
<glyph glyph-name="five" d="M70 302l-9 9q25 165 44 334q90 -5 229 -5q13 0 88 22l3 -3q-30 -47 -73 -77q-7 -5 -28 -7q-93 -3 -171 -3h-27q-13 -89 -39 -241l2 -1q80 45 151 45q54 0 93.5 -16.5t59.5 -44t28.5 -54.5t8.5 -55q0 -73 -40 -124.5t-93 -72.5t-110 -21q-43 0 -86 14t-61 29q17 59 43 106 l3 2q15 -38 29 -122q16 -7 53 -7q72 0 122 52t50 133q0 64 -35 107.5t-107 43.5q-62 0 -128 -43z" unicode="5"/>
<glyph glyph-name="six" d="M238 349q-53 0 -109 -44q-14 -14 -14 -65q0 -40 6.5 -78t21 -75t42 -60t64.5 -23q59 0 87.5 54t28.5 121q0 80 -36.5 125t-90.5 45zM414 670l10 -13q-131 -22 -214 -114t-93 -224h2q54 37 89.5 54.5t70.5 17.5q62 0 116 -48.5t54 -140.5q0 -100 -61 -157.5t-143 -57.5 q-104 0 -161 75.5t-57 193.5q0 179 116 292q60 58 135.5 88t135.5 34z" unicode="6"/>
<glyph glyph-name="seven" d="M99 -12l-4 5q6 21 27 58t61 103.5t63 106.5q108 185 158 314q-25 3 -148 3q-152 0 -172 -5q-24 -54 -39 -84l-4 -2q-2 8 -3.5 41.5t-2.5 72.5t-1 44l4 3q32 -6 49 -7h196q134 0 158 3l-3 -25q-6 -50 -128 -293.5t-128 -266.5l-10 -55z" unicode="7"/>
<glyph glyph-name="eight" d="M248 4q50 0 83 35.5t33 95.5q0 59 -44 96q-40 35 -126 79q-80 -58 -80 -149q0 -69 38 -113t96 -44zM239 637q-41 0 -75 -33t-34 -94q0 -55 46 -93q28 -24 104 -63q67 58 67 140v7q-1 53 -30 94.5t-78 41.5zM242 654q79 0 126 -45t47 -108q0 -12 -2 -23.5t-7 -22.5 t-9 -18.5t-14 -18t-14 -15.5t-18 -15.5t-17.5 -13.5t-20 -14.5t-18.5 -13.5v-2q58 -33 77 -50q67 -49 67 -127q0 -29 -11.5 -59t-34.5 -58t-64.5 -45.5t-95.5 -17.5q-83 0 -139.5 47t-56.5 114q0 48 28 80t112 90v2q-33 21 -52 36q-62 53 -62 128q0 81 56 125.5t123 44.5z " unicode="8"/>
<glyph glyph-name="nine" d="M233 637q-60 0 -89.5 -50.5t-29.5 -118.5q0 -78 40.5 -124t98.5 -46q52 0 86 28q11 10 13 27q3 24 3 57q0 99 -32 163t-90 64zM71 -23l-10 12q22 5 45 13t65.5 33t75.5 57.5t63.5 91t40.5 130.5h-1q-68 -56 -143 -56q-71 0 -123 51.5t-52 133.5q0 95 62.5 153t139.5 58 q57 0 100 -26t65 -67.5t32.5 -84.5t10.5 -86q0 -88 -31.5 -163.5t-84 -126.5t-118 -83t-137.5 -40z" unicode="9"/>
<glyph glyph-name="colon" horiz-adv-x="191" unicode=":" d="M97 406l5 2q10 -4 25 -21.5t21 -31.5l-2 -7q-6 -13 -22 -30.5t-27 -23.5l-6 -1q-28 14 -46 52l2 8q24 38 50 53zM97 100l5 2q10 -4 25 -21.5t21 -31.5l-2 -8q-5 -11 -21.5 -28.5t-27.5 -23.5l-6 -2q-29 16 -46 53l2 8q24 38 50 52z"/>
<glyph glyph-name="semicolon" horiz-adv-x="191" unicode=";" d="M36 -111l-8 8q57 65 57 130q0 23 -9 36l-37 18v7l71 43h9q9 -5 18.5 -26.5t9.5 -49.5q0 -88 -111 -166zM97 406l6 2q9 -4 24 -21t21 -31l-1 -8q-6 -13 -22 -30t-27 -24l-7 -1q-26 14 -46 52l3 8q23 38 49 53z"/>
<glyph glyph-name="less" horiz-adv-x="457" unicode="&lt;" d="M41 189l8 35l367 188l-7 -43l-325 -163v-3l332 -165l-7 -38z"/>
<glyph glyph-name="equal" horiz-adv-x="485" unicode="=" d="M432 321l-13 -32h-366l14 32h365zM432 173l-13 -32h-366l14 32h365z"/>
<glyph glyph-name="greater" horiz-adv-x="457" unicode="&gt;" d="M415 223l-8 -33l-366 -188l7 41l323 164v3l-330 163l7 38z"/>
<glyph glyph-name="question" horiz-adv-x="370" unicode="?" d="M175 100l6 2q9 -4 24.5 -21.5t21.5 -31.5l-2 -8q-6 -11 -22.5 -28.5t-26.5 -23.5l-7 -2q-12 7 -26 23.5t-19 29.5l2 8q22 37 49 52zM190 650h3q58 0 102.5 -38.5t44.5 -110.5q0 -39 -17.5 -67t-56.5 -64q-28 -27 -43 -43.5t-29.5 -38.5t-14.5 -38q0 -30 14 -53l-4 -4 q-23 4 -49.5 37.5t-27.5 67.5q21 42 84 105q69 68 69 119q0 36 -26.5 68.5t-77.5 32.5q-26 0 -53 -12q-9 -68 -22 -105l-4 -1q-22 31 -45 78q77 67 153 67z"/>
<glyph glyph-name="at" horiz-adv-x="755" unicode="@" d="M571 389l3 -6l-24 -44q-32 -111 -68 -284q-2 -14 5 -14q88 0 141 63t53 156q0 116 -73.5 188.5t-190.5 72.5q-80 0 -143.5 -30.5t-101.5 -81t-57.5 -111.5t-19.5 -126q0 -142 85.5 -226t210.5 -84q179 0 291 121l8 -10q-127 -146 -317 -146q-149 0 -242.5 95t-93.5 249 q0 152 108.5 260.5t275.5 108.5q129 0 213.5 -78.5t84.5 -201.5q0 -105 -74 -173t-188 -68h-9q-21 0 -34 5q4 14 42 152h-4q-45 -66 -99.5 -111.5t-93.5 -45.5q-26 0 -40.5 21t-14.5 57q0 53 31.5 120t85.5 109q62 51 120 51q35 0 60 -24l7 23zM449 354q-36 0 -79 -40 q-42 -39 -71 -104.5t-29 -120.5q0 -37 17 -37q21 0 64 35.5t82 93.5t63 155q-18 18 -47 18z"/>
<glyph glyph-name="A" horiz-adv-x="695" unicode="A" d="M322 557h-2q-79 -209 -98 -265q13 0 94 -2t104 -2q-17 48 -49.5 136.5t-48.5 132.5zM296 634l66 49l6 -4q0 -2 -0.5 -5.5t-0.5 -5.5q0 -16 13 -55q15 -40 98.5 -258t116.5 -300q24 -21 94 -54l-2 -4q-105 3 -114 3q-3 0 -102 -3l1 4l41 34q-5 15 -16 45t-32 84t-37 97 q-93 -6 -150 -6q-9 0 -31.5 0.5t-36.5 0.5q-54 -137 -79 -216l87 -39l-2 -4q-87 3 -114 3q-2 0 -95 -3l1 4l72 38q72 147 225 541q4 12 1 25z"/>
<glyph glyph-name="B" horiz-adv-x="570" unicode="B" d="M445 189q0 34 -9 58.5t-32.5 47t-70.5 34.5t-116 12h-20v-24q0 -22 -0.5 -74.5t-0.5 -80.5q0 -97 5 -147q147 2 205 62q39 43 39 112zM197 646v-287q104 2 159.5 35t55.5 119q0 75 -53 107q-45 26 -147 26h-15zM33 650l3 5q163 13 223 13q240 0 240 -150 q0 -69 -52 -107.5t-124 -51.5v-7q217 -22 217 -159q0 -196 -319 -196q-100 0 -190 3v4l79 33q6 36 6 251v338z"/>
<glyph glyph-name="C" horiz-adv-x="658" unicode="C" d="M404 677h3q109 0 168 -42q32 24 62 31l4 -2q-2 -25 -17 -81t-22 -71l-5 -3q-7 15 -17.5 52.5t-11.5 56.5q-44 31 -139 31q-144 0 -224 -92t-80 -229q0 -129 82.5 -222t234.5 -93q46 0 68 8q96 97 116 113l5 -3q-4 -17 -24.5 -64.5t-27.5 -54.5q-87 -31 -178 -31 q-71 0 -135.5 21t-117 62t-83.5 108t-31 151q0 87 35 157t90.5 111.5t119 63.5t125.5 22z"/>
<glyph glyph-name="D" horiz-adv-x="713" unicode="D" d="M197 646v-302q0 -310 5 -327q193 0 283 79q102 86 102 246q0 150 -102 235q-85 69 -265 69h-23zM29 652l4 4q132 12 226 12q196 0 308.5 -79.5t112.5 -242.5q0 -70 -21 -127t-56.5 -93t-69.5 -58t-73 -37q-89 -34 -260 -34q-59 0 -176 3l2 4l84 32q6 15 6 307v285z"/>
<glyph glyph-name="E" horiz-adv-x="528" unicode="E" d="M34 657l1 5q114 -3 116 -3h262q33 11 66 11l2 -2q-2 -16 -14 -71.5t-14 -63.5l-5 -2q-22 58 -38 106l-213 -8v-271q177 0 250 10l2 -3q-3 -6 -24.5 -26t-25.5 -20q-3 0 -95 4.5t-107 4.5q0 -203 4 -296l219 -11q70 100 86 119h4q-4 -52 -30 -143q-62 3 -177 3h-153 q-27 0 -135 -3l3 4l92 35q6 22 6 308v280z"/>
<glyph glyph-name="F" horiz-adv-x="500" unicode="F" d="M39 657l2 5q70 -2 107 -2h258q40 10 66 10h2l2 -2q-3 -28 -24 -141l-4 -3q-9 20 -25 64t-18 48l-208 -9v-287q183 0 255 11l1 -5q-3 -6 -25 -24.5t-26 -18.5q-2 0 -94.5 4.5t-110.5 4.5q0 -245 4 -275l100 -36l-3 -4q-81 3 -144 3q-24 0 -70 -1.5t-54 -1.5l3 4l79 36 q4 20 4 304v280z"/>
<glyph glyph-name="G" horiz-adv-x="711" unicode="G" d="M352 292l44 17q106 8 264 8q-8 -79 -26 -198t-26 -133h-7q-17 1 -29.5 12t-15.5 21q-34 -17 -81 -27.5t-80 -10.5q-161 0 -260.5 93.5t-99.5 251.5q0 150 109.5 250.5t275.5 100.5q102 0 161 -49q30 25 65 40l4 -3q-4 -33 -19 -91.5t-22 -73.5l-5 -3q-21 56 -30 115 q-61 34 -142 34q-138 0 -221.5 -89t-83.5 -229q0 -132 80.5 -222t221.5 -90q84 0 124 20q1 76 13 241l-210 8z"/>
<glyph glyph-name="H" horiz-adv-x="746" unicode="H" d="M39 656l2 4q93 -3 113 -3q27 0 90 3l-2 -5l-45 -35v-250h353v250l-45 37l4 3q78 -3 83 -3q26 0 125 3l-2 -5l-84 -35v-279q0 -283 8 -301l87 -39l-3 -4q-105 3 -135 3q-27 0 -81 -3l2 5l40 36q2 94 2 135q0 29 -0.5 86t-0.5 87q-36 -10 -131 -10h-222q0 -26 -1 -82 t-1 -88q0 -58 3 -124l38 -41l-1 -4q-63 3 -87 3q-25 0 -121 -3l4 4l79 37q6 150 6 310v273z"/>
<glyph glyph-name="I" horiz-adv-x="313" unicode="I" d="M37 656l1 4q14 0 38 -1t44 -1.5t38 -0.5t38 0.5t44 1.5t38 1l-2 -5l-79 -36v-277q0 -265 5 -305l90 -36l-1 -4q-90 3 -135 3q-48 0 -132 -3l2 4l84 36q6 24 6 305v278z"/>
<glyph glyph-name="J" horiz-adv-x="286" unicode="J" d="M20 655l3 5q15 0 38.5 -1t44.5 -1.5t44 -0.5q2 0 122 3l-3 -5l-76 -35q1 -39 1 -160q0 -72 -0.5 -189.5t-0.5 -133.5q0 -53 -14 -91q-36 -139 -145 -221l-17 7v6q55 43 75 107t20 157v21q0 14 -0.5 84t-0.5 149q-1 225 -3 264z"/>
<glyph glyph-name="K" horiz-adv-x="650" unicode="K" d="M37 657l2 4q117 -3 119 -3q18 0 38 0.5t44 1.5t38 1l-2 -5l-79 -37v-276q0 -266 5 -306l90 -36l-1 -4q-90 3 -135 3q-48 0 -132 -3l2 4l84 36q6 23 6 306v277zM645 658l-2 -4q-34 -10 -111 -34q-12 -3 -26 -17q-66 -59 -213 -225v-3q95 -117 229 -262q31 -34 58 -62 t40.5 -42.5t20.5 -22.5l-1 -2q-70 3 -110.5 24t-85.5 66q-96 98 -223 250v8q196 212 251 292q-3 24 -3 28q0 2 0.5 4.5t0.5 3.5q16 1 52 1q30 0 73.5 -1.5t49.5 -1.5z"/>
<glyph glyph-name="L" horiz-adv-x="532" unicode="L" d="M35 656v4q93 -3 119 -3q27 0 123 3l-3 -5l-77 -35v-276q0 -281 4 -309l224 -16q69 99 94 129l3 -4q-2 -19 -14 -74.5t-18 -73.5q-7 0 -41.5 1t-109.5 2t-181 1q-16 0 -136 -3v4l90 36q4 34 4 306v277z"/>
<glyph glyph-name="M" horiz-adv-x="903" unicode="M" d="M54 651l3 7l153 2q4 -24 14 -49q17 -41 232 -483h2q3 7 47 96.5t97 198.5t92 195q2 6 2 42l172 -2l-2 -4l-88 -33q2 -123 8.5 -341.5t10.5 -242.5l87 -36v-4q-87 3 -127 3q-22 0 -112 -3l2 4l63 36q0 1 -2 229.5t-4 316.5h-2q-217 -481 -266 -594l-11 -6 q-195 440 -254 572h-3q-22 -312 -22 -497v-19l75 -38l-1 -4q-96 3 -106 3q-13 0 -97 -3l1 4l77 37q17 75 55 549q-9 27 -21.5 35t-74.5 29z"/>
<glyph glyph-name="N" horiz-adv-x="733" unicode="N" d="M248 1l-1 -4q-117 3 -118 3q-3 0 -111 -3l1 4l88 39q13 201 18 523q-34 49 -48 61t-55 30l3 5l128 5q4 -16 33 -52q181 -235 419 -505h3q0 247 -7 510l-81 39l4 4q11 0 44 -1.5t50 -1.5l114 3l-2 -5l-85 -38q-11 -264 -12 -531q0 -70 -4 -102l-5 -5q-38 27 -109 105.5 t-133.5 155.5t-180.5 224q-34 43 -52 65h-2v-116q0 -322 8 -371z"/>
<glyph glyph-name="O" horiz-adv-x="765" unicode="O" d="M378 657q-118 0 -184 -93t-66 -226q0 -136 74.5 -237t194.5 -101q63 0 110.5 28.5t75 76.5t41 104t13.5 118q0 133 -75.5 231.5t-183.5 98.5zM379 677q62 0 122.5 -20.5t112 -60t84 -105.5t33.5 -149v-8q0 -87 -30 -156.5t-80 -111t-111 -63.5t-127 -22 q-59 0 -118.5 20.5t-112 60t-85.5 107.5t-33 154q0 88 33 158.5t86 111.5t111 62.5t115 21.5z"/>
<glyph glyph-name="P" horiz-adv-x="533" unicode="P" d="M41 649l3 4q137 15 197 15q119 0 181 -40q81 -49 81 -154q0 -54 -21 -96t-54 -64t-67.5 -33t-67.5 -11q-26 0 -38 4l-2 7q76 12 118.5 62t42.5 126q0 90 -54 134t-153 44h-10v-290q0 -111 1.5 -185.5t3 -104t1.5 -30.5l104 -36l-1 -4q-17 0 -47.5 1t-55.5 1.5t-47 0.5 q-1 0 -118 -3l1 4l73 35q4 22 4 318v272z"/>
<glyph glyph-name="Q" horiz-adv-x="765" unicode="Q" d="M379 657q-118 0 -184.5 -94.5t-66.5 -227.5q0 -84 33 -159.5t97 -125.5t145 -55q60 7 106.5 39.5t73.5 80.5t40.5 102t13.5 110q0 134 -74.5 232t-183.5 98zM379 677q46 0 92.5 -11t93.5 -37.5t83 -64.5t59 -97t24 -130v-6q0 -64 -17.5 -118.5t-44 -90t-62.5 -63.5 t-67 -42.5t-63 -22.5v-2q102 -58 296 -162l-2 -4q-24 -3 -45 -3q-83 0 -175 45q-33 15 -181 98q-17 9 -54 20q-56 14 -103.5 39.5t-89 64.5t-65.5 99t-24 134q0 86 32 156t83 112t110.5 64t119.5 22z"/>
<glyph glyph-name="R" horiz-adv-x="589" unicode="R" d="M34 644l3 4q88 20 229 20q238 0 238 -164q0 -41 -15 -73.5t-42 -53t-50 -31.5t-53 -21v-2q71 -112 163 -232q9 -13 80 -103l-2 -3q-54 3 -90.5 22t-70.5 57q-68 78 -175 244l3 4q81 21 123 63t42 115q0 156 -209 156h-10v-326v-144q0 -108 2 -140l96 -35l-2 -4 q-17 0 -46 1t-53 1.5t-45 0.5q-19 0 -39.5 -0.5t-46 -1.5t-39.5 -1l2 4l82 35q7 143 7 283v306z"/>
<glyph glyph-name="S" horiz-adv-x="481" unicode="S" d="M252 677q65 0 108 -37q24 20 59 34l4 -2q-8 -60 -37 -137l-4 -3q-14 31 -30 91q-33 24 -94 24q-59 0 -95 -37t-36 -89q0 -66 64 -105q3 -2 144 -79q114 -65 114 -159q0 -56 -23.5 -97.5t-60.5 -61.5t-72.5 -29t-70.5 -9q-57 0 -110 22t-76 41q4 17 21 61t25 60l4 2 q9 -29 24 -141q31 -17 95 -17h6q76 2 117 38.5t41 102.5q0 64 -81 110q-13 7 -63 35t-78 45q-91 58 -91 157q0 71 53 125.5t143 54.5z"/>
<glyph glyph-name="T" horiz-adv-x="630" unicode="T" d="M97 658h445q6 2 64 15l1 -3q-14 -95 -26 -142l-4 -5l-11 33t-16.5 49t-10.5 32l-189 -10v-260q0 -118 1 -192.5t2.5 -102.5t1.5 -34l107 -37l-1 -4q-17 0 -47.5 1t-55.5 1.5t-47 0.5t-46.5 -0.5t-55 -1.5t-47.5 -1l2 4l102 37q3 52 3 296v293l-175 10q-16 -35 -58 -112 l-5 -1q-1 9 -1 39q0 80 4 106l3 4q41 -9 60 -15z"/>
<glyph glyph-name="U" horiz-adv-x="702" unicode="U" d="M15 656l2 4q14 0 39 -1t45.5 -1.5t38.5 -0.5q24 0 102 3l-2 -4l-57 -36q-2 -129 -2 -412q0 -72 34 -117q52 -70 164 -70q116 0 165 74q33 50 36 143q2 70 2 198q0 32 -0.5 93t-0.5 91l-77 36l3 4q10 0 28.5 -1t33.5 -1.5t28 -0.5q27 0 114 3l-2 -4l-85 -36 q-1 -11 -13 -356q-3 -109 -37 -165q-66 -116 -222 -116q-152 0 -220 105q-31 51 -34 152q0 13 -0.5 40.5t-0.5 42.5q0 41 1 120.5t1 111.5q0 13 -0.5 35t-0.5 30z"/>
<glyph glyph-name="V" horiz-adv-x="677" unicode="V" d="M196 661l-2 -4l-27 -36q22 -63 207 -523h2q145 381 191 520l-27 39l4 4q36 -3 52 -3q28 0 94 3v-4q-13 -7 -39 -20t-39 -20q-46 -87 -233 -576q-16 -34 -37 -60h-8q-19 51 -120 303t-136 334q-25 13 -77 39l4 4q72 -3 105 -3q11 0 86 3z"/>
<glyph glyph-name="W" horiz-adv-x="996" unicode="W" d="M7 656l2 4q75 -3 109 -3q15 0 43 1t38 1l-2 -3l-28 -35q11 -32 214 -531h3q27 54 115 250q-41 101 -121 277q-7 4 -20.5 12.5t-24.5 15t-21 11.5l2 4q75 -3 101 -3q9 0 24.5 1t21.5 1l3 -3l3 -35q18 -55 79 -189h2q58 133 77 185l1 39l2 3q4 0 17 -1t23 -1q8 0 89 3 l-2 -4q-58 -28 -88 -43q-30 -53 -108 -213q5 -12 20 -47t47 -109t64 -149h2q110 293 185 522l-32 39l3 3q8 0 26 -1t28 -1q24 0 108 3v-4q-47 -22 -86 -42q-26 -50 -227 -571q-10 -31 -39 -62h-6q-8 16 -28.5 65t-52 124.5t-58.5 136.5h-1q-34 -71 -73.5 -155.5 t-52.5 -111.5q-18 -37 -41 -59h-6q-8 19 -118 288t-145 347q-65 37 -71 40z"/>
<glyph glyph-name="X" horiz-adv-x="670" unicode="X" d="M33 656l2 4q15 0 41.5 -1t48 -1.5t41.5 -0.5q3 0 66 3l-1 -4l-9 -35q52 -96 131 -227h2q58 95 129 227l-23 35l1 4q51 -3 53 -3q17 0 35 0.5t40.5 1.5t34.5 1l-2 -4q-12 -5 -44.5 -19.5t-50.5 -22.5q-55 -71 -162 -243q171 -290 183 -307q13 -18 24 -23l94 -40l-1 -4 q-144 3 -145 3t-88 -3l1 4l32 36q-2 4 -148 261h-2q-67 -112 -145 -257l33 -40l-2 -4q-48 3 -72 3q-16 0 -35 -0.5t-42.5 -1.5t-36.5 -1l2 4l83 35q14 5 31 24q55 75 172 261q-146 253 -161 277q-10 21 -33 29z"/>
<glyph glyph-name="Y" horiz-adv-x="608" unicode="Y" d="M1 657l4 3q12 0 34.5 -1t41 -1.5t34.5 -0.5q15 0 37.5 1t30.5 1l-1 -3l-15 -27q8 -17 29 -54t62.5 -110.5t76.5 -136.5h2q113 209 156 296l-23 32l4 3q6 0 22.5 -1t25.5 -1q21 0 54 1.5t40 1.5l-1 -4l-66 -31q-16 -8 -26 -25q-108 -171 -167 -285q-7 -11 -7 -28 q0 -229 4 -250l107 -36v-4q-102 3 -151 3q-48 0 -150 -3l3 4l99 35q8 88 8 236q0 16 -9 32q-78 144 -181 317z"/>
<glyph glyph-name="Z" horiz-adv-x="599" unicode="Z" d="M575 658v-7q-13 -21 -86 -125t-173.5 -249.5t-168.5 -247.5v-4q82 0 214.5 0.5t138.5 0.5q14 18 46.5 63.5t46.5 62.5l3 -3q-3 -22 -14.5 -79t-17.5 -74h-12q-6 0 -191 2t-330 2l-2 7q30 41 105.5 148.5t178 254t152.5 217.5v2q-278 7 -334 7q-5 -9 -27.5 -54t-28.5 -56 l-5 -2q-3 33 -3 104q0 34 1 40l3 3q20 -3 57 -13h447z"/>
<glyph glyph-name="bracketleft" horiz-adv-x="309" unicode="[" d="M172 681v-820l104 -27l-1 -5h-149v885h150l-1 -4z"/>
<glyph glyph-name="backslash" horiz-adv-x="340" unicode="\" d="M302 -77h-31l-235 754h31z"/>
<glyph glyph-name="bracketright" horiz-adv-x="309" unicode="]" d="M137 -139v820l-108 29l5 4h149v-885h-154l3 5z"/>
<glyph glyph-name="asciicircum" horiz-adv-x="427" unicode="^" d="M377 340l-38 -5l-126 270h-2l-122 -265l-39 -5l147 311l30 8z"/>
<glyph glyph-name="underscore" horiz-adv-x="483" unicode="_" d="M483 -101v-48h-483v48h483z"/>
<glyph glyph-name="grave" horiz-adv-x="386" unicode="`" d="M237 499l-6 -7l-114 138v8q27 9 45 9q9 0 14 -1z"/>
<glyph glyph-name="a" horiz-adv-x="425" unicode="a" d="M113 117q0 -44 24.5 -65t51.5 -21q40 0 70 30q8 9 8 23l2 140q-90 -25 -127 -49q-29 -17 -29 -58zM269 242v27q-3 80 -28 109.5t-71 29.5q-32 0 -65 -19q-3 -84 -6 -106l-3 -2q-9 2 -33 29.5t-31 50.5q16 15 53.5 36t61.5 30q42 18 67 18q68 0 99.5 -47t31.5 -108 q0 -30 -1 -109.5t-1 -117.5q29 -37 80 -56l-3 -5q-15 -11 -46 -11q-82 0 -103 57h-2q-73 -61 -120 -61q-57 0 -87 35.5t-30 73.5q0 56 36 74q15 12 78 34.5t123 37.5z"/>
<glyph glyph-name="b" horiz-adv-x="496" unicode="b" d="M142 383v-352q30 -10 65 -10q78 0 126.5 57.5t48.5 141.5q0 78 -43 130.5t-118 52.5q-44 0 -79 -20zM65 -11v386q0 135 -3 283l-54 23l2 4q55 25 135 31q-3 -171 -3 -316q90 45 118 45q81 0 144 -56.5t63 -157.5q0 -61 -24 -110.5t-61 -77t-77 -42t-77 -14.5 q-31 0 -94 29q-41 -25 -69 -27z"/>
<glyph glyph-name="c" horiz-adv-x="430" unicode="c" d="M29 212q0 111 74.5 172t174.5 61q38 0 74 -12t50 -24q-16 -65 -35 -101l-4 -2q-15 31 -32 111q-12 6 -42 6q-85 0 -130 -59.5t-45 -142.5q0 -86 49.5 -143t128.5 -57q19 0 28 4q54 47 84 62l1 -3q-5 -17 -26 -45.5t-33 -35.5q-43 -16 -91 -16q-37 0 -74.5 12t-72.5 37 t-57 70.5t-22 105.5z"/>
<glyph glyph-name="d" horiz-adv-x="513" unicode="d" d="M352 61v332q-27 19 -72 19q-74 0 -120.5 -58.5t-46.5 -136.5q0 -76 44.5 -129.5t113.5 -53.5q41 0 81 27zM430 392v-336q36 -38 75 -55l-1 -3q-11 -11 -44 -11q-29 0 -59.5 14.5t-41.5 43.5h-2q-81 -58 -120 -58q-79 0 -143.5 58t-64.5 160q0 109 74 174.5t168 65.5 q34 0 79 -33l2 1q0 111 -3 243l-53 27l2 2q44 17 135 31q-3 -166 -3 -324z"/>
<glyph glyph-name="e" horiz-adv-x="434" unicode="e" d="M115 268h206q6 10 6 36q0 46 -22.5 84.5t-65.5 38.5q-41 0 -70.5 -31.5t-41 -65.5t-12.5 -62zM306 245h-190q-2 -9 -2 -24q0 -91 48.5 -144t121.5 -53q13 0 28 3q55 45 80 59l2 -4q-4 -16 -21 -39t-28 -30q-17 -9 -50.5 -17.5t-56.5 -8.5q-92 0 -150.5 60.5t-58.5 157.5 q0 104 65 172t151 68q69 0 116 -44.5t47 -116.5q0 -19 -10 -26q-29 -13 -92 -13z"/>
<glyph glyph-name="f" horiz-adv-x="275" unicode="f" d="M17 -3l4 4l60 36q6 42 6 211v153l-66 12l14 19h52q0 141 67 215q61 69 140 69q54 0 72 -22q-18 -55 -36 -84l-5 -2q-23 33 -38 86q-8 2 -12 2q-46 0 -73 -46.5t-32 -121.5q-3 -59 -3 -96h123l-15 -19l-108 -12q-3 -69 -3 -146q0 -199 5 -218l87 -36l-3 -4q-126 3 -136 3 q-15 0 -31.5 -0.5t-36.5 -1.5t-32 -1z"/>
<glyph glyph-name="g" horiz-adv-x="444" unicode="g" d="M215 -18q-66 0 -87 -12q-16 -13 -29.5 -38t-13.5 -44q0 -47 41 -74t94 -27q72 0 114.5 30.5t42.5 93.5q0 26 -15.5 43.5t-39.5 21.5q-39 6 -107 6zM206 428q-44 0 -67 -42.5t-23 -95.5q0 -59 24 -103t69 -44q43 0 65.5 44t22.5 106q0 48 -23 91.5t-68 43.5zM404 400 l-71 -6v-2q15 -14 27.5 -44.5t12.5 -63.5q0 -71 -49 -114.5t-120 -43.5q-42 0 -80 18q-29 -31 -29 -49q0 -14 16 -29t26 -15h1q58 5 115 5q66 0 104 -6q31 -4 52 -24q31 -31 31 -73q0 -73 -77 -137q-83 -69 -182 -69q-70 0 -117.5 32t-47.5 82q0 15 12 27l91 95l-1 2 q-24 11 -42 29q-14 12 -25.5 30t-11.5 30q0 17 70 76q-70 40 -70 130q0 63 47 114t135 51q32 0 74 -7q19 -3 40 -7t25 -5l82 39l2 -5z"/>
<glyph glyph-name="h" horiz-adv-x="519" unicode="h" d="M439 296v-235q0 -23 18 -30l53 -30l-3 -4h-21q-74 0 -135 8q11 90 11 255q0 140 -108 140q-58 0 -98 -38q0 -311 5 -326l70 -35l-2 -4l-117 3q-2 0 -95 -3l3 4l54 35q5 15 5 243q0 248 -3 376l-54 27l2 3q49 16 135 31q-3 -168 -3 -332l1 -1q80 62 138 62q69 0 106.5 -44 t37.5 -105z"/>
<glyph glyph-name="i" horiz-adv-x="242" unicode="i" d="M35 413l3 4q70 22 125 28v-200q0 -135 4 -209l66 -35l-3 -4q-102 3 -107 3q-19 0 -55.5 -1.5t-44.5 -1.5l2 4l57 35q4 102 4 211v141zM123 652l6 1q8 -3 21.5 -18t18.5 -28l-2 -7q-5 -10 -19.5 -25t-23.5 -20l-6 -3q-26 17 -40 47l1 6q22 34 44 47z"/>
<glyph glyph-name="j" horiz-adv-x="226" unicode="j" d="M25 416l2 3q21 8 67.5 17t64.5 9v-381q0 -88 -41 -165q-56 -106 -120 -152l-14 9l-1 4q64 55 82 119t18 186q0 247 -5 324q-34 18 -53 27zM120 653l6 1q8 -3 21 -18t19 -28l-2 -7q-5 -10 -19.5 -25t-23.5 -20l-6 -3q-24 16 -41 47l2 6q22 34 44 47z"/>
<glyph glyph-name="k" horiz-adv-x="473" unicode="k" d="M161 36l72 -35l-1 -4q-14 0 -36.5 1t-41 1.5t-35.5 0.5l-108 -3l2 4l61 35q5 23 5 227q0 256 -3 394l-55 25l2 4q71 23 136 31q-3 -123 -3 -362q0 -279 5 -319zM474 -11l-5 -5q-89 13 -127 47q-65 60 -168 196v5q60 66 141 170l21 43h7q74 0 111 -14l-4 -5 q-1 -1 -113 -41q-36 -36 -99 -108v-2q50 -66 236 -286z"/>
<glyph glyph-name="l" horiz-adv-x="235" unicode="l" d="M160 37l66 -36l-3 -4q-105 3 -106 3q-2 0 -107 -3l2 4l63 36q4 88 4 354q0 217 -3 266l-54 28l4 4q26 11 133 27q-3 -163 -3 -321q0 -204 4 -358z"/>
<glyph glyph-name="m" horiz-adv-x="798" unicode="m" d="M87 249v134l-50 22l2 5q89 34 125 35l-4 -82h1q103 82 154 82q41 0 71.5 -21.5t44.5 -61.5q56 46 91.5 64.5t68.5 18.5q59 0 94 -39.5t35 -105.5v-252q0 -9 19 -20l49 -27v-4q-108 3 -109 3q-11 0 -86 -3l1 4l42 36q6 68 6 203v37q0 29 -6 52.5t-28 44.5t-59 21 q-59 0 -113 -53q6 -32 6 -88v-220l56 -33l-3 -4q-78 3 -92 3t-92 -3l2 4l47 35q4 83 4 249q0 44 -22 77t-74 33q-46 0 -104 -50q0 -281 4 -311l57 -33l-2 -4q-63 3 -103 3q-27 0 -93 -3l1 4l55 35q4 24 4 213z"/>
<glyph glyph-name="n" horiz-adv-x="526" unicode="n" d="M87 281v99l-50 25l2 5q18 8 61.5 21t63.5 14l-4 -83h2q55 46 89.5 64.5t66.5 18.5q66 0 97.5 -43.5t31.5 -103.5v-246q0 -17 12 -22l58 -29l-3 -4q-57 3 -109 3q-11 0 -77 -3l2 4l32 34q7 70 7 251q0 56 -27.5 83.5t-68.5 27.5q-52 0 -109 -57q0 -289 5 -305l51 -34 l-1 -4q-35 3 -95 3q-22 0 -100 -3l2 4l56 34q5 16 5 246z"/>
<glyph glyph-name="o" horiz-adv-x="500" unicode="o" d="M250 428q-45 0 -76 -34.5t-43.5 -79.5t-12.5 -93q0 -82 39 -149.5t102 -67.5q62 0 92 63t30 144q0 80 -35 148.5t-96 68.5zM251 445q92 0 155.5 -63.5t63.5 -161.5q0 -104 -63.5 -168.5t-159.5 -64.5q-86 0 -152 61t-66 162q0 104 69 169.5t153 65.5z"/>
<glyph glyph-name="p" horiz-adv-x="510" unicode="p" d="M156 358v-319q31 -18 76 -18q67 0 115 53.5t48 147.5q0 71 -38.5 123.5t-103.5 52.5q-48 0 -97 -40zM156 448l-4 -71h2q103 67 142 67q67 0 125.5 -55t58.5 -151q0 -63 -24 -113t-61.5 -79t-78 -44t-77.5 -15q-26 0 -81 32l-2 -1q0 -67 4 -215l92 -37l-4 -4q-16 0 -43 1 t-49 1.5t-42 0.5l-96 -3l2 4l55 34q4 220 4 301v283l-53 31l4 4q12 5 59 16t67 13z"/>
<glyph glyph-name="q" horiz-adv-x="504" unicode="q" d="M354 56v330q-30 24 -80 24q-66 0 -112.5 -56.5t-46.5 -137.5q0 -83 46.5 -134t109.5 -51q48 0 83 25zM431 366v-234q0 -61 0.5 -180.5t0.5 -149.5l83 -36l-2 -4q-14 0 -40 1t-47 1.5t-39 0.5l-111 -3v4l73 35q5 223 5 233l-2 1q-79 -48 -114 -48q-87 0 -147 60.5 t-60 161.5q0 96 68 166t163 70q49 0 101 -42q16 13 47 26.5t51 15.5l2 -2q-7 -35 -32 -77z"/>
<glyph glyph-name="r" horiz-adv-x="351" unicode="r" d="M38 409l3 4q77 31 111 32q10 -28 10 -104h1q29 54 68 79t71 25q24 0 39 -11q-2 -42 -30 -104l-5 -3q-15 23 -34 71q-6 2 -14 2q-52 0 -94 -95v-272l93 -32v-4q-84 3 -142 3q-33 0 -93 -3v4l57 33q8 163 8 342z"/>
<glyph glyph-name="s" horiz-adv-x="358" unicode="s" d="M185 445q39 0 70 -24q26 18 51 26l4 -4q-6 -78 -22 -112l-4 -3q-14 22 -34 75q-30 15 -60 15q-37 0 -59 -22.5t-22 -52.5q0 -42 42 -63q56 -28 98 -46q83 -38 83 -113q0 -46 -28.5 -78t-63 -44t-69.5 -12q-77 0 -140 44q4 45 27 103l3 3q6 -11 14.5 -35t17.5 -52t10 -32 q22 -9 60 -9t67.5 24.5t29.5 60.5q0 44 -43 65q-79 40 -89 44q-84 40 -84 116q0 52 39 89t102 37z"/>
<glyph glyph-name="t" horiz-adv-x="308" unicode="t" d="M154 432h147l-15 -20l-132 -13v-319q0 -17 15 -32q21 -15 51 -15q41 0 77 25l3 -1l-2 -16q-37 -54 -110 -54q-57 0 -90 40q-22 27 -22 107v265l-64 13l14 20h51q10 55 29 109q7 12 24.5 22.5t27.5 10.5z"/>
<glyph glyph-name="u" horiz-adv-x="513" unicode="u" d="M76 391l-56 29l4 4q51 14 130 14h6q-8 -90 -8 -296q0 -53 18 -76q28 -30 72 -30q29 0 62 18.5t49 43.5v290q-13 7 -68 34l4 4q76 12 137 12h8q-3 -45 -3 -376q21 -34 76 -55l-1 -4q-18 -12 -52 -12q-88 0 -100 78l-2 1q-71 -83 -144 -83q-61 0 -96 34q-38 38 -38 111 q0 36 1 127.5t1 131.5z"/>
<glyph glyph-name="v" horiz-adv-x="444" unicode="v" d="M-6 431l3 4q35 -3 93 -3q32 0 69 3l-1 -4l-23 -36q10 -31 115 -304l2 -1q34 87 107 301l-25 40l3 4q36 -3 48 -3q49 0 72 3l-2 -4q-19 -14 -59 -42q-32 -62 -143 -356q-16 -33 -31 -50h-7q-3 7 -35.5 88.5t-72.5 180.5t-58 141q-36 26 -55 38z"/>
<glyph glyph-name="w" horiz-adv-x="691" unicode="w" d="M173 435l-1 -4l-33 -37q13 -42 102 -296h2q12 31 45.5 116.5t48.5 126.5l-6 64q21 18 60 30l4 -2l9 -76q14 -39 50.5 -128t52.5 -129h2q57 173 93 296l-44 35l2 4q66 -3 67 -3q2 0 74 3l-1 -4q-6 -3 -27.5 -16.5t-33.5 -20.5q-23 -44 -131 -366q-6 -11 -31 -45h-5 q-65 168 -124 308h-1q-86 -206 -107 -261q-11 -21 -32 -47h-5q-131 375 -149 412q-33 24 -54 36l3 4q84 -3 92 -3q12 0 25 0.5t28.5 1.5t24.5 1z"/>
<glyph glyph-name="x" horiz-adv-x="468" unicode="x" d="M175 406l72 -129h2q46 81 60 115q2 18 2 25q0 3 -0.5 9t-0.5 9q4 0 19.5 -1.5t23.5 -1.5q17 0 50.5 1.5t44.5 1.5l-1 -4q-88 -38 -100 -44q-27 -36 -89 -131q49 -93 107 -189q18 -29 33 -34l69 -30l-3 -3q-14 0 -70.5 -2.5t-83.5 -2.5q-24 54 -97 191h-2 q-56 -98 -80 -146q4 -7 33 -38l-4 -4q-36 3 -60 3q-7 0 -91 -3v4l59 30q21 9 35 27q42 59 98 149q-85 157 -107 189q-4 3 -72 34l1 4q11 0 30 -1t34.5 -1.5t28.5 -0.5q10 0 20 0.5t22 1.5t20 1z"/>
<glyph glyph-name="y" horiz-adv-x="433" unicode="y" d="M305 430l4 5q7 0 30 -1.5t34 -1.5q15 0 40.5 1.5t32.5 1.5l-3 -6q-9 -6 -27 -17t-27 -17q-30 -67 -104 -249.5t-123 -298.5q-18 -79 -24 -97q-4 -3 -19 -3t-32.5 7t-22.5 14q13 24 75 97q33 59 67 141q-2 4 -28.5 72.5t-63 160.5t-63.5 152q-16 13 -57 39l3 5 q87 -3 93 -3q1 0 76 3l-1 -4l-28 -33q13 -46 108 -291h2q59 146 105 289z"/>
<glyph glyph-name="z" horiz-adv-x="418" unicode="z" d="M372 432l6 -7q-26 -45 -246 -404v-1q157 0 197 8q54 82 66 94l4 2q-6 -73 -19 -129q-23 0 -90.5 2.5t-113.5 2.5h-147l-2 4q35 51 76 115.5t96.5 154.5t84.5 135v2q-69 0 -182 -4q-27 -54 -49 -87l-4 -1q-6 54 -6 104q0 4 0.5 9t0.5 6l3 3l57 -9h268z"/>
<glyph glyph-name="braceleft" horiz-adv-x="309" unicode="{" d="M201 339l-91 -58v-1l91 -58q-14 -140 -14 -224q0 -62 20 -101t67 -69l-7 -9q-47 18 -90.5 64.5t-43.5 100.5q0 96 30 235l-91 56l2 10l89 57q-30 126 -30 218q0 54 43.5 102t90.5 64l7 -9q-49 -29 -68 -68.5t-19 -102.5q0 -84 14 -207z"/>
<glyph glyph-name="bar" horiz-adv-x="286" unicode="|" d="M118 724h49v-965h-49v965z"/>
<glyph glyph-name="braceright" horiz-adv-x="307" unicode="}" d="M104 222l90 58v2l-90 58q14 157 14 208q0 60 -20 99.5t-67 69.5l4 9q48 -17 92.5 -63t44.5 -101q0 -89 -30 -218l91 -58l-2 -10l-89 -57q30 -129 30 -231q0 -56 -44 -104t-93 -65l-4 9q49 29 68 69.5t19 104.5q0 91 -14 220z"/>
<glyph glyph-name="asciitilde" horiz-adv-x="584" unicode="~" d="M516 295l23 -17q-28 -58 -61 -85t-78 -27q-44 0 -116 45q-70 47 -107 47q-31 0 -60.5 -23t-50.5 -64l-21 16q50 108 146 108q44 0 121 -50q59 -38 98 -38q59 0 106 88z"/>
<glyph glyph-name="uni00A0" horiz-adv-x="195" unicode=" "/>
<glyph glyph-name="exclamdown" horiz-adv-x="213" unicode="¡" d="M90 226l17 11q20 -256 37 -381l18 -37q-46 -21 -102 -39l-9 -1q2 21 7.5 83t14.5 167.5t17 196.5zM99 330l-7 -3q-9 5 -24.5 22.5t-21.5 30.5l3 8q5 12 21.5 30t27.5 23l6 2q29 -16 46 -53l-2 -8q-23 -35 -49 -52z"/>
<glyph glyph-name="cent" d="M264 134v373q-62 -14 -96 -66.5t-34 -124.5q0 -146 130 -182zM264 532v74l23 9v-81h3q45 0 84.5 -16t58.5 -33q-11 -43 -36 -80l-4 -2q-12 31 -25 97q-22 12 -63 12q-12 0 -18 -1v-382q17 -3 36 -3q4 0 10.5 0.5t8.5 0.5q48 47 85 65l2 -3q-5 -18 -27.5 -44.5 t-41.5 -34.5q-32 -13 -73 -13v-72l-23 -13v86q-39 1 -75 13t-68 36t-51.5 65.5t-19.5 95.5q0 68 34 119t80.5 75t99.5 30z" unicode="¢"/>
<glyph glyph-name="sterling" d="M449 143l5 -6q-14 -73 -39 -142q-5 0 -83 2.5t-135 2.5h-198v7l37 40q25 6 34 18q37 53 37 222v28l-95 12l13 17h81v23q0 176 102 252q47 35 106 35q32 0 58 -9.5t36 -20.5q-16 -62 -36 -93l-5 -3q-16 42 -25 104q-12 3 -27 3q-57 0 -91.5 -51t-34.5 -163v-12 q0 -50 1 -65h180l-13 -17l-168 -12q-1 -88 -27.5 -144t-75.5 -113l2 -2h45q169 0 254 5q46 64 62 82z" unicode="£"/>
<glyph glyph-name="currency" d="M235 479q-59 0 -95.5 -45.5t-36.5 -111.5q0 -67 39 -113t94 -46q60 0 96.5 45.5t36.5 113.5q0 67 -38 112t-96 45zM435 506l-60 -62q43 -57 43 -123q0 -67 -48 -124l62 -58l-28 -38l-62 69q-48 -38 -106 -38q-68 0 -114 40l-59 -68l-20 32l55 56q-44 56 -44 129 q0 69 41 118l-59 60l24 40l66 -72q51 44 113 44q60 0 114 -44l61 69z" unicode="¤"/>
<glyph glyph-name="yen" d="M62 347h129l-138 262l-55 31l3 4q16 0 48.5 -1.5t49.5 -1.5q14 0 43.5 1.5t44.5 1.5v-3l-46 -30l119 -249h2q64 133 114 247l-45 33l1 2q12 0 34.5 -1.5t33.5 -1.5q14 0 42 1.5t42 1.5l-2 -4l-68 -36q-88 -157 -136 -257h140l-12 -24h-133l1 -77h144l-13 -24h-131 q2 -166 4 -188l83 -33l-3 -4q-21 0 -62.5 1.5t-61.5 1.5t-62 -1.5t-62 -1.5l2 4l78 33q4 14 6 188h-145l11 24h134l1 77h-146z" unicode="¥"/>
<glyph glyph-name="brokenbar" horiz-adv-x="286" unicode="¦" d="M118 -183v367h49v-367h-49zM118 666h49v-366h-49v366z"/>
<glyph glyph-name="section" horiz-adv-x="423" unicode="§" d="M299 -3h2q39 45 39 114q0 61 -59 138q-22 29 -61 77.5t-56 73.5q-37 57 -37 94q0 22 8 50h-2q-52 -48 -52 -120v-5q2 -64 57 -141q18 -25 55 -71t49 -62q59 -74 59 -123q0 -11 -2 -25zM98 28l3 2q3 -7 6.5 -21.5t9 -36t9.5 -37.5q12 -5 43 -5q32 1 56 19.5t24 49.5 q0 40 -59 113q-59 74 -90 118q-64 88 -64 154q0 58 31 108.5t87 83.5q40 25 81 25q29 0 52 -17q16 16 48 29l3 -2q0 -11 -9.5 -53.5t-17.5 -58.5l-3 -2q-5 9 -23 68q-19 16 -53 16q-28 0 -44.5 -15.5t-16.5 -41.5q0 -27 19 -56q18 -31 121 -156q76 -91 76 -172 q0 -45 -27.5 -94.5t-83.5 -88.5q-19 -21 -49.5 -33t-56.5 -12q-59 0 -103 29q0 10 10.5 40.5t20.5 46.5z"/>
<glyph glyph-name="dieresis" horiz-adv-x="386" unicode="¨" d="M270 628l5 2q7 -4 19 -18t17 -25l-1 -5q-13 -25 -39 -43l-7 -2q-22 17 -36 42l3 7q16 29 39 42zM119 628l5 2q7 -4 19 -18.5t16 -24.5l-1 -5q-11 -24 -38 -43l-7 -2q-24 15 -36 42l2 7q18 32 40 42z"/>
<glyph glyph-name="copyright" horiz-adv-x="597" unicode="©" d="M316 451q38 0 63 -17q20 15 36 18l2 -1q0 -12 -7.5 -43t-10.5 -36l-1 -2q-16 23 -24 53q-11 11 -45 11q-52 0 -82.5 -34.5t-30.5 -89.5q0 -53 31 -89.5t85 -36.5q17 0 27 5q32 25 58 38l1 -2q-1 -8 -16 -26t-26 -25q-25 -11 -62 -11q-63 0 -108.5 36t-45.5 107 q0 74 49 109.5t107 35.5zM299 555q-101 0 -168.5 -71t-67.5 -178q0 -106 67.5 -177.5t169.5 -71.5q100 0 167.5 71.5t67.5 177.5q0 107 -67.5 178t-168.5 71zM300 578q109 0 186.5 -79.5t77.5 -193.5q0 -112 -77.5 -191.5t-187.5 -79.5t-187.5 79t-77.5 192 q0 114 77.5 193.5t188.5 79.5z"/>
<glyph glyph-name="ordfeminine" horiz-adv-x="251" unicode="ª" d="M155 375l1 67q-43 -8 -65 -23q-17 -11 -17 -29q0 -19 11.5 -30t29.5 -11q21 0 34 13q6 5 6 13zM156 455v16q1 62 -52 62q-20 0 -33 -9q-4 -41 -11 -56l-3 -2q-3 0 -14.5 15.5t-16.5 29.5q30 23 63 33q30 10 39 10q39 0 57.5 -23.5t18.5 -51.5q0 -17 -0.5 -58t-0.5 -60 q11 -19 38 -29l-1 -3q-9 -7 -32 -7q-41 0 -52 31q-40 -31 -69 -31q-30 0 -46.5 19t-16.5 41q0 23 19 36q10 6 46 18.5t67 18.5z"/>
<glyph glyph-name="guillemotleft" horiz-adv-x="435" unicode="«" d="M383 39l-5 -7q-92 115 -164 185q86 89 160 183l4 -8q-40 -83 -94 -175q70 -111 99 -178zM217 39l-4 -7q-86 111 -165 185q67 65 162 183l3 -8q-28 -62 -93 -175q72 -119 97 -178z"/>
<glyph glyph-name="logicalnot" horiz-adv-x="485" unicode="¬" d="M375 85v182h-312l18 33h335v-199z"/>
<glyph glyph-name="uni00AD" horiz-adv-x="319" unicode="­" d="M245 212l-206 -20l29 55l44 -1l169 8v-4z"/>
<glyph glyph-name="registered" horiz-adv-x="228" unicode="®" d="M73 607l2 4q10 3 34 3q34 0 34 -22q0 -15 -17 -20q8 -13 18 -25q3 -4 16 -17l-1 -1q-18 0 -27 11q-14 14 -25 31q20 4 20 19q0 19 -23 19h-3v-69l14 -6l-1 -3h-39l1 3l10 5v67zM113 645q-29 0 -49.5 -21.5t-20.5 -52.5t21 -53.5t50 -22.5t50 22.5t21 53.5t-21 52.5 t-51 21.5zM115 657q35 0 59.5 -24.5t24.5 -61.5t-24.5 -62.5t-60.5 -25.5q-35 0 -60 25.5t-25 62.5t25 61.5t61 24.5z"/>
<glyph glyph-name="macron" horiz-adv-x="386" unicode="¯" d="M275 548h-177l15 41h176z"/>
<glyph glyph-name="degree" horiz-adv-x="269" unicode="°" d="M132 617q-24 0 -41.5 -21t-17.5 -53q1 -32 18.5 -52.5t43.5 -20.5q25 0 43.5 20.5t18.5 52.5q0 30 -18 52t-47 22zM136 647q42 0 70.5 -30t28.5 -74t-29.5 -73.5t-70.5 -29.5q-42 0 -71 29.5t-30 73.5q0 44 30 74t72 30z"/>
<glyph glyph-name="plusminus" horiz-adv-x="485" unicode="±" d="M260 90l-40 -13v182h-172l13 33h159v153l40 12v-165h172l-13 -33h-159v-169zM432 33l-13 -33h-371l13 33h371z"/>
<glyph glyph-name="twosuperior" horiz-adv-x="296" unicode="²" d="M264 517l4 -4q-15 -62 -25 -85q-3 0 -21 1t-45 1.5t-50 0.5h-99v6l21 29q7 6 16 12q41 35 61.5 55.5t41 55t20.5 68.5q0 29 -17.5 50t-54.5 21q-22 0 -39 -10q-1 -8 -3 -23t-4 -27.5t-5 -24.5l-5 -3q-17 21 -29 58q54 56 119 56q37 0 66.5 -24t30.5 -71q0 -13 -3.5 -25 t-8 -21.5t-15.5 -22t-18 -20.5t-24.5 -22.5t-27 -21.5t-33 -25t-34.5 -26q14 0 74 1.5t69 1.5q8 9 38 39z"/>
<glyph glyph-name="threesuperior" horiz-adv-x="296" unicode="³" d="M68 660l-3 -2q-5 6 -25 46q52 50 112 50q35 0 62 -19t27 -57q0 -30 -23 -49t-52 -27l-1 -2q93 -13 93 -80q-1 -46 -40.5 -72t-88.5 -26q-34 0 -61 11t-35 21q16 41 26 54l4 1q4 -8 19 -66q16 -4 30 -4q35 0 59 23t24 57q0 61 -56 68q-48 -8 -50 -8l-2 3q0 12 18 25 q13 0 36 -3q44 17 44 61q0 30 -16.5 48.5t-46.5 18.5q-14 0 -37 -9q-7 -52 -17 -63z"/>
<glyph glyph-name="acute" horiz-adv-x="386" unicode="´" d="M169 492l-6 7l65 148q2 0 5 0.5t4 0.5q25 0 47 -11v-7z"/>
<glyph glyph-name="mu" horiz-adv-x="509" unicode="µ" d="M421 401v-351q10 -18 81 -26l-2 -7q-34 -29 -78 -30q-18 0 -33 5t-29.5 25t-15.5 54l-1 1q-73 -85 -135 -85q-47 0 -73 28h-2q-4 -84 -4 -135q0 -93 11 -130l-1 -3q-39 4 -55.5 32t-17.5 89v300v260q9 5 36.5 11t47.5 6l2 -2q-12 -159 -15 -319q0 -39 14 -56 q23 -32 75 -32q30 0 65 19.5t52 45.5v327q32 15 92 17l1 -4q-5 -12 -15 -40z"/>
<glyph glyph-name="paragraph" horiz-adv-x="484" unicode="¶" d="M387 650l-36 -116v-513q0 -80 -14.5 -136.5t-39 -83.5t-48.5 -38t-51 -11q-16 0 -28 5q-10 8 -21.5 25t-15.5 28l3 4q20 -8 54 -8q138 0 138 216v57q-40 -17 -44 -17q-57 0 -112 26t-94.5 81t-39.5 127q0 108 79.5 173t187.5 65h17l4 103z"/>
<glyph glyph-name="periodcentered" horiz-adv-x="194" unicode="·" d="M97 284l5 2q10 -4 25 -21.5t21 -31.5l-2 -8q-5 -12 -21 -28.5t-28 -24.5l-6 -2q-30 18 -46 53l2 8q24 37 50 53z"/>
<glyph glyph-name="cedilla" horiz-adv-x="386" unicode="¸" d="M204 0h20l-40 -56q37 -17 50.5 -32.5t13.5 -35.5q0 -24 -27 -46t-73 -35l-5 10q59 24 59 59q0 26 -63 49z"/>
<glyph glyph-name="onesuperior" horiz-adv-x="296" unicode="¹" d="M122 704l-66 1l1 4q3 2 19.5 8.5t44.5 17.5t48 19h8q0 -33 1 -163t1 -135l62 -24l-3 -4q-15 0 -44.5 1t-44.5 1q-16 0 -47.5 -1t-46.5 -1l2 4l59 24q6 117 6 248z"/>
<glyph glyph-name="ordmasculine" horiz-adv-x="285" unicode="º" d="M139 540q-30 0 -45 -31t-15 -68q0 -40 17 -73t49 -33t46.5 31.5t14.5 70.5q0 36 -16.5 69.5t-50.5 33.5zM143 554q51 0 84.5 -32t33.5 -81q0 -53 -34 -86t-86 -33q-47 0 -82 30t-35 84t37 86t82 32z"/>
<glyph glyph-name="guillemotright" horiz-adv-x="435" unicode="»" d="M52 393l5 7q82 -109 163 -185q-90 -90 -159 -183l-4 8q54 105 93 175q-68 107 -98 178zM219 393l3 7q86 -111 165 -185q-88 -85 -162 -183l-3 8q32 74 94 175q-67 105 -97 178z"/>
<glyph glyph-name="onequarter" horiz-adv-x="611" unicode="¼" d="M448 118l8 165h-2q-57 -81 -108 -164zM502 97l2 -73l49 -24l-1 -2q-16 0 -42 1t-39 1q-14 0 -41.5 -1t-39.5 -1l1 3l56 24l2 72l-129 -3l-8 12q21 36 75.5 113t66.5 90q14 10 48 15v-207l36 -1q9 14 22 25h4q0 -9 -4 -35t-7 -34l-3 -4q-9 13 -15 31zM516 666l16 -18 q-147 -240 -414 -687l-16 20q373 616 414 685zM119 603l-66 1l1 5q3 1 20 7.5t43.5 17.5t48.5 20h8q0 -33 1 -163t1 -135l62 -24l-3 -4q-15 0 -44.5 1t-44.5 1q-16 0 -47.5 -1t-46.5 -1l2 4l59 24q6 117 6 247z"/>
<glyph glyph-name="onehalf" horiz-adv-x="611" unicode="½" d="M577 86l4 -4q-18 -68 -25 -85q-3 0 -21 0.5t-45 1.5t-50 1h-99v6l21 30q7 5 16 11q41 37 61 56.5t41 54.5t21 69q0 29 -17.5 50t-53.5 21q-23 0 -39 -10q-2 -10 -6 -35.5t-7 -39.5l-4 -3q-17 19 -30 58q54 56 119 56q37 0 66.5 -24t30.5 -72q0 -13 -3.5 -25t-8 -21.5 t-15.5 -22t-18 -20.5t-24.5 -22.5t-27 -21.5t-33 -25t-34.5 -26q14 0 74 1.5t69 1.5q21 23 38 39zM493 666l16 -18q-183 -298 -414 -687l-16 20q373 616 414 685zM104 603l-66 1l1 5q3 1 20 7.5t43.5 17.5t48.5 20h8q0 -33 1 -163t1 -135l62 -24l-3 -4q-15 0 -44.5 1 t-44.5 1q-16 0 -47.5 -1t-46.5 -1l2 4l59 24q6 117 6 247z"/>
<glyph glyph-name="threequarters" horiz-adv-x="611" unicode="¾" d="M454 118l8 165h-2q-46 -64 -107 -164zM508 97l2 -73l49 -24l-1 -2q-16 0 -42 1t-39 1q-14 0 -41.5 -1t-39.5 -1l1 3l56 24l2 72l-128 -3l-9 12q22 37 77 114.5t65 87.5q10 8 48 16v-207l36 -1q9 14 22 25h4q0 -9 -4 -35t-7 -34l-3 -4q-9 13 -15 31zM519 666l16 -18 q-149 -244 -413 -687l-16 20q304 502 413 685zM82 561l-4 -2q-8 9 -25 46q53 49 112 49q35 0 62 -19t27 -56q0 -30 -23 -49t-52 -28l-1 -2q93 -13 93 -80q-1 -46 -40.5 -72t-88.5 -26q-34 0 -61 11t-35 21q16 41 26 54l4 1q4 -8 19 -66q16 -4 30 -4q35 0 59 23t24 57 q0 61 -56 68q-37 -7 -48 -7h-2l-2 3q0 12 18 25q14 0 36 -3q44 17 44 60q0 30 -16.5 48.5t-46.5 18.5q-15 0 -37 -9q-8 -50 -16 -62z"/>
<glyph glyph-name="questiondown" horiz-adv-x="370" unicode="¿" d="M181 -222h-3q-57 0 -101.5 38.5t-44.5 110.5q0 39 17.5 67.5t55.5 63.5q87 83 87 120q0 28 -13 54l3 4q23 -4 50 -37.5t28 -68.5q-25 -45 -85 -105q-68 -67 -68 -119q0 -36 26.5 -68.5t76.5 -32.5q26 0 53 12q9 69 22 99l4 1q25 -30 45 -77q-79 -62 -153 -62zM197 329 l-7 -2q-9 5 -24 22.5t-21 30.5l2 8q5 12 21.5 29t26.5 23l8 2q26 -14 45 -52l-2 -8q-23 -38 -49 -53z"/>
<glyph glyph-name="Agrave" horiz-adv-x="695" unicode="À" d="M378 712l-5 -6l-175 66v9q21 29 47 36zM322 557h-2q-79 -209 -98 -265q13 0 94 -2t104 -2q-17 48 -49.5 136.5t-48.5 132.5zM296 634l66 49l6 -4q0 -2 -0.5 -5.5t-0.5 -5.5q0 -16 13 -55q15 -40 98.5 -258t116.5 -300q24 -21 94 -54l-2 -4q-105 3 -114 3q-3 0 -102 -3 l1 4l41 34q-5 15 -16 45t-32 84t-37 97q-93 -6 -150 -6q-9 0 -31.5 0.5t-36.5 0.5q-54 -137 -79 -216l87 -39l-2 -4q-87 3 -114 3q-2 0 -95 -3l1 4l72 38q72 147 225 541q4 12 1 25z"/>
<glyph glyph-name="Aacute" horiz-adv-x="695" unicode="Á" d="M297 698l-5 5l136 106q25 -4 49 -35v-9zM322 557h-2q-79 -209 -98 -265q13 0 94 -2t104 -2q-17 48 -49.5 136.5t-48.5 132.5zM296 634l66 49l6 -4q0 -2 -0.5 -5.5t-0.5 -5.5q0 -16 13 -55q15 -40 98.5 -258t116.5 -300q24 -21 94 -54l-2 -4q-105 3 -114 3q-3 0 -102 -3 l1 4l41 34q-5 15 -16 45t-32 84t-37 97q-93 -6 -150 -6q-9 0 -31.5 0.5t-36.5 0.5q-54 -137 -79 -216l87 -39l-2 -4q-87 3 -114 3q-2 0 -95 -3l1 4l72 38q72 147 225 541q4 12 1 25z"/>
<glyph glyph-name="Acircumflex" horiz-adv-x="695" unicode="Â" d="M339 812h6q52 -49 119 -108l-6 -6q-39 17 -117 57q-76 -40 -115 -57l-6 6q67 59 119 108zM322 557h-2q-79 -209 -98 -265q13 0 94 -2t104 -2q-17 48 -49.5 136.5t-48.5 132.5zM296 634l66 49l6 -4q0 -2 -0.5 -5.5t-0.5 -5.5q0 -16 13 -55q15 -40 98.5 -258t116.5 -300 q24 -21 94 -54l-2 -4q-105 3 -114 3q-3 0 -102 -3l1 4l41 34q-5 15 -16 45t-32 84t-37 97q-93 -6 -150 -6q-9 0 -31.5 0.5t-36.5 0.5q-54 -137 -79 -216l87 -39l-2 -4q-87 3 -114 3q-2 0 -95 -3l1 4l72 38q72 147 225 541q4 12 1 25z"/>
<glyph glyph-name="Atilde" horiz-adv-x="695" unicode="Ã" d="M461 778l7 -5q-51 -67 -85 -67q-11 0 -49 18q-35 16 -43 16q-28 0 -60 -35l-8 7q53 69 85 69q12 0 46 -16q41 -17 46 -17q29 0 61 30zM322 557h-2q-79 -209 -98 -265q13 0 94 -2t104 -2q-17 48 -49.5 136.5t-48.5 132.5zM296 634l66 49l6 -4q0 -2 -0.5 -5.5t-0.5 -5.5 q0 -16 13 -55q15 -40 98.5 -258t116.5 -300q24 -21 94 -54l-2 -4q-105 3 -114 3q-3 0 -102 -3l1 4l41 34q-5 15 -16 45t-32 84t-37 97q-93 -6 -150 -6q-9 0 -31.5 0.5t-36.5 0.5q-54 -137 -79 -216l87 -39l-2 -4q-87 3 -114 3q-2 0 -95 -3l1 4l72 38q72 147 225 541 q4 12 1 25z"/>
<glyph glyph-name="Adieresis" horiz-adv-x="695" unicode="Ä" d="M426 797l5 2q8 -4 20.5 -18.5t16.5 -26.5l-2 -5q-4 -11 -17 -25t-22 -19l-7 -2q-23 14 -37 44l2 6q15 26 41 44zM256 797l4 2q8 -4 20.5 -18.5t16.5 -26.5l-1 -5q-5 -11 -18 -25t-21 -19l-7 -2q-20 10 -38 44l2 6q20 30 42 44zM322 557h-2q-79 -209 -98 -265q13 0 94 -2 t104 -2q-17 48 -49.5 136.5t-48.5 132.5zM296 634l66 49l6 -4q0 -2 -0.5 -5.5t-0.5 -5.5q0 -16 13 -55q15 -40 98.5 -258t116.5 -300q24 -21 94 -54l-2 -4q-105 3 -114 3q-3 0 -102 -3l1 4l41 34q-5 15 -16 45t-32 84t-37 97q-93 -6 -150 -6q-9 0 -31.5 0.5t-36.5 0.5 q-54 -137 -79 -216l87 -39l-2 -4q-87 3 -114 3q-2 0 -95 -3l1 4l72 38q72 147 225 541q4 12 1 25z"/>
<glyph glyph-name="Aring" horiz-adv-x="695" unicode="Å" d="M336 824q-18 0 -29.5 -12t-11.5 -36q0 -48 42 -48q41 0 41 48t-42 48zM338 848q28 0 49 -19.5t21 -52.5t-21.5 -52t-49.5 -19q-29 0 -50.5 19t-21.5 52t21.5 52.5t51.5 19.5zM322 557h-2q-12 -32 -32 -86.5t-36 -98t-29 -80.5q13 0 93.5 -2t103.5 -2q-17 48 -49.5 136.5 t-48.5 132.5zM297 634l66 49l5 -4v-7q0 -20 13 -59q11 -32 95 -251t119 -307q24 -21 94 -54l-1 -4q-108 3 -115 3q-3 0 -102 -3l1 4l42 34q-5 14 -17 45.5t-32 82.5t-37 98q-90 -6 -150 -6q-9 0 -31.5 0.5t-35.5 0.5q-52 -131 -80 -216l88 -39l-2 -4q-87 3 -114 3 q-2 0 -95 -3v4l73 38q72 147 225 541q4 12 1 25z"/>
<glyph glyph-name="AE" horiz-adv-x="879" unicode="Æ" d="M269 346h191l-5 283h-47q-119 -238 -139 -283zM461 316h-207q-82 -174 -128 -278l89 -37l-3 -4q-84 3 -118 3l-87 -3l2 4l70 36q104 197 298 588l-112 32l1 4q28 0 82 -1.5t81 -1.5h329q42 10 68 12l2 -2q-2 -12 -7 -37t-12 -55.5t-9 -41.5l-5 -4q-16 40 -38 106l-224 -8 l9 -282q169 0 256 9l1 -5q-3 -6 -25 -24t-26 -18t-99.5 4t-106.5 4q4 -133 14 -284l215 -11q54 80 85 119h5q-7 -67 -31 -143q-82 3 -190 3h-119q-22 0 -46 -0.5t-54 -1.5t-48 -1l3 4l89 36q1 3 1 35q0 76 -5 244z"/>
<glyph glyph-name="Ccedilla" horiz-adv-x="658" unicode="Ç" d="M412 -19l-25 -36q63 -30 63 -68q0 -24 -26.5 -46t-73.5 -35l-5 9q61 28 61 60q0 14 -14.5 24.5t-49.5 24.5l51 68q-95 2 -174.5 38.5t-132 115.5t-52.5 187q0 87 35 157t91 111.5t120 63.5t128 22h2q110 0 165 -42q23 14 62 25l4 -2q-1 -22 -16.5 -75.5t-22.5 -67.5 l-5 -3q-7 12 -17.5 49t-11.5 57q-46 30 -139 30q-144 0 -224 -92t-80 -229q0 -61 19.5 -116t57.5 -100t100 -71.5t140 -26.5q44 0 68 8q98 98 117 113l4 -3q-3 -16 -24 -63.5t-28 -55.5q-81 -28 -167 -31z"/>
<glyph glyph-name="Egrave" horiz-adv-x="528" unicode="È" d="M326 705l-4 -6l-176 65v9q21 29 47 37zM34 657l1 5q114 -3 116 -3h262q33 11 66 11l2 -2q-2 -16 -14 -71.5t-14 -63.5l-5 -2q-22 58 -38 106l-213 -8v-271q177 0 250 10l2 -3q-3 -6 -24.5 -26t-25.5 -20q-3 0 -95 4.5t-107 4.5q0 -203 4 -296l219 -11q70 100 86 119h4 q-4 -52 -30 -143q-62 3 -177 3h-153q-27 0 -135 -3l3 4l92 35q6 22 6 308v280z"/>
<glyph glyph-name="Eacute" horiz-adv-x="528" unicode="É" d="M222 699l-5 5l136 106q25 -4 49 -35v-9zM34 657l1 5q114 -3 116 -3h262q33 11 66 11l2 -2q-2 -16 -14 -71.5t-14 -63.5l-5 -2q-22 58 -38 106l-213 -8v-271q177 0 250 10l2 -3q-3 -6 -24.5 -26t-25.5 -20q-3 0 -95 4.5t-107 4.5q0 -203 4 -296l219 -11q70 100 86 119h4 q-4 -52 -30 -143q-62 3 -177 3h-153q-27 0 -135 -3l3 4l92 35q6 22 6 308v280z"/>
<glyph glyph-name="Ecircumflex" horiz-adv-x="528" unicode="Ê" d="M272 813h6q52 -49 119 -108l-6 -6q-39 17 -117 57q-71 -37 -116 -57l-5 6q67 59 119 108zM34 657l1 5q114 -3 116 -3h262q33 11 66 11l2 -2q-2 -16 -14 -71.5t-14 -63.5l-5 -2q-22 58 -38 106l-213 -8v-271q177 0 250 10l2 -3q-3 -6 -24.5 -26t-25.5 -20q-3 0 -95 4.5 t-107 4.5q0 -203 4 -296l219 -11q70 100 86 119h4q-4 -52 -30 -143q-62 3 -177 3h-153q-27 0 -135 -3l3 4l92 35q6 22 6 308v280z"/>
<glyph glyph-name="Edieresis" horiz-adv-x="528" unicode="Ë" d="M355 800l5 2q8 -3 20.5 -18t16.5 -27l-1 -4q-5 -11 -18 -25t-22 -19l-6 -2q-23 13 -38 43l2 6q15 26 41 44zM185 800l4 2q8 -3 20.5 -18t16.5 -27l-1 -4q-4 -11 -17 -25t-22 -19l-7 -2q-19 10 -38 43l3 6q16 29 41 44zM34 657l1 5q114 -3 116 -3h262q33 11 66 11l2 -2 q-2 -16 -14 -71.5t-14 -63.5l-5 -2q-22 58 -38 106l-213 -8v-271q177 0 250 10l2 -3q-3 -6 -24.5 -26t-25.5 -20q-3 0 -95 4.5t-107 4.5q0 -203 4 -296l219 -11q70 100 86 119h4q-4 -52 -30 -143q-62 3 -177 3h-153q-27 0 -135 -3l3 4l92 35q6 22 6 308v280z"/>
<glyph glyph-name="Igrave" horiz-adv-x="313" unicode="Ì" d="M208 703l-4 -7l-175 66v9q21 29 46 37zM37 656l1 4q14 0 38 -1t44 -1.5t38 -0.5t38 0.5t44 1.5t38 1l-2 -5l-79 -36v-277q0 -265 5 -305l90 -36l-1 -4q-90 3 -135 3q-48 0 -132 -3l2 4l84 36q6 24 6 305v278z"/>
<glyph glyph-name="Iacute" horiz-adv-x="313" unicode="Í" d="M108 696l-5 6l136 106q25 -4 49 -35v-9zM37 656l1 4q14 0 38 -1t44 -1.5t38 -0.5t38 0.5t44 1.5t38 1l-2 -5l-79 -36v-277q0 -265 5 -305l90 -36l-1 -4q-90 3 -135 3q-48 0 -132 -3l2 4l84 36q6 24 6 305v278z"/>
<glyph glyph-name="Icircumflex" horiz-adv-x="313" unicode="Î" d="M156 812h6q77 -72 119 -108l-6 -6q-44 19 -116 58q-73 -39 -116 -58l-6 6q42 36 119 108zM37 656l1 4q14 0 38 -1t44 -1.5t38 -0.5t38 0.5t44 1.5t38 1l-2 -5l-79 -36v-277q0 -265 5 -305l90 -36l-1 -4q-90 3 -135 3q-48 0 -132 -3l2 4l84 36q6 24 6 305v278z"/>
<glyph glyph-name="Idieresis" horiz-adv-x="313" unicode="Ï" d="M243 798l5 2q8 -3 20.5 -18t16.5 -27l-1 -4q-5 -11 -18 -25t-22 -19l-7 -2q-22 14 -37 43l2 6q15 26 41 44zM73 798l4 2q8 -3 20.5 -18t16.5 -27l-1 -4q-5 -11 -18 -25t-21 -19l-7 -2q-19 9 -38 43l2 6q18 29 42 44zM37 656l1 4q14 0 38 -1t44 -1.5t38 -0.5t38 0.5 t44 1.5t38 1l-2 -5l-79 -36v-277q0 -265 5 -305l90 -36l-1 -4q-90 3 -135 3q-48 0 -132 -3l2 4l84 36q6 24 6 305v278z"/>
<glyph glyph-name="Eth" horiz-adv-x="723" unicode="Ð" d="M206 362h192l-15 -25h-177q0 -303 5 -319q193 0 283 77q102 88 102 247q0 153 -102 235q-82 68 -269 68h-19v-283zM39 362h86v266l-87 24l4 4q3 0 40.5 3.5t87.5 6t98 2.5q196 0 308.5 -79.5t112.5 -242.5q0 -70 -21 -127t-56.5 -93t-69.5 -58t-73 -37q-89 -34 -260 -34 q-59 0 -176 3l2 4l84 33q6 13 6 300h-96z"/>
<glyph glyph-name="Ntilde" horiz-adv-x="733" unicode="Ñ" d="M495 760l7 -5q-49 -67 -84 -67q-9 0 -50 17q-34 16 -43 16q-27 0 -60 -35l-7 7q53 69 84 69q11 0 47 -15q39 -17 46 -17q28 0 60 30zM248 1l-1 -4q-117 3 -118 3q-3 0 -111 -3l1 4l88 39q13 201 18 523q-34 49 -48 61t-55 30l3 5l128 5q4 -16 33 -52q181 -235 419 -505h3 q0 247 -7 510l-81 39l4 4q11 0 44 -1.5t50 -1.5l114 3l-2 -5l-85 -38q-11 -264 -12 -531q0 -70 -4 -102l-5 -5q-38 27 -109 105.5t-133.5 155.5t-180.5 224q-34 43 -52 65h-2v-116q0 -322 8 -371z"/>
<glyph glyph-name="Ograve" horiz-adv-x="765" unicode="Ò" d="M445 715l-4 -6l-175 65v9q21 29 47 37zM378 657q-118 0 -184 -93t-66 -226q0 -136 74.5 -237t194.5 -101q63 0 110.5 28.5t75 76.5t41 104t13.5 118q0 133 -75.5 231.5t-183.5 98.5zM379 677q62 0 122.5 -20.5t112 -60t84 -105.5t33.5 -149v-8q0 -87 -30 -156.5t-80 -111 t-111 -63.5t-127 -22q-59 0 -118.5 20.5t-112 60t-85.5 107.5t-33 154q0 88 33 158.5t86 111.5t111 62.5t115 21.5z"/>
<glyph glyph-name="Oacute" horiz-adv-x="765" unicode="Ó" d="M322 711l-5 6l136 106q25 -4 49 -35v-9zM378 657q-118 0 -184 -93t-66 -226q0 -136 74.5 -237t194.5 -101q63 0 110.5 28.5t75 76.5t41 104t13.5 118q0 133 -75.5 231.5t-183.5 98.5zM379 677q62 0 122.5 -20.5t112 -60t84 -105.5t33.5 -149v-8q0 -87 -30 -156.5 t-80 -111t-111 -63.5t-127 -22q-59 0 -118.5 20.5t-112 60t-85.5 107.5t-33 154q0 88 33 158.5t86 111.5t111 62.5t115 21.5z"/>
<glyph glyph-name="Ocircumflex" horiz-adv-x="765" unicode="Ô" d="M380 819h6q78 -72 119 -108l-6 -6q-19 8 -116 58q-97 -50 -116 -58l-6 6q41 36 119 108zM378 657q-118 0 -184 -93t-66 -226q0 -136 74.5 -237t194.5 -101q63 0 110.5 28.5t75 76.5t41 104t13.5 118q0 133 -75.5 231.5t-183.5 98.5zM379 677q62 0 122.5 -20.5t112 -60 t84 -105.5t33.5 -149v-8q0 -87 -30 -156.5t-80 -111t-111 -63.5t-127 -22q-59 0 -118.5 20.5t-112 60t-85.5 107.5t-33 154q0 88 33 158.5t86 111.5t111 62.5t115 21.5z"/>
<glyph glyph-name="Otilde" horiz-adv-x="765" unicode="Õ" d="M505 784l6 -5q-49 -67 -84 -67q-11 0 -49 18q-32 16 -43 16q-30 0 -60 -35l-8 7q53 69 85 69q12 0 46 -16q41 -17 46 -17q29 0 61 30zM378 657q-118 0 -184 -93t-66 -226q0 -136 74.5 -237t194.5 -101q63 0 110.5 28.5t75 76.5t41 104t13.5 118q0 133 -75.5 231.5 t-183.5 98.5zM379 677q62 0 122.5 -20.5t112 -60t84 -105.5t33.5 -149v-8q0 -87 -30 -156.5t-80 -111t-111 -63.5t-127 -22q-59 0 -118.5 20.5t-112 60t-85.5 107.5t-33 154q0 88 33 158.5t86 111.5t111 62.5t115 21.5z"/>
<glyph glyph-name="Odieresis" horiz-adv-x="765" unicode="Ö" d="M469 799l5 2q8 -3 20.5 -18t16.5 -27l-1 -4q-5 -11 -18 -25t-22 -19l-6 -2q-23 13 -38 43l2 6q15 26 41 44zM299 799l5 2q7 -3 19.5 -18t16.5 -27l-1 -4q-4 -11 -17 -25t-22 -19l-7 -2q-19 10 -38 43l3 6q16 29 41 44zM378 657q-118 0 -184 -93t-66 -226 q0 -136 74.5 -237t194.5 -101q63 0 110.5 28.5t75 76.5t41 104t13.5 118q0 133 -75.5 231.5t-183.5 98.5zM379 677q62 0 122.5 -20.5t112 -60t84 -105.5t33.5 -149v-8q0 -87 -30 -156.5t-80 -111t-111 -63.5t-127 -22q-59 0 -118.5 20.5t-112 60t-85.5 107.5t-33 154 q0 88 33 158.5t86 111.5t111 62.5t115 21.5z"/>
<glyph glyph-name="multiply" horiz-adv-x="485" unicode="×" d="M416 375l-147 -150l143 -145l-22 -33l-148 150l-149 -150l-21 33l142 145l-146 149l24 32l150 -153l152 154z"/>
<glyph glyph-name="Oslash" horiz-adv-x="765" unicode="Ø" d="M559 560l-337 -474q70 -86 174 -86q63 0 111 28.5t75.5 77t41 104.5t13.5 117q0 140 -76 233h-2zM206 108l337 473q-66 76 -164 76q-117 0 -183.5 -93.5t-66.5 -228.5q0 -137 76 -227h1zM574 622l51 71l17 -19l-46 -65q134 -101 135 -264v-6q0 -90 -30 -161t-80.5 -112.5 t-110 -63t-123.5 -21.5q-113 0 -204 59l-65 -91l-16 22l60 83q-58 44 -93 114t-35 156q0 72 22.5 132t58.5 100t82 68t92 40.5t89 12.5q111 0 196 -55z"/>
<glyph glyph-name="Ugrave" horiz-adv-x="702" unicode="Ù" d="M420 703l-5 -7l-175 66v9q21 29 46 37zM15 656l2 4q14 0 39 -1t45.5 -1.5t38.5 -0.5q24 0 102 3l-2 -4l-57 -36q-2 -129 -2 -412q0 -72 34 -117q52 -70 164 -70q116 0 165 74q33 50 36 143q2 70 2 198q0 32 -0.5 93t-0.5 91l-77 36l3 4q10 0 28.5 -1t33.5 -1.5t28 -0.5 q27 0 114 3l-2 -4l-85 -36q-1 -11 -13 -356q-3 -109 -37 -165q-66 -116 -222 -116q-152 0 -220 105q-31 51 -34 152q0 13 -0.5 40.5t-0.5 42.5q0 41 1 120.5t1 111.5q0 13 -0.5 35t-0.5 30z"/>
<glyph glyph-name="Uacute" horiz-adv-x="702" unicode="Ú" d="M311 696l-6 6l137 106q25 -4 49 -35v-9zM15 656l2 4q14 0 39 -1t45.5 -1.5t38.5 -0.5q24 0 102 3l-2 -4l-57 -36q-2 -129 -2 -412q0 -72 34 -117q52 -70 164 -70q116 0 165 74q33 50 36 143q2 70 2 198q0 32 -0.5 93t-0.5 91l-77 36l3 4q10 0 28.5 -1t33.5 -1.5t28 -0.5 q27 0 114 3l-2 -4l-85 -36q-1 -11 -13 -356q-3 -109 -37 -165q-66 -116 -222 -116q-152 0 -220 105q-31 51 -34 152q0 13 -0.5 40.5t-0.5 42.5q0 41 1 120.5t1 111.5q0 13 -0.5 35t-0.5 30z"/>
<glyph glyph-name="Ucircumflex" horiz-adv-x="702" unicode="Û" d="M369 811h6q52 -49 119 -108l-6 -7q-29 13 -116 58q-85 -44 -117 -58l-5 7q67 59 119 108zM15 656l2 4q14 0 39 -1t45.5 -1.5t38.5 -0.5q24 0 102 3l-2 -4l-57 -36q-2 -129 -2 -412q0 -72 34 -117q52 -70 164 -70q116 0 165 74q33 50 36 143q2 70 2 198q0 32 -0.5 93 t-0.5 91l-77 36l3 4q10 0 28.5 -1t33.5 -1.5t28 -0.5q27 0 114 3l-2 -4l-85 -36q-1 -11 -13 -356q-3 -109 -37 -165q-66 -116 -222 -116q-152 0 -220 105q-31 51 -34 152q0 13 -0.5 40.5t-0.5 42.5q0 41 1 120.5t1 111.5q0 13 -0.5 35t-0.5 30z"/>
<glyph glyph-name="Udieresis" horiz-adv-x="702" unicode="Ü" d="M458 798l5 2q8 -3 20.5 -18t16.5 -27l-1 -4q-5 -11 -18 -25t-22 -19l-7 -2q-22 14 -37 43l2 6q15 26 41 44zM288 798l4 2q7 -3 20 -18t17 -27l-1 -4q-5 -11 -18 -25t-21 -19l-7 -2q-22 11 -38 43l2 6q18 29 42 44zM15 656l2 4q14 0 39 -1t45.5 -1.5t38.5 -0.5q24 0 102 3 l-2 -4l-57 -36q-2 -129 -2 -412q0 -72 34 -117q52 -70 164 -70q116 0 165 74q33 50 36 143q2 70 2 198q0 32 -0.5 93t-0.5 91l-77 36l3 4q10 0 28.5 -1t33.5 -1.5t28 -0.5q27 0 114 3l-2 -4l-85 -36q-1 -11 -13 -356q-3 -109 -37 -165q-66 -116 -222 -116q-152 0 -220 105 q-31 51 -34 152q0 13 -0.5 40.5t-0.5 42.5q0 41 1 120.5t1 111.5q0 13 -0.5 35t-0.5 30z"/>
<glyph glyph-name="Yacute" horiz-adv-x="608" unicode="Ý" d="M273 697l-5 5l136 106q25 -4 49 -35v-8zM1 657l4 3q12 0 34.5 -1t41 -1.5t34.5 -0.5q15 0 37.5 1t30.5 1l-1 -3l-15 -27q8 -17 29 -54t62.5 -110.5t76.5 -136.5h2q113 209 156 296l-23 32l4 3q6 0 22.5 -1t25.5 -1q21 0 54 1.5t40 1.5l-1 -4l-66 -31q-16 -8 -26 -25 q-108 -171 -167 -285q-7 -11 -7 -28q0 -229 4 -250l107 -36v-4q-102 3 -151 3q-48 0 -150 -3l3 4l99 35q8 88 8 236q0 16 -9 32q-78 144 -181 317z"/>
<glyph glyph-name="Thorn" horiz-adv-x="534" unicode="Þ" d="M36 1l76 33q4 17 4 310v282l-73 30l2 4q4 0 46.5 -1.5t63.5 -1.5q17 0 36.5 0.5t43.5 1.5t38 1l-3 -4l-72 -31v-103q33 2 71 4h10q109 0 168 -46t59 -130q0 -46 -16 -81.5t-38.5 -55t-51 -32t-49.5 -16.5t-38 -4q-41 0 -56 11l-3 7h8q81 0 117 47t36 115 q0 79 -43.5 122.5t-127.5 43.5q-28 0 -46 -5v-144q0 -111 1.5 -187t2.5 -106l2 -30l85 -34l-3 -4q-15 0 -40.5 1t-46.5 1.5t-39 0.5q-21 0 -64 -1.5t-62 -1.5z"/>
<glyph glyph-name="germandbls" horiz-adv-x="520" unicode="ß" d="M34 432h53q2 150 75 222q62 62 145 62q69 0 110.5 -36.5t41.5 -96.5q0 -23 -3 -31q-112 -85 -112 -165q0 -17 9.5 -31t41.5 -42q51 -44 74 -82t23 -81q0 -76 -56.5 -120t-130.5 -44q-39 0 -71 12q0 30 22 86l4 4q4 -6 36 -84q4 -1 18 -1q35 0 72.5 31t37.5 85 q0 30 -15.5 55t-49.5 58q-38 39 -64 62q-18 15 -18 33q0 63 114 191q6 18 6 39q0 66 -28.5 103t-73.5 37q-59 0 -91 -55t-37 -159q-3 -76 -3 -227q0 -192 6 -222l15 -33l-1 -4q-8 0 -27 1t-29 1q-20 0 -59 -1.5t-48 -1.5l3 4l57 33q6 36 6 215v152l-66 12z"/>
<glyph glyph-name="agrave" horiz-adv-x="425" unicode="à" d="M227 500l-6 -8l-115 138v8q27 9 45 9q9 0 14 -1zM113 117q0 -44 24.5 -65t51.5 -21q40 0 70 30q8 9 8 23l2 140q-94 -26 -127 -49q-29 -17 -29 -58zM269 242v27q-3 80 -28 109.5t-71 29.5q-32 0 -65 -19q-3 -84 -6 -106l-3 -2q-9 2 -33 29.5t-31 50.5q16 15 53.5 36 t61.5 30q42 18 67 18q68 0 99.5 -47t31.5 -108q0 -30 -1 -109.5t-1 -117.5q29 -37 80 -56l-3 -5q-15 -11 -46 -11q-81 0 -103 56h-2q-73 -60 -120 -60q-57 0 -87 35t-30 73q0 57 36 75q15 12 78 34.5t123 37.5z"/>
<glyph glyph-name="aacute" horiz-adv-x="425" unicode="á" d="M181 492l-6 7l65 148q2 0 5 0.5t4 0.5q27 0 47 -11v-7zM113 117q0 -44 24.5 -65t51.5 -21q40 0 70 30q8 9 8 23l2 140q-90 -25 -127 -49q-29 -17 -29 -58zM269 242v27q-3 80 -28 109.5t-71 29.5q-32 0 -65 -19q-3 -84 -6 -106l-3 -2q-9 2 -33 29.5t-31 50.5 q16 15 53.5 36t61.5 30q42 18 67 18q68 0 99.5 -47t31.5 -108q0 -30 -1 -109.5t-1 -117.5q29 -37 80 -56l-3 -5q-15 -11 -46 -11q-82 0 -103 57h-2q-73 -61 -120 -61q-57 0 -87 35.5t-30 73.5q0 56 36 74q15 12 78 34.5t123 37.5z"/>
<glyph glyph-name="acircumflex" horiz-adv-x="425" unicode="â" d="M192 646l7 4l79 -153l-7 -5l-76 83l-74 -83l-8 5zM113 117q0 -44 24.5 -65t51.5 -21q40 0 70 30q8 9 8 23l2 140q-90 -25 -127 -49q-29 -17 -29 -58zM269 242v27q-3 80 -28 109.5t-71 29.5q-32 0 -65 -19q-3 -84 -6 -106l-3 -2q-9 2 -33 29.5t-31 50.5q16 15 53.5 36 t61.5 30q42 18 67 18q68 0 99.5 -47t31.5 -108q0 -30 -1 -109.5t-1 -117.5q29 -37 80 -56l-3 -5q-15 -11 -46 -11q-82 0 -103 57h-2q-73 -61 -120 -61q-57 0 -87 35.5t-30 73.5q0 56 36 74q15 12 78 34.5t123 37.5z"/>
<glyph glyph-name="atilde" horiz-adv-x="425" unicode="ã" d="M310 601l6 -4q-48 -67 -83 -67q-10 0 -49 17q-33 15 -43 15q-28 0 -59 -34l-8 7q53 68 84 68q8 0 46 -14q36 -17 46 -17q28 0 60 29zM113 117q0 -44 24.5 -65t51.5 -21q40 0 70 30q8 9 8 23l2 140q-90 -25 -127 -49q-29 -17 -29 -58zM269 242v27q-3 80 -28 109.5 t-71 29.5q-32 0 -65 -19q-3 -84 -6 -106l-3 -2q-9 2 -33 29.5t-31 50.5q16 15 53.5 36t61.5 30q42 18 67 18q68 0 99.5 -47t31.5 -108q0 -30 -1 -109.5t-1 -117.5q29 -37 80 -56l-3 -5q-15 -11 -46 -11q-82 0 -103 57h-2q-73 -61 -120 -61q-57 0 -87 35.5t-30 73.5 q0 56 36 74q15 12 78 34.5t123 37.5z"/>
<glyph glyph-name="adieresis" horiz-adv-x="425" unicode="ä" d="M272 628l5 2q7 -4 18.5 -18t17.5 -25l-1 -5q-16 -27 -39 -43l-7 -2q-25 19 -36 42l3 7q17 30 39 42zM120 628l6 2q7 -4 19 -18.5t15 -24.5l-1 -5q-9 -23 -38 -43l-6 -2q-24 15 -36 42l2 7q18 32 39 42zM113 117q0 -44 24.5 -65t51.5 -21q40 0 70 30q8 9 8 23l2 140 q-90 -25 -127 -49q-29 -17 -29 -58zM269 242v27q-3 80 -28 109.5t-71 29.5q-32 0 -65 -19q-3 -84 -6 -106l-3 -2q-9 2 -33 29.5t-31 50.5q16 15 53.5 36t61.5 30q42 18 67 18q68 0 99.5 -47t31.5 -108q0 -30 -1 -109.5t-1 -117.5q29 -37 80 -56l-3 -5q-15 -11 -46 -11 q-82 0 -103 57h-2q-73 -61 -120 -61q-57 0 -87 35.5t-30 73.5q0 56 36 74q15 12 78 34.5t123 37.5z"/>
<glyph glyph-name="aring" horiz-adv-x="425" unicode="å" d="M198 645q30 0 50 -20t20 -51t-21.5 -50.5t-49.5 -19.5q-31 0 -51 19t-20 50q0 32 22 52t50 20zM196 622q-19 0 -29.5 -13.5t-10.5 -34.5t12 -34t29 -13q18 0 30 13t12 34q0 23 -12 35.5t-31 12.5zM113 117q0 -44 24.5 -65t51.5 -21q40 0 70 30q8 9 8 23l2 140 q-90 -25 -127 -49q-29 -17 -29 -58zM269 242v27q-3 80 -28 109.5t-71 29.5q-31 0 -66 -19q0 -62 -6 -106l-2 -2q-8 2 -32.5 29.5t-32.5 50.5q17 15 54.5 36t60.5 30q42 18 68 18q68 0 99.5 -47t31.5 -108q0 -30 -1 -109.5t-1 -117.5q29 -37 80 -56l-3 -5q-15 -11 -46 -11 q-82 0 -103 57h-2q-73 -61 -120 -61q-57 0 -87 35t-30 73q0 57 36 75q15 12 78 34.5t123 37.5z"/>
<glyph glyph-name="ae" horiz-adv-x="675" unicode="æ" d="M190 32q27 0 57.5 15.5t53.5 48.5q-21 46 -21 129q-85 -16 -133 -43q-21 -12 -28 -26.5t-7 -39.5q0 -44 25.5 -64t52.5 -20zM362 250h198q8 20 8 51q0 52 -22 87.5t-67 35.5q-40 0 -68 -32t-38.5 -69.5t-10.5 -72.5zM104 282l-2 -1q-8 2 -33 30t-32 51q50 38 112 64 q40 16 69 16q81 0 116 -83q62 83 156 83q65 0 112 -42.5t47 -119.5q0 -28 -10 -34q-32 -18 -92 -18h-186v-14q0 -88 44.5 -139.5t122.5 -51.5q12 0 29 6q43 41 76 56q2 1 3.5 0t1.5 -5q-6 -18 -23.5 -43.5t-30.5 -30.5q-57 -19 -98 -19q-58 0 -105.5 25t-68.5 67 q-41 -42 -84 -67t-74 -25q-59 0 -91 34.5t-32 76.5q0 51 36 71q16 13 85 37.5t128 35.5v27q0 81 -27 110t-75 29q-31 0 -68 -19q0 -61 -6 -107z"/>
<glyph glyph-name="ccedilla" horiz-adv-x="430" unicode="ç" d="M191 -85l54 71l-1 2q-98 4 -156.5 65.5t-58.5 158.5q0 75 37.5 129.5t92 79t117.5 24.5q39 0 76 -12t51 -24q-16 -66 -36 -101l-4 -2q-11 24 -32 111q-10 6 -41 6q-85 0 -130.5 -59.5t-45.5 -142.5q0 -86 50.5 -143t130.5 -58q11 0 29 6q51 47 81 59l1 -2q-5 -19 -26 -47 t-33 -34q-48 -13 -80 -14l-31 -43q64 -29 64 -68q0 -24 -27 -46t-74 -35l-5 10q62 27 62 60q0 23 -65 49z"/>
<glyph glyph-name="egrave" horiz-adv-x="434" unicode="è" d="M264 500l-6 -8l-115 138v8q27 9 45 9q9 0 14 -1zM115 268h206q6 10 6 36q0 46 -22.5 84.5t-65.5 38.5q-41 0 -70.5 -31.5t-41 -65.5t-12.5 -62zM306 245h-190q-2 -9 -2 -24q0 -91 48.5 -144t121.5 -53q13 0 28 3q55 45 80 59l2 -4q-4 -16 -21 -39t-28 -30 q-17 -9 -50.5 -17.5t-56.5 -8.5q-92 0 -150.5 60.5t-58.5 157.5q0 104 65 172t151 68q69 0 116 -44.5t47 -116.5q0 -19 -10 -26q-29 -13 -92 -13z"/>
<glyph glyph-name="eacute" horiz-adv-x="434" unicode="é" d="M212 492l-6 7l66 148q2 0 5 0.5t4 0.5q25 0 47 -11v-7zM115 268h206q6 10 6 36q0 46 -22.5 84.5t-65.5 38.5q-41 0 -70.5 -31.5t-41 -65.5t-12.5 -62zM306 245h-190q-2 -9 -2 -24q0 -91 48.5 -144t121.5 -53q13 0 28 3q55 45 80 59l2 -4q-4 -16 -21 -39t-28 -30 q-17 -9 -50.5 -17.5t-56.5 -8.5q-92 0 -150.5 60.5t-58.5 157.5q0 104 65 172t151 68q69 0 116 -44.5t47 -116.5q0 -19 -10 -26q-29 -13 -92 -13z"/>
<glyph glyph-name="ecircumflex" horiz-adv-x="434" unicode="ê" d="M231 646l8 4l78 -153l-7 -5l-75 83l-75 -83l-8 5zM115 268h206q6 10 6 36q0 46 -22.5 84.5t-65.5 38.5q-41 0 -70.5 -31.5t-41 -65.5t-12.5 -62zM306 245h-190q-2 -9 -2 -24q0 -91 48.5 -144t121.5 -53q13 0 28 3q55 45 80 59l2 -4q-4 -16 -21 -39t-28 -30 q-17 -9 -50.5 -17.5t-56.5 -8.5q-92 0 -150.5 60.5t-58.5 157.5q0 104 65 172t151 68q69 0 116 -44.5t47 -116.5q0 -19 -10 -26q-29 -13 -92 -13z"/>
<glyph glyph-name="edieresis" horiz-adv-x="434" unicode="ë" d="M310 628l4 2q7 -4 19 -18t17 -25l-1 -5q-14 -26 -38 -43l-7 -2q-25 19 -36 42l2 7q17 29 40 42zM158 628l5 2q7 -4 19 -18.5t16 -24.5l-1 -5q-11 -24 -38 -43l-7 -2q-24 15 -36 42l2 7q18 32 40 42zM115 268h206q6 10 6 36q0 46 -22.5 84.5t-65.5 38.5q-41 0 -70.5 -31.5 t-41 -65.5t-12.5 -62zM306 245h-190q-2 -9 -2 -24q0 -91 48.5 -144t121.5 -53q13 0 28 3q55 45 80 59l2 -4q-4 -16 -21 -39t-28 -30q-17 -9 -50.5 -17.5t-56.5 -8.5q-92 0 -150.5 60.5t-58.5 157.5q0 104 65 172t151 68q69 0 116 -44.5t47 -116.5q0 -19 -10 -26 q-29 -13 -92 -13z"/>
<glyph glyph-name="igrave" horiz-adv-x="242" unicode="ì" d="M134 500l-6 -8l-114 138v8q27 9 45 9q9 0 14 -1zM35 413l3 4q70 22 125 28v-200q0 -135 4 -209l66 -35l-3 -4q-102 3 -107 3q-19 0 -55.5 -1.5t-44.5 -1.5l2 4l57 35q4 102 4 211v141z"/>
<glyph glyph-name="iacute" horiz-adv-x="242" unicode="í" d="M97 492l-5 7l64 148q2 0 5 0.5t4 0.5q27 0 47 -11v-7zM35 413l3 4q70 22 125 28v-200q0 -135 4 -209l66 -35l-3 -4q-102 3 -107 3q-19 0 -55.5 -1.5t-44.5 -1.5l2 4l57 35q4 102 4 211v141z"/>
<glyph glyph-name="icircumflex" horiz-adv-x="242" unicode="î" d="M104 646l8 4l78 -153l-7 -5l-75 83l-74 -83l-8 5zM35 413l3 4q70 22 125 28v-200q0 -135 4 -209l66 -35l-3 -4q-102 3 -107 3q-19 0 -55.5 -1.5t-44.5 -1.5l2 4l57 35q4 102 4 211v141z"/>
<glyph glyph-name="idieresis" horiz-adv-x="242" unicode="ï" d="M187 628l5 2q7 -4 19 -18t17 -25l-1 -5q-13 -25 -39 -43l-6 -2q-24 17 -36 42l2 7q16 29 39 42zM36 628l6 2q7 -4 19 -18.5t15 -24.5l-1 -5q-4 -10 -16.5 -23.5t-21.5 -19.5l-6 -2q-24 15 -36 42l2 7q18 31 39 42zM35 413l3 4q70 22 125 28v-200q0 -135 4 -209l66 -35 l-3 -4q-102 3 -107 3q-19 0 -55.5 -1.5t-44.5 -1.5l2 4l57 35q4 102 4 211v141z"/>
<glyph glyph-name="eth" horiz-adv-x="480" unicode="ð" d="M245 428q-40 0 -70 -35t-43 -81t-13 -92q0 -47 12 -94.5t42 -84.5t72 -37q35 0 60.5 23t38 61t17.5 75.5t5 78.5q0 99 -27 138q-32 48 -94 48zM88 705l11 11q110 -29 185 -91l110 64l20 -13l-112 -65q63 -57 106 -150.5t43 -192.5q0 -138 -58 -209.5t-154 -71.5 q-85 0 -146.5 59.5t-61.5 164.5q0 107 66.5 170.5t148.5 63.5q66 0 107 -37l2 1q-34 117 -94 178l-147 -85l-21 12l154 90q-58 61 -159 101z"/>
<glyph glyph-name="ntilde" horiz-adv-x="526" unicode="ñ" d="M379 601l7 -4q-49 -67 -83 -67q-10 0 -49 17q-33 15 -43 15q-27 0 -59 -34l-7 7q52 68 83 68q8 0 46 -14q34 -17 46 -17q28 0 59 29zM87 281v99l-50 25l2 5q18 8 61.5 21t63.5 14l-4 -83h2q55 46 89.5 64.5t66.5 18.5q66 0 97.5 -43.5t31.5 -103.5v-246q0 -17 12 -22 l58 -29l-3 -4q-57 3 -109 3q-11 0 -77 -3l2 4l32 34q7 70 7 251q0 56 -27.5 83.5t-68.5 27.5q-52 0 -109 -57q0 -289 5 -305l51 -34l-1 -4q-35 3 -95 3q-22 0 -100 -3l2 4l56 34q5 16 5 246z"/>
<glyph glyph-name="ograve" horiz-adv-x="500" unicode="ò" d="M286 500l-6 -8l-114 138v8q25 9 45 9q9 0 14 -1zM250 428q-45 0 -76 -34.5t-43.5 -79.5t-12.5 -93q0 -82 39 -149.5t102 -67.5q62 0 92 63t30 144q0 80 -35 148.5t-96 68.5zM251 445q92 0 155.5 -63.5t63.5 -161.5q0 -104 -63.5 -168.5t-159.5 -64.5q-86 0 -152 61 t-66 162q0 104 69 169.5t153 65.5z"/>
<glyph glyph-name="oacute" horiz-adv-x="500" unicode="ó" d="M225 492l-6 7l65 148q2 0 5 0.5t4 0.5q26 0 48 -11v-7zM250 428q-45 0 -76 -34.5t-43.5 -79.5t-12.5 -93q0 -82 39 -149.5t102 -67.5q62 0 92 63t30 144q0 80 -35 148.5t-96 68.5zM251 445q92 0 155.5 -63.5t63.5 -161.5q0 -104 -63.5 -168.5t-159.5 -64.5q-86 0 -152 61 t-66 162q0 104 69 169.5t153 65.5z"/>
<glyph glyph-name="ocircumflex" horiz-adv-x="500" unicode="ô" d="M245 646l8 4l78 -153l-7 -5l-75 83l-75 -83l-7 5zM250 428q-45 0 -76 -34.5t-43.5 -79.5t-12.5 -93q0 -82 39 -149.5t102 -67.5q62 0 92 63t30 144q0 80 -35 148.5t-96 68.5zM251 445q92 0 155.5 -63.5t63.5 -161.5q0 -104 -63.5 -168.5t-159.5 -64.5q-86 0 -152 61 t-66 162q0 104 69 169.5t153 65.5z"/>
<glyph glyph-name="otilde" horiz-adv-x="500" unicode="õ" d="M361 601l6 -4q-49 -67 -83 -67q-10 0 -49 17q-33 15 -43 15q-28 0 -59 -34l-8 7q53 68 84 68q8 0 46 -14q34 -17 46 -17q28 0 60 29zM250 428q-45 0 -76 -34.5t-43.5 -79.5t-12.5 -93q0 -82 39 -149.5t102 -67.5q62 0 92 63t30 144q0 80 -35 148.5t-96 68.5zM251 445 q92 0 155.5 -63.5t63.5 -161.5q0 -104 -63.5 -168.5t-159.5 -64.5q-86 0 -152 61t-66 162q0 104 69 169.5t153 65.5z"/>
<glyph glyph-name="odieresis" horiz-adv-x="500" unicode="ö" d="M326 628l5 2q7 -4 19 -18t17 -25l-1 -5q-13 -25 -39 -43l-6 -2q-24 17 -36 42l2 7q16 29 39 42zM175 628l5 2q7 -4 19 -18.5t16 -24.5l-1 -5q-11 -24 -38 -43l-7 -2q-24 15 -36 42l2 7q18 32 40 42zM250 428q-45 0 -76 -34.5t-43.5 -79.5t-12.5 -93q0 -82 39 -149.5 t102 -67.5q62 0 92 63t30 144q0 80 -35 148.5t-96 68.5zM251 445q92 0 155.5 -63.5t63.5 -161.5q0 -104 -63.5 -168.5t-159.5 -64.5q-86 0 -152 61t-66 162q0 104 69 169.5t153 65.5z"/>
<glyph glyph-name="divide" horiz-adv-x="485" unicode="÷" d="M244 398l4 1q6 -3 16.5 -15t14.5 -21l-1 -6q-4 -8 -15.5 -19.5t-17.5 -15.5l-6 -2q-21 12 -31 36l1 6q16 22 35 36zM243 146h6q6 -2 16 -14.5t14 -21.5l-1 -5q-10 -20 -33 -37l-6 -1q-22 13 -30 36l1 6q18 25 33 37zM63 247h372l-14 -33h-372z"/>
<glyph glyph-name="oslash" horiz-adv-x="502" unicode="ø" d="M360 338l-196 -277q35 -57 96 -57q43 0 72 34t40.5 80t11.5 99q0 73 -22 120zM151 84l196 280q-38 64 -96 64q-65 0 -99.5 -65t-34.5 -143q0 -84 32 -136h2zM379 405l45 62l18 -17l-44 -60q74 -66 74 -170t-64 -168.5t-160 -64.5q-65 0 -118 33l-50 -69l-16 19l46 64 q-81 62 -81 176q0 104 69.5 169.5t152.5 65.5q74 0 128 -40z"/>
<glyph glyph-name="ugrave" horiz-adv-x="513" unicode="ù" d="M267 500l-6 -8l-115 138v8q27 9 45 9q9 0 14 -1zM76 391l-56 29l4 4q51 14 130 14h6q-8 -90 -8 -296q0 -53 18 -76q28 -30 72 -30q29 0 62 18.5t49 44.5v289q-13 7 -68 34l4 4q76 12 137 12h8q-3 -45 -3 -376q21 -34 76 -55l-1 -4q-18 -12 -52 -12q-88 0 -100 78h-2 q-72 -82 -144 -82q-61 0 -96 34q-38 37 -38 111q0 36 1 127.5t1 131.5z"/>
<glyph glyph-name="uacute" horiz-adv-x="513" unicode="ú" d="M225 492l-6 7l65 148q2 0 5 0.5t4 0.5q25 0 47 -11v-7zM76 391l-56 29l4 4q51 14 130 14h6q-8 -90 -8 -296q0 -53 18 -76q28 -30 72 -30q29 0 62 18.5t49 43.5v290q-13 7 -68 34l4 4q76 12 137 12h8q-3 -45 -3 -376q21 -34 76 -55l-1 -4q-18 -12 -52 -12q-88 0 -100 78 l-2 1q-71 -83 -144 -83q-61 0 -96 34q-38 38 -38 111q0 36 1 127.5t1 131.5z"/>
<glyph glyph-name="ucircumflex" horiz-adv-x="513" unicode="û" d="M243 646l8 4l78 -153l-7 -5l-75 83l-75 -83l-7 5zM76 391l-56 29l4 4q51 14 130 14h6q-8 -90 -8 -296q0 -53 18 -76q28 -30 72 -30q29 0 62 18.5t49 43.5v290q-13 7 -68 34l4 4q76 12 137 12h8q-3 -45 -3 -376q21 -34 76 -55l-1 -4q-18 -12 -52 -12q-88 0 -100 78l-2 1 q-71 -83 -144 -83q-61 0 -96 34q-38 38 -38 111q0 36 1 127.5t1 131.5z"/>
<glyph glyph-name="udieresis" horiz-adv-x="513" unicode="ü" d="M318 628l5 2q7 -4 19 -18t17 -25l-1 -5q-13 -25 -39 -43l-7 -2q-24 18 -35 42l2 7q16 29 39 42zM167 628l5 2q7 -4 19 -18.5t16 -24.5l-1 -5q-11 -24 -38 -43l-7 -2q-20 13 -36 42l3 7q18 32 39 42zM76 391l-56 29l4 4q51 14 130 14h6q-8 -90 -8 -296q0 -53 18 -76 q28 -30 72 -30q29 0 62 18.5t49 43.5v290q-13 7 -68 34l4 4q76 12 137 12h8q-3 -45 -3 -376q21 -34 76 -55l-1 -4q-18 -12 -52 -12q-88 0 -100 78l-2 1q-71 -83 -144 -83q-61 0 -96 34q-38 38 -38 111q0 36 1 127.5t1 131.5z"/>
<glyph glyph-name="yacute" horiz-adv-x="433" unicode="ý" d="M216 492l-5 7l65 148q2 0 5 0.5t4 0.5q25 0 47 -11v-7zM305 430l4 5q7 0 30 -1.5t34 -1.5q15 0 40.5 1.5t32.5 1.5l-3 -6q-9 -6 -27 -17t-27 -17q-30 -67 -104 -249.5t-123 -298.5q-18 -79 -24 -97q-4 -3 -19 -3t-32.5 7t-22.5 14q13 24 75 97q33 59 67 141 q-2 4 -28.5 72.5t-63 160.5t-63.5 152q-16 13 -57 39l3 5q87 -3 93 -3q1 0 76 3l-1 -4l-28 -33q13 -46 108 -291h2q59 146 105 289z"/>
<glyph glyph-name="thorn" horiz-adv-x="502" unicode="þ" d="M144 363v-323q32 -19 76 -19q66 0 116.5 54t50.5 147q0 69 -40 122t-104 53q-53 0 -99 -34zM67 103v288q0 218 -3 266l-55 29l2 3q88 20 136 27q-3 -163 -3 -331l2 -1q99 61 140 61q67 0 127 -57t60 -155q0 -61 -24.5 -110t-62.5 -77.5t-79 -43.5t-79 -15q-25 0 -82 32 l-2 -1q0 -50 4 -216l82 -37l-4 -3q-120 3 -122 3q-1 0 -103 -3l1 4l61 33q4 188 4 304z"/>
<glyph glyph-name="ydieresis" horiz-adv-x="433" unicode="ÿ" d="M308 628l5 2q7 -4 19 -18t17 -25l-1 -5q-13 -25 -39 -43l-6 -2q-24 17 -36 42l2 7q16 29 39 42zM157 628l5 2q7 -4 19 -18.5t16 -24.5l-1 -5q-11 -24 -38 -43l-7 -2q-20 13 -36 42l3 7q18 32 39 42zM305 430l4 5q7 0 30 -1.5t34 -1.5q15 0 40.5 1.5t32.5 1.5l-3 -6 q-9 -6 -27 -17t-27 -17q-30 -67 -104 -249.5t-123 -298.5q-18 -79 -24 -97q-4 -3 -19 -3t-32.5 7t-22.5 14q13 24 75 97q33 59 67 141q-2 4 -28.5 72.5t-63 160.5t-63.5 152q-16 13 -57 39l3 5q87 -3 93 -3q1 0 76 3l-1 -4l-28 -33q13 -46 108 -291h2q59 146 105 289z"/>
<glyph glyph-name="Amacron" horiz-adv-x="695" unicode="Ā" d="M431 719h-185l12 40h185zM322 557h-2q-79 -209 -98 -265q13 0 94 -2t104 -2q-17 48 -49.5 136.5t-48.5 132.5zM296 634l66 49l6 -4q0 -2 -0.5 -5.5t-0.5 -5.5q0 -16 13 -55q15 -40 98.5 -258t116.5 -300q24 -21 94 -54l-2 -4q-105 3 -114 3q-3 0 -102 -3l1 4l41 34 q-5 15 -16 45t-32 84t-37 97q-93 -6 -150 -6q-9 0 -31.5 0.5t-36.5 0.5q-54 -137 -79 -216l87 -39l-2 -4q-87 3 -114 3q-2 0 -95 -3l1 4l72 38q72 147 225 541q4 12 1 25z"/>
<glyph glyph-name="amacron" horiz-adv-x="425" unicode="ā" d="M279 548h-177l15 41h177zM113 117q0 -44 24.5 -65t51.5 -21q40 0 70 30q8 9 8 23l2 140q-90 -25 -127 -49q-29 -17 -29 -58zM269 242v27q-3 80 -28 109.5t-71 29.5q-32 0 -65 -19q-3 -84 -6 -106l-3 -2q-9 2 -33 29.5t-31 50.5q16 15 53.5 36t61.5 30q42 18 67 18 q68 0 99.5 -47t31.5 -108q0 -30 -1 -109.5t-1 -117.5q29 -37 80 -56l-3 -5q-15 -11 -46 -11q-82 0 -103 57h-2q-73 -61 -120 -61q-57 0 -87 35.5t-30 73.5q0 56 36 74q15 12 78 34.5t123 37.5z"/>
<glyph glyph-name="Abreve" horiz-adv-x="695" unicode="Ă" d="M339 713q-51 0 -75 28t-24 74l12 4q15 -58 88 -58q70 0 91 55l11 3q-2 -48 -27 -77t-76 -29zM322 557h-2q-79 -209 -98 -265q13 0 94 -2t104 -2q-17 48 -49.5 136.5t-48.5 132.5zM296 634l66 49l6 -4q0 -2 -0.5 -5.5t-0.5 -5.5q0 -16 13 -55q15 -40 98.5 -258t116.5 -300 q24 -21 94 -54l-2 -4q-105 3 -114 3q-3 0 -102 -3l1 4l41 34q-5 15 -16 45t-32 84t-37 97q-93 -6 -150 -6q-9 0 -31.5 0.5t-36.5 0.5q-54 -137 -79 -216l87 -39l-2 -4q-87 3 -114 3q-2 0 -95 -3l1 4l72 38q72 147 225 541q4 12 1 25z"/>
<glyph glyph-name="abreve" horiz-adv-x="425" unicode="ă" d="M109 631l12 5q20 -75 76 -75q58 0 81 70l12 5q-2 -52 -25.5 -85.5t-69.5 -33.5t-66.5 32.5t-19.5 81.5zM113 117q0 -44 24.5 -65t51.5 -21q40 0 70 30q8 9 8 23l2 140q-90 -25 -127 -49q-29 -17 -29 -58zM269 242v27q-3 80 -28 109.5t-71 29.5q-32 0 -65 -19 q-3 -84 -6 -106l-3 -2q-9 2 -33 29.5t-31 50.5q16 15 53.5 36t61.5 30q42 18 67 18q68 0 99.5 -47t31.5 -108q0 -30 -1 -109.5t-1 -117.5q29 -37 80 -56l-3 -5q-15 -11 -46 -11q-82 0 -103 57h-2q-73 -61 -120 -61q-57 0 -87 35.5t-30 73.5q0 56 36 74q15 12 78 34.5 t123 37.5z"/>
<glyph glyph-name="Aogonek" horiz-adv-x="695" unicode="Ą" d="M538 -124l4 -10q-37 -43 -87 -43q-22 0 -44.5 16t-22.5 45q0 13 4 25t13.5 24t16.5 20.5t23 21t22.5 17t25.5 17t22 14.5q-20 63 -86 238q-93 -6 -151 -6q-9 0 -31.5 0.5t-36.5 0.5q-47 -118 -79 -217l88 -39l-2 -4q-87 3 -114 3q-3 0 -96 -3l1 4l72 39q69 137 225 541 q5 11 2 25l-10 29l66 49l5 -4v-7q0 -20 13 -59q11 -31 95 -249.5t120 -308.5q25 -22 94 -55l-2 -4q-105 3 -114 3q-13 0 -57 -1q-79 -49 -79 -99q0 -35 45 -35q31 0 55 12zM322 557h-2q-12 -32 -32.5 -86.5t-36.5 -98t-28 -80.5q13 0 93.5 -2t103.5 -2q-51 141 -98 269z"/>
<glyph glyph-name="aogonek" horiz-adv-x="425" unicode="ą" d="M337 -116l3 -10q-37 -43 -87 -43q-23 0 -45 14.5t-22 44.5q0 56 105 127q-13 10 -21 31h-2q-73 -61 -119 -61q-57 0 -87 35.5t-30 73.5q0 56 36 74q15 12 78 34.5t123 37.5v27q-3 80 -28 109.5t-71 29.5q-32 0 -65 -19q-3 -84 -6 -106l-3 -2q-9 2 -33 29.5t-31 50.5 q16 15 53.5 36t61.5 30q42 18 67 18q68 0 99.5 -47t31.5 -108q0 -30 -1 -109.5t-1 -117.5q29 -37 80 -56l-3 -5q-15 -11 -46 -11q-37 0 -69 15q-69 -64 -69 -101q0 -33 45 -33q32 0 56 12zM113 117q0 -44 24.5 -65t51.5 -21q40 0 70 30q8 9 8 23l2 140q-90 -25 -127 -49 q-29 -17 -29 -58z"/>
<glyph glyph-name="Cacute" horiz-adv-x="658" unicode="Ć" d="M330 713l-5 5l136 106q25 -4 49 -35v-9zM404 677h3q109 0 168 -42q32 24 62 31l4 -2q-2 -25 -17 -81t-22 -71l-5 -3q-7 15 -17.5 52.5t-11.5 56.5q-44 31 -139 31q-144 0 -224 -92t-80 -229q0 -129 82.5 -222t234.5 -93q46 0 68 8q96 97 116 113l5 -3q-4 -17 -24.5 -64.5 t-27.5 -54.5q-87 -31 -178 -31q-71 0 -135.5 21t-117 62t-83.5 108t-31 151q0 87 35 157t90.5 111.5t119 63.5t125.5 22z"/>
<glyph glyph-name="cacute" horiz-adv-x="430" unicode="ć" d="M213 492l-6 7l65 148q2 0 5 0.5t4 0.5q27 0 47 -11v-7zM29 212q0 111 74.5 172t174.5 61q38 0 74 -12t50 -24q-16 -65 -35 -101l-4 -2q-15 31 -32 111q-12 6 -42 6q-85 0 -130 -59.5t-45 -142.5q0 -86 49.5 -143t128.5 -57q19 0 28 4q54 47 84 62l1 -3q-5 -17 -26 -45.5 t-33 -35.5q-43 -16 -91 -16q-37 0 -74.5 12t-72.5 37t-57 70.5t-22 105.5z"/>
<glyph glyph-name="Ccircumflex" horiz-adv-x="658" unicode="Ĉ" d="M391 822h6q52 -49 119 -108l-6 -6q-32 14 -116 57q-84 -43 -116 -57l-6 6q67 59 119 108zM404 677h3q109 0 168 -42q32 24 62 31l4 -2q-2 -25 -17 -81t-22 -71l-5 -3q-7 15 -17.5 52.5t-11.5 56.5q-44 31 -139 31q-144 0 -224 -92t-80 -229q0 -129 82.5 -222t234.5 -93 q46 0 68 8q96 97 116 113l5 -3q-4 -17 -24.5 -64.5t-27.5 -54.5q-87 -31 -178 -31q-71 0 -135.5 21t-117 62t-83.5 108t-31 151q0 87 35 157t90.5 111.5t119 63.5t125.5 22z"/>
<glyph glyph-name="ccircumflex" horiz-adv-x="430" unicode="ĉ" d="M243 646l8 4l78 -153l-7 -5l-75 83l-74 -83l-8 5zM29 212q0 111 74.5 172t174.5 61q38 0 74 -12t50 -24q-16 -65 -35 -101l-4 -2q-15 31 -32 111q-12 6 -42 6q-85 0 -130 -59.5t-45 -142.5q0 -86 49.5 -143t128.5 -57q19 0 28 4q54 47 84 62l1 -3q-5 -17 -26 -45.5 t-33 -35.5q-43 -16 -91 -16q-37 0 -74.5 12t-72.5 37t-57 70.5t-22 105.5z"/>
<glyph glyph-name="Cdotaccent" horiz-adv-x="658" unicode="Ċ" d="M410 812l5 2q8 -3 21 -18.5t17 -27.5l-1 -5q-5 -11 -18.5 -25.5t-22.5 -19.5l-6 -2q-22 13 -39 45l2 6q18 29 42 45zM404 677h3q109 0 168 -42q32 24 62 31l4 -2q-2 -25 -17 -81t-22 -71l-5 -3q-7 15 -17.5 52.5t-11.5 56.5q-44 31 -139 31q-144 0 -224 -92t-80 -229 q0 -129 82.5 -222t234.5 -93q46 0 68 8q96 97 116 113l5 -3q-4 -17 -24.5 -64.5t-27.5 -54.5q-87 -31 -178 -31q-71 0 -135.5 21t-117 62t-83.5 108t-31 151q0 87 35 157t90.5 111.5t119 63.5t125.5 22z"/>
<glyph glyph-name="cdotaccent" horiz-adv-x="430" unicode="ċ" d="M245 635l6 1q8 -3 21 -18t19 -28l-2 -7q-5 -10 -19.5 -25t-23.5 -21l-6 -2q-23 14 -41 47l2 6q21 33 44 47zM29 212q0 111 74.5 172t174.5 61q38 0 74 -12t50 -24q-16 -65 -35 -101l-4 -2q-15 31 -32 111q-12 6 -42 6q-85 0 -130 -59.5t-45 -142.5q0 -86 49.5 -143 t128.5 -57q19 0 28 4q54 47 84 62l1 -3q-5 -17 -26 -45.5t-33 -35.5q-43 -16 -91 -16q-37 0 -74.5 12t-72.5 37t-57 70.5t-22 105.5z"/>
<glyph glyph-name="Ccaron" horiz-adv-x="658" unicode="Č" d="M402 713h-7q-58 56 -118 109l6 5q19 -8 116 -58q93 48 116 58l6 -5q-54 -47 -119 -109zM404 677h3q109 0 168 -42q32 24 62 31l4 -2q-2 -25 -17 -81t-22 -71l-5 -3q-7 15 -17.5 52.5t-11.5 56.5q-44 31 -139 31q-144 0 -224 -92t-80 -229q0 -129 82.5 -222t234.5 -93 q46 0 68 8q96 97 116 113l5 -3q-4 -17 -24.5 -64.5t-27.5 -54.5q-87 -31 -178 -31q-71 0 -135.5 21t-117 62t-83.5 108t-31 151q0 87 35 157t90.5 111.5t119 63.5t125.5 22z"/>
<glyph glyph-name="ccaron" horiz-adv-x="430" unicode="č" d="M257 499l-8 -3l-78 153l7 4l75 -82l74 82l7 -5zM29 212q0 111 74.5 172t174.5 61q38 0 74 -12t50 -24q-16 -65 -35 -101l-4 -2q-15 31 -32 111q-12 6 -42 6q-85 0 -130 -59.5t-45 -142.5q0 -86 49.5 -143t128.5 -57q19 0 28 4q54 47 84 62l1 -3q-5 -17 -26 -45.5 t-33 -35.5q-43 -16 -91 -16q-37 0 -74.5 12t-72.5 37t-57 70.5t-22 105.5z"/>
<glyph glyph-name="Dcaron" horiz-adv-x="713" unicode="Ď" d="M325 704h-6q-65 62 -119 109l6 5q52 -23 116 -58q79 41 117 58l5 -5q-54 -47 -119 -109zM197 646v-302q0 -310 5 -327q193 0 283 79q102 86 102 246q0 150 -102 235q-85 69 -265 69h-23zM29 652l4 4q132 12 226 12q196 0 308.5 -79.5t112.5 -242.5q0 -70 -21 -127 t-56.5 -93t-69.5 -58t-73 -37q-89 -34 -260 -34q-59 0 -176 3l2 4l84 32q6 15 6 307v285z"/>
<glyph glyph-name="dcaron" horiz-adv-x="513" unicode="ď" d="M483 590l-9 6q38 35 38 72q0 21 -10 30l-23 16v5l52 29h7q22 -19 22 -54q0 -28 -20.5 -56.5t-56.5 -47.5zM352 61v332q-27 19 -72 19q-74 0 -120.5 -58.5t-46.5 -136.5q0 -76 44.5 -129.5t113.5 -53.5q41 0 81 27zM430 392v-336q36 -38 75 -55l-1 -3q-11 -11 -44 -11 q-29 0 -59.5 14.5t-41.5 43.5h-2q-81 -58 -120 -58q-79 0 -143.5 58t-64.5 160q0 109 74 174.5t168 65.5q34 0 79 -33l2 1q0 111 -3 243l-53 27l2 2q44 17 135 31q-3 -166 -3 -324z"/>
<glyph glyph-name="Dcroat" horiz-adv-x="723" unicode="Đ" d="M206 362h192l-15 -25h-177q0 -303 5 -319q193 0 283 77q102 88 102 247q0 153 -102 235q-82 68 -269 68h-19v-283zM39 362h86v266l-87 24l4 4q3 0 40.5 3.5t87.5 6t98 2.5q196 0 308.5 -79.5t112.5 -242.5q0 -70 -21 -127t-56.5 -93t-69.5 -58t-73 -37q-89 -34 -260 -34 q-59 0 -176 3l2 4l84 33q6 13 6 300h-96z"/>
<glyph glyph-name="dcroat" horiz-adv-x="517" unicode="đ" d="M356 62v331q-27 19 -74 19q-73 0 -120.5 -58.5t-47.5 -136.5q0 -76 45.5 -129.5t114.5 -53.5q42 0 82 28zM257 568h97q0 56 -1 88l-53 26l2 3q55 19 135 30q-1 -36 -1 -106v-41h80l-12 -24h-68q-2 -52 -2 -152v-336q30 -35 75 -55l-1 -3q-11 -11 -44 -11 q-29 0 -59.5 14.5t-41.5 42.5h-2q-85 -57 -121 -57q-80 0 -145.5 58t-65.5 160q0 108 75 174t169 66q31 0 81 -32l2 1q0 80 -2 130h-109z"/>
<glyph glyph-name="Emacron" horiz-adv-x="528" unicode="Ē" d="M368 721h-185l12 40h184zM34 657l1 5q114 -3 116 -3h262q33 11 66 11l2 -2q-2 -16 -14 -71.5t-14 -63.5l-5 -2q-22 58 -38 106l-213 -8v-271q177 0 250 10l2 -3q-3 -6 -24.5 -26t-25.5 -20q-3 0 -95 4.5t-107 4.5q0 -203 4 -296l219 -11q70 100 86 119h4q-4 -52 -30 -143 q-62 3 -177 3h-153q-27 0 -135 -3l3 4l92 35q6 22 6 308v280z"/>
<glyph glyph-name="emacron" horiz-adv-x="434" unicode="ē" d="M316 548h-178l15 41h177zM115 268h206q6 10 6 36q0 46 -22.5 84.5t-65.5 38.5q-41 0 -70.5 -31.5t-41 -65.5t-12.5 -62zM306 245h-190q-2 -9 -2 -24q0 -91 48.5 -144t121.5 -53q13 0 28 3q55 45 80 59l2 -4q-4 -16 -21 -39t-28 -30q-17 -9 -50.5 -17.5t-56.5 -8.5 q-92 0 -150.5 60.5t-58.5 157.5q0 104 65 172t151 68q69 0 116 -44.5t47 -116.5q0 -19 -10 -26q-29 -13 -92 -13z"/>
<glyph glyph-name="Ebreve" horiz-adv-x="528" unicode="Ĕ" d="M278 705q-51 0 -75 28t-24 74l12 4q15 -58 88 -58q70 0 91 55l12 3q-2 -48 -27.5 -77t-76.5 -29zM34 658l1 4q114 -3 116 -3h262q33 11 66 11l2 -2q-2 -16 -14 -71.5t-14 -63.5l-5 -2q-22 58 -38 106l-213 -8v-271q177 0 250 10l2 -3q-3 -6 -24.5 -26t-25.5 -20 q-3 0 -95 4.5t-107 4.5q0 -203 4 -296l219 -11q70 100 86 119h4q-4 -52 -30 -143q-62 3 -177 3h-153q-27 0 -135 -3l3 4l92 35q6 22 6 308v280z"/>
<glyph glyph-name="ebreve" horiz-adv-x="434" unicode="ĕ" d="M148 631l11 5q20 -75 77 -75q58 0 81 70l12 5q-2 -52 -25.5 -85.5t-69.5 -33.5t-66.5 32.5t-19.5 81.5zM115 268h206q6 10 6 36q0 46 -22.5 84.5t-65.5 38.5q-41 0 -70.5 -31.5t-41 -65.5t-12.5 -62zM306 245h-190q-2 -9 -2 -24q0 -91 48.5 -144t121.5 -53q13 0 28 3 q55 45 80 59l2 -4q-4 -16 -21 -39t-28 -30q-17 -9 -50.5 -17.5t-56.5 -8.5q-92 0 -150.5 60.5t-58.5 157.5q0 104 65 172t151 68q69 0 116 -44.5t47 -116.5q0 -19 -10 -26q-29 -13 -92 -13z"/>
<glyph glyph-name="Edotaccent" horiz-adv-x="528" unicode="Ė" d="M284 803l5 2q8 -3 21 -18.5t17 -27.5l-1 -5q-5 -11 -18.5 -25.5t-22.5 -19.5l-6 -2q-23 13 -40 45l3 6q18 29 42 45zM34 657l1 5q114 -3 116 -3h262q33 11 66 11l2 -2q-2 -16 -14 -71.5t-14 -63.5l-5 -2q-22 58 -38 106l-213 -8v-271q177 0 250 10l2 -3q-3 -6 -24.5 -26 t-25.5 -20q-3 0 -95 4.5t-107 4.5q0 -203 4 -296l219 -11q70 100 86 119h4q-4 -52 -30 -143q-62 3 -177 3h-153q-27 0 -135 -3l3 4l92 35q6 22 6 308v280z"/>
<glyph glyph-name="edotaccent" horiz-adv-x="434" unicode="ė" d="M238 635l5 1q8 -3 21.5 -18t19.5 -28l-2 -7q-5 -10 -19.5 -25t-23.5 -21l-6 -2q-26 16 -41 47l2 6q22 34 44 47zM115 268h206q6 10 6 36q0 46 -22.5 84.5t-65.5 38.5q-41 0 -70.5 -31.5t-41 -65.5t-12.5 -62zM306 245h-190q-2 -9 -2 -24q0 -91 48.5 -144t121.5 -53 q13 0 28 3q55 45 80 59l2 -4q-4 -16 -21 -39t-28 -30q-17 -9 -50.5 -17.5t-56.5 -8.5q-92 0 -150.5 60.5t-58.5 157.5q0 104 65 172t151 68q69 0 116 -44.5t47 -116.5q0 -19 -10 -26q-29 -13 -92 -13z"/>
<glyph glyph-name="Eogonek" horiz-adv-x="528" unicode="Ę" d="M446 -124l4 -10q-37 -43 -87 -43q-23 0 -45 15.5t-22 45.5q0 53 98 116q-31 1 -91 1h-153q-23 0 -70.5 -1.5t-64.5 -1.5l3 4l92 35q6 22 6 306v281l-82 33l1 5q114 -3 116 -3h262q33 11 66 11l2 -2q-2 -16 -14 -71.5t-14 -63.5l-5 -2q-22 58 -38 106l-213 -8v-271 q177 0 250 10l2 -3q-3 -6 -24.5 -26t-25.5 -20q-3 0 -95 4.5t-107 4.5q0 -202 4 -295l219 -11q8 12 27 38.5t33.5 47t25.5 33.5l4 -1q-4 -51 -30 -142q-9 0 -29 0.5t-29 1.5q-76 -57 -76 -100q0 -36 44 -36q32 0 56 12z"/>
<glyph glyph-name="eogonek" horiz-adv-x="434" unicode="ę" d="M320 -119l4 -10q-36 -43 -87 -43q-23 0 -45 14.5t-22 43.5q0 49 68 101h-2q-94 0 -150.5 61.5t-56.5 156.5q0 104 65 172t151 68q69 0 116 -44.5t47 -116.5q0 -19 -10 -26q-29 -13 -92 -13h-190q-2 -9 -2 -24q0 -91 48.5 -144t121.5 -53q13 0 28 3q55 45 80 59l2 -4 q-4 -16 -21 -39t-28 -30q-21 -12 -74 -23q-51 -54 -51 -84q0 -37 47 -37q29 0 53 12zM115 268h206q6 10 6 36q0 46 -22.5 84.5t-65.5 38.5q-41 0 -70.5 -31.5t-41 -65.5t-12.5 -62z"/>
<glyph glyph-name="Ecaron" horiz-adv-x="528" unicode="Ě" d="M272 699h-6q-77 73 -118 109l6 5q19 -8 116 -58q97 50 116 58l6 -5q-43 -37 -120 -109zM34 657l1 5q114 -3 116 -3h262q33 11 66 11l2 -2q-2 -16 -14 -71.5t-14 -63.5l-5 -2q-22 58 -38 106l-213 -8v-271q177 0 250 10l2 -3q-3 -6 -24.5 -26t-25.5 -20q-3 0 -95 4.5 t-107 4.5q0 -203 4 -296l219 -11q70 100 86 119h4q-4 -52 -30 -143q-62 3 -177 3h-153q-27 0 -135 -3l3 4l92 35q6 22 6 308v280z"/>
<glyph glyph-name="ecaron" horiz-adv-x="434" unicode="ě" d="M242 499l-8 -3l-79 153l7 4l76 -82l74 82l7 -5zM115 268h206q6 10 6 36q0 46 -22.5 84.5t-65.5 38.5q-41 0 -70.5 -31.5t-41 -65.5t-12.5 -62zM306 245h-190q-2 -9 -2 -24q0 -91 48.5 -144t121.5 -53q13 0 28 3q55 45 80 59l2 -4q-4 -16 -21 -39t-28 -30 q-17 -9 -50.5 -17.5t-56.5 -8.5q-92 0 -150.5 60.5t-58.5 157.5q0 104 65 172t151 68q69 0 116 -44.5t47 -116.5q0 -19 -10 -26q-29 -13 -92 -13z"/>
<glyph glyph-name="Gcircumflex" horiz-adv-x="711" unicode="Ĝ" d="M399 822h6q52 -49 119 -108l-6 -7q-39 18 -117 58q-87 -45 -116 -58l-5 7q67 59 119 108zM352 292l44 17q106 8 264 8q-8 -79 -26 -198t-26 -133h-7q-17 1 -29.5 12t-15.5 21q-34 -17 -81 -27.5t-80 -10.5q-161 0 -260.5 93.5t-99.5 251.5q0 150 109.5 250.5t275.5 100.5 q102 0 161 -49q30 25 65 40l4 -3q-4 -33 -19 -91.5t-22 -73.5l-5 -3q-21 56 -30 115q-61 34 -142 34q-138 0 -221.5 -89t-83.5 -229q0 -132 80.5 -222t221.5 -90q84 0 124 20q1 76 13 241l-210 8z"/>
<glyph glyph-name="gcircumflex" horiz-adv-x="444" unicode="ĝ" d="M208 646l7 4l79 -153l-8 -5l-75 83l-74 -83l-8 5zM215 -18q-66 0 -87 -12q-16 -13 -29.5 -38t-13.5 -44q0 -47 41 -74t94 -27q72 0 114.5 30.5t42.5 93.5q0 26 -15.5 43.5t-39.5 21.5q-39 6 -107 6zM206 428q-44 0 -67 -42.5t-23 -95.5q0 -59 24 -103t69 -44 q43 0 65.5 44t22.5 106q0 48 -23 91.5t-68 43.5zM404 400l-71 -6v-2q15 -14 27.5 -44.5t12.5 -63.5q0 -71 -49 -114.5t-120 -43.5q-42 0 -80 18q-29 -31 -29 -49q0 -14 16 -29t26 -15h1q58 5 115 5q66 0 104 -6q31 -4 52 -24q31 -31 31 -73q0 -73 -77 -137q-83 -69 -182 -69 q-70 0 -117.5 32t-47.5 82q0 15 12 27l91 95l-1 2q-24 11 -42 29q-14 12 -25.5 30t-11.5 30q0 17 70 76q-70 40 -70 130q0 63 47 114t135 51q32 0 74 -7q19 -3 40 -7t25 -5l82 39l2 -5z"/>
<glyph glyph-name="Gbreve" horiz-adv-x="711" unicode="Ğ" d="M395 713q-51 0 -75 28t-24 74l12 4q15 -58 88 -58q70 0 91 55l12 3q-2 -48 -27.5 -77t-76.5 -29zM352 292l44 17q106 8 264 8q-8 -79 -26 -198t-26 -133h-7q-17 1 -29.5 12t-15.5 21q-34 -17 -81 -27.5t-80 -10.5q-161 0 -260.5 93.5t-99.5 251.5q0 150 109.5 250.5 t275.5 100.5q102 0 161 -49q30 25 65 40l4 -3q-4 -33 -19 -91.5t-22 -73.5l-5 -3q-21 56 -30 115q-61 34 -142 34q-138 0 -221.5 -89t-83.5 -229q0 -132 80.5 -222t221.5 -90q84 0 124 20q1 76 13 241l-210 8z"/>
<glyph glyph-name="gbreve" horiz-adv-x="444" unicode="ğ" d="M122 623l11 6q20 -75 76 -75q58 0 81 69l12 6q-2 -53 -25.5 -86t-69.5 -33q-45 0 -65.5 32.5t-19.5 80.5zM215 -18q-66 0 -87 -12q-16 -13 -29.5 -38t-13.5 -44q0 -47 41 -74t94 -27q72 0 114.5 30.5t42.5 93.5q0 26 -15.5 43.5t-39.5 21.5q-39 6 -107 6zM206 428 q-44 0 -67 -42.5t-23 -95.5q0 -59 24 -103t69 -44q43 0 65.5 44t22.5 106q0 48 -23 91.5t-68 43.5zM404 400l-71 -6v-2q15 -14 27.5 -44.5t12.5 -63.5q0 -71 -49 -114.5t-120 -43.5q-42 0 -80 18q-29 -31 -29 -49q0 -14 16 -29t26 -15h1q58 5 115 5q66 0 104 -6 q31 -4 52 -24q31 -31 31 -73q0 -73 -77 -137q-83 -69 -182 -69q-70 0 -117.5 32t-47.5 82q0 15 12 27l91 95l-1 2q-24 11 -42 29q-14 12 -25.5 30t-11.5 30q0 17 70 76q-70 40 -70 130q0 63 47 114t135 51q32 0 74 -7q19 -3 40 -7t25 -5l82 39l2 -5z"/>
<glyph glyph-name="Gdotaccent" horiz-adv-x="711" unicode="Ġ" d="M416 812l5 2q8 -3 21 -18.5t17 -27.5l-1 -5q-5 -12 -18.5 -26t-22.5 -19l-6 -2q-21 11 -39 45l2 6q19 28 42 45zM352 292l44 17q106 8 264 8q-8 -79 -26 -198t-26 -133h-7q-17 1 -29.5 12t-15.5 21q-34 -17 -81 -27.5t-80 -10.5q-161 0 -260.5 93.5t-99.5 251.5 q0 150 109.5 250.5t275.5 100.5q102 0 161 -49q30 25 65 40l4 -3q-4 -33 -19 -91.5t-22 -73.5l-5 -3q-21 56 -30 115q-61 34 -142 34q-138 0 -221.5 -89t-83.5 -229q0 -132 80.5 -222t221.5 -90q84 0 124 20q1 76 13 241l-210 8z"/>
<glyph glyph-name="gdotaccent" horiz-adv-x="444" unicode="ġ" d="M213 635l5 1q8 -3 21.5 -18t18.5 -28l-2 -7q-5 -10 -19 -25t-23 -21l-7 -2q-26 17 -40 47l2 6q22 34 44 47zM215 -18q-66 0 -87 -12q-16 -13 -29.5 -38t-13.5 -44q0 -47 41 -74t94 -27q72 0 114.5 30.5t42.5 93.5q0 26 -15.5 43.5t-39.5 21.5q-39 6 -107 6zM206 428 q-44 0 -67 -42.5t-23 -95.5q0 -59 24 -103t69 -44q43 0 65.5 44t22.5 106q0 48 -23 91.5t-68 43.5zM404 400l-71 -6v-2q15 -14 27.5 -44.5t12.5 -63.5q0 -71 -49 -114.5t-120 -43.5q-42 0 -80 18q-29 -31 -29 -49q0 -14 16 -29t26 -15h1q58 5 115 5q66 0 104 -6 q31 -4 52 -24q31 -31 31 -73q0 -73 -77 -137q-83 -69 -182 -69q-70 0 -117.5 32t-47.5 82q0 15 12 27l91 95l-1 2q-24 11 -42 29q-14 12 -25.5 30t-11.5 30q0 17 70 76q-70 40 -70 130q0 63 47 114t135 51q32 0 74 -7q19 -3 40 -7t25 -5l82 39l2 -5z"/>
<glyph glyph-name="Gcommaaccent" horiz-adv-x="711" unicode="Ģ" d="M362 -210l-9 6q38 36 38 72q0 21 -10 31l-23 15v5l52 29h7q22 -19 22 -53q0 -28 -20.5 -56.5t-56.5 -48.5zM352 292l44 17q106 8 264 8q-9 -83 -27 -200.5t-25 -130.5h-7q-17 1 -29.5 12t-15.5 21q-34 -17 -81 -27.5t-80 -10.5q-161 0 -260.5 93.5t-99.5 251.5 q0 150 109.5 250.5t275.5 100.5q102 0 161 -49q30 25 65 40l4 -3q-4 -33 -19 -91.5t-22 -73.5l-5 -3q-21 56 -30 115q-61 34 -142 34q-138 0 -221.5 -89t-83.5 -229q0 -132 80.5 -222t221.5 -90q84 0 124 20q1 76 13 241l-210 8z"/>
<glyph glyph-name="gcommaaccent" horiz-adv-x="444" unicode="ģ" d="M215 -18q-66 0 -87 -12q-16 -13 -29.5 -38t-13.5 -44q0 -47 41 -74t94 -27q72 0 114.5 30.5t42.5 93.5q0 26 -15.5 43.5t-39.5 21.5q-39 6 -107 6zM206 428q-44 0 -67 -42.5t-23 -95.5q0 -59 24 -103t69 -44q43 0 65.5 44t22.5 106q0 48 -23 91.5t-68 43.5zM404 400 l-71 -6v-2q15 -14 27.5 -44.5t12.5 -63.5q0 -71 -49 -114.5t-120 -43.5q-42 0 -80 18q-29 -31 -29 -49q0 -14 16 -29t26 -15h1q58 5 115 5q66 0 104 -6q31 -4 52 -24q31 -31 31 -73q0 -73 -77 -137q-83 -69 -182 -69q-70 0 -117.5 32t-47.5 82q0 15 12 27l91 95l-1 2 q-24 11 -42 29q-14 12 -25.5 30t-11.5 30q0 17 70 76q-70 40 -70 130q0 63 47 114t135 51q32 0 74 -7q19 -3 40 -7t25 -5l82 39l2 -5zM243 676l8 -6q-37 -34 -37 -73q0 -22 10 -29l23 -16v-6l-52 -28h-7q-21 18 -21 54q0 28 20 56t56 48z"/>
<glyph glyph-name="Hcircumflex" horiz-adv-x="746" unicode="Ĥ" d="M370 811h6q52 -49 119 -108l-6 -6q-32 14 -116 57q-84 -43 -116 -57l-6 6q67 59 119 108zM39 656l2 4q93 -3 113 -3q27 0 90 3l-2 -5l-45 -35v-250h353v250l-45 37l4 3q78 -3 83 -3q26 0 125 3l-2 -5l-84 -35v-279q0 -283 8 -301l87 -39l-3 -4q-105 3 -135 3 q-27 0 -81 -3l2 5l40 36q2 94 2 135q0 29 -0.5 86t-0.5 87q-36 -10 -131 -10h-222q0 -26 -1 -82t-1 -88q0 -58 3 -124l38 -41l-1 -4q-63 3 -87 3q-25 0 -121 -3l4 4l79 37q6 150 6 310v273z"/>
<glyph glyph-name="hcircumflex" horiz-adv-x="519" unicode="ĥ" d="M109 849h6q77 -72 119 -108l-6 -6q-44 19 -116 58q-73 -39 -116 -58l-6 6q42 36 119 108zM439 296v-235q0 -23 18 -30l53 -30l-3 -4h-21q-74 0 -135 8q11 90 11 255q0 140 -108 140q-58 0 -98 -38q0 -311 5 -326l70 -35l-2 -4l-117 3q-2 0 -95 -3l3 4l54 35q5 15 5 243 q0 248 -3 376l-54 27l2 3q49 16 135 31q-3 -168 -3 -332l1 -1q80 62 138 62q69 0 106.5 -44t37.5 -105z"/>
<glyph glyph-name="Hbar" horiz-adv-x="746" unicode="Ħ" d="M197 541h353v80l-45 36l4 4q78 -3 83 -3q26 0 125 3l-2 -5l-84 -35v-80h98l-11 -26h-87v-175q0 -282 8 -300l87 -39l-3 -4q-105 3 -135 3q-27 0 -81 -3l2 5l40 36q2 94 2 134q0 29 -0.5 84.5t-0.5 82.5q-58 -4 -131 -4h-222q0 -25 -1 -82t-1 -88q0 -57 3 -123l38 -41 l-1 -4q-63 3 -87 3q-25 0 -121 -3l4 4l79 37q6 150 6 309v168h-93l10 26h83v81l-77 35l2 4q93 -3 113 -3q27 0 90 3l-2 -5l-45 -35v-80zM197 370h353v145h-353v-145z"/>
<glyph glyph-name="hbar" horiz-adv-x="519" unicode="ħ" d="M20 582h58v73l-56 27l2 3q48 16 134 31q-1 -44 -1 -134h138l-12 -26h-126q-1 -57 -1 -174q79 63 139 63q69 0 106.5 -44t37.5 -105v-235q0 -23 18 -30l53 -30l-3 -4h-21q-74 0 -135 8q11 90 11 255q0 139 -108 139q-58 0 -98 -37q0 -311 5 -326l70 -35l-2 -4l-117 3 q-2 0 -95 -3l3 4l54 35q5 15 5 243q0 187 -1 277h-68z"/>
<glyph glyph-name="Itilde" horiz-adv-x="313" unicode="Ĩ" d="M275 767l7 -5q-51 -67 -85 -67q-10 0 -49 17q-35 16 -43 16q-30 0 -60 -35l-8 7q53 69 85 69q10 0 46 -15q41 -17 46 -17q29 0 61 30zM37 656l1 4q14 0 38 -1t44 -1.5t38 -0.5t38 0.5t44 1.5t38 1l-2 -5l-79 -36v-277q0 -265 5 -305l90 -36l-1 -4q-90 3 -135 3 q-48 0 -132 -3l2 4l84 36q6 24 6 305v278z"/>
<glyph glyph-name="itilde" horiz-adv-x="242" unicode="ĩ" d="M238 601l7 -4q-49 -67 -83 -67q-10 0 -49 17q-32 15 -42 15q-28 0 -60 -34l-7 7q52 68 83 68q8 0 46 -14q34 -17 46 -17q28 0 59 29zM35 413l3 4q70 22 125 28v-200q0 -135 4 -209l66 -35l-3 -4q-102 3 -107 3q-19 0 -55.5 -1.5t-44.5 -1.5l2 4l57 35q4 102 4 211v141z "/>
<glyph glyph-name="Imacron" horiz-adv-x="313" unicode="Ī" d="M245 711h-185l12 40h184zM37 656l1 4q14 0 38 -1t44 -1.5t38 -0.5t38 0.5t44 1.5t38 1l-2 -5l-79 -36v-277q0 -265 5 -305l90 -36l-1 -4q-90 3 -135 3q-48 0 -132 -3l2 4l84 36q6 24 6 305v278z"/>
<glyph glyph-name="imacron" horiz-adv-x="242" unicode="ī" d="M198 548h-177l15 41h176zM35 413l3 4q70 22 125 28v-200q0 -135 4 -209l66 -35l-3 -4q-102 3 -107 3q-19 0 -55.5 -1.5t-44.5 -1.5l2 4l57 35q4 102 4 211v141z"/>
<glyph glyph-name="Ibreve" horiz-adv-x="313" unicode="Ĭ" d="M150 705q-51 0 -75 28t-24 74l12 4q15 -58 88 -58q70 0 91 55l12 3q-2 -48 -27.5 -77t-76.5 -29zM37 656l1 4q14 0 38 -1t44 -1.5t38 -0.5t38 0.5t44 1.5t38 1l-2 -5l-79 -36v-277q0 -265 5 -305l90 -36l-1 -4q-90 3 -135 3q-48 0 -132 -3l2 4l84 36q6 24 6 305v278z"/>
<glyph glyph-name="ibreve" horiz-adv-x="242" unicode="ĭ" d="M27 631l12 5q20 -75 75 -75q58 0 81 70l12 5q-2 -53 -25.5 -86t-69.5 -33q-45 0 -65.5 32.5t-19.5 81.5zM35 413l3 4q70 22 125 28v-200q0 -135 4 -209l66 -35l-3 -4q-102 3 -107 3q-19 0 -55.5 -1.5t-44.5 -1.5l2 4l57 35q4 102 4 211v141z"/>
<glyph glyph-name="Iogonek" horiz-adv-x="313" unicode="Į" d="M231 -115l4 -9q-37 -43 -87 -43q-23 0 -45 14t-22 43q0 49 60 109q-41 0 -116 -3l1 4l84 36q6 24 6 306v278l-79 36l1 4q14 0 38 -1t44 -1.5t38 -0.5t38 0.5t44 1.5t38 1l-2 -5l-79 -37v-276q0 -265 5 -305l90 -37l-1 -4q-84 3 -128 3q-32 -44 -32 -89q0 -36 48 -36 q26 0 52 11z"/>
<glyph glyph-name="iogonek" horiz-adv-x="242" unicode="į" d="M197 -119l4 -9q-38 -44 -87 -44q-25 0 -46 14.5t-21 46.5q0 52 68 111q-9 0 -92 -3l2 4l57 35q4 102 4 211v141l-51 25l3 4q70 22 125 28v-200q0 -135 4 -209l66 -35l-3 -4q-93 3 -94 3q-39 -54 -39 -92q0 -39 48 -39q24 0 52 12zM123 652l6 1q8 -3 21.5 -18t18.5 -28 l-2 -7q-5 -10 -19.5 -25t-23.5 -20l-6 -3q-26 17 -40 47l1 6q22 34 44 47z"/>
<glyph glyph-name="Idotaccent" horiz-adv-x="313" unicode="İ" d="M164 811l5 2q8 -3 21 -18.5t17 -27.5l-1 -5q-5 -11 -18.5 -25.5t-22.5 -19.5l-6 -2q-22 11 -40 45l3 6q18 29 42 45zM37 656l1 4q14 0 38 -1t44 -1.5t38 -0.5t38 0.5t44 1.5t38 1l-2 -5l-79 -36v-277q0 -265 5 -305l90 -36l-1 -4q-90 3 -135 3q-48 0 -132 -3l2 4l84 36 q6 24 6 305v278z"/>
<glyph glyph-name="dotlessi" horiz-adv-x="242" unicode="ı" d="M35 413l3 4q70 22 125 28v-200q0 -135 4 -209l66 -35l-3 -4q-102 3 -107 3q-19 0 -55.5 -1.5t-44.5 -1.5l2 4l57 35q4 102 4 211v141z"/>
<glyph glyph-name="IJ" horiz-adv-x="599" unicode="Ĳ" d="M333 655l3 5q15 0 38.5 -1t44.5 -1.5t44 -0.5q2 0 122 3l-3 -5l-76 -35q1 -39 1 -159q0 -72 -0.5 -189.5t-0.5 -133.5q0 -53 -14 -91q-37 -139 -145 -221l-17 7v6q55 43 75 107t20 157v21q0 13 -0.5 83.5t-0.5 149.5q-1 224 -3 263zM37 656l1 4q14 0 38 -1t44 -1.5 t38 -0.5t38 0.5t44 1.5t38 1l-2 -5l-79 -36v-277q0 -265 5 -305l90 -36l-1 -4q-90 3 -135 3q-48 0 -132 -3l2 4l84 36q6 24 6 305v278z"/>
<glyph glyph-name="ij" horiz-adv-x="468" unicode="ĳ" d="M268 416l2 3q21 8 66.5 17t64.5 9v-381q0 -88 -41 -165q-54 -103 -120 -152l-13 9l-2 4q64 55 82 119t18 186q0 247 -5 324q-34 18 -52 27zM362 653l6 1q8 -3 21 -18t19 -28l-2 -7q-5 -10 -19.5 -25t-23.5 -21l-6 -2q-23 15 -41 46l2 7q20 32 44 47zM35 413l3 4 q70 22 125 28v-200q0 -135 4 -209l66 -35l-3 -4q-102 3 -107 3q-19 0 -55.5 -1.5t-44.5 -1.5l2 4l57 35q4 102 4 211v141zM123 652l6 1q8 -3 21.5 -18t18.5 -27l-2 -8q-5 -10 -19.5 -25t-23.5 -20l-6 -3q-26 17 -40 47l1 7q22 34 44 46z"/>
<glyph glyph-name="Jcircumflex" horiz-adv-x="286" unicode="Ĵ" d="M153 811h6q52 -49 119 -108l-6 -6q-39 17 -117 57q-84 -43 -116 -57l-5 6q67 59 119 108zM20 655l3 5q15 0 38.5 -1t44.5 -1.5t44 -0.5q2 0 122 3l-3 -5l-76 -35q1 -39 1 -160q0 -72 -0.5 -189.5t-0.5 -133.5q0 -53 -14 -91q-36 -139 -145 -221l-17 7v6q55 43 75 107 t20 157v21q0 14 -0.5 84t-0.5 149q-1 225 -3 264z"/>
<glyph glyph-name="jcircumflex" horiz-adv-x="222" unicode="ĵ" d="M107 646l8 4l78 -153l-7 -5l-75 83l-75 -83l-7 5zM22 416l2 3q21 8 67.5 17t64.5 9v-381q0 -88 -41 -165q-56 -106 -120 -152l-14 9l-1 4q64 55 82 119t18 186q0 247 -5 324q-34 18 -53 27z"/>
<glyph glyph-name="Kcommaaccent" horiz-adv-x="650" unicode="Ķ" d="M324 -180l-9 6q38 35 38 72q0 21 -10 31l-23 15v5l52 29h7q22 -19 22 -53q0 -29 -20.5 -57.5t-56.5 -47.5zM37 657l2 4q117 -3 119 -3q18 0 37.5 0.5t44 1.5t37.5 1l-1 -5l-79 -37v-276q0 -266 5 -306l90 -36l-1 -4q-90 3 -135 3q-48 0 -132 -3l2 4l84 36q6 23 6 306v277 zM645 658l-2 -4q-34 -10 -111 -34q-12 -3 -26 -17q-65 -60 -213 -225v-3q108 -132 229 -261q30 -33 57.5 -62t41 -43t20.5 -23l-1 -1q-70 3 -110.5 24t-85.5 66q-94 94 -223 250v7q196 212 251 292q-3 24 -3 28q0 2 0.5 4.5t0.5 3.5q16 1 52 1q30 0 73.5 -1.5t49.5 -1.5z "/>
<glyph glyph-name="kcommaaccent" horiz-adv-x="473" unicode="ķ" d="M228 -190l-8 6q38 35 38 72q0 21 -10 31l-23 15v5l52 29h7q22 -19 22 -53q0 -29 -20.5 -57.5t-57.5 -47.5zM161 36l72 -35l-1 -4q-13 0 -36 1t-41.5 1.5t-35.5 0.5l-108 -3l2 4l61 35q5 23 5 227q0 256 -3 394l-55 25l2 4q71 23 136 31q-3 -123 -3 -362q0 -279 5 -319z M474 -11l-5 -5q-89 13 -127 47q-65 60 -168 196v5q60 66 141 170l21 43h7q74 0 111 -14l-4 -5q-1 -1 -113 -41q-36 -36 -99 -108v-2q50 -66 236 -286z"/>
<glyph glyph-name="kgreenlandic" horiz-adv-x="485" unicode="ĸ" d="M168 36l72 -35l-1 -4q-14 0 -36.5 1t-41 1.5t-35.5 0.5l-108 -3l2 4l61 35q5 23 5 204v151l-58 24l4 5q73 19 131 25v-209q0 -160 5 -200zM480 -11l-5 -5q-30 2 -68 13.5t-58 28.5q-31 26 -168 189v4q104 109 141 164q15 20 18 52q20 2 45 2q58 0 85 -5l-2 -4 q-6 -5 -20 -10q-18 -8 -58 -20q-18 -5 -41 -28q-24 -22 -102 -107v-2q44 -54 151 -177q17 -20 36 -42t30 -34.5t16 -18.5z"/>
<glyph glyph-name="Lacute" horiz-adv-x="532" unicode="Ĺ" d="M117 695l-5 5l136 106q27 -4 49 -35v-8zM35 656v4q93 -3 119 -3q27 0 123 3l-3 -5l-77 -35v-276q0 -281 4 -309l224 -16q69 99 94 129l3 -4q-2 -19 -14 -74.5t-18 -73.5q-7 0 -41.5 1t-109.5 2t-181 1q-16 0 -136 -3v4l90 36q4 34 4 306v277z"/>
<glyph glyph-name="lacute" horiz-adv-x="235" unicode="ĺ" d="M53 745l-5 5l135 107q27 -5 50 -35v-9zM160 37l66 -36l-3 -4q-105 3 -106 3q-2 0 -107 -3l2 4l63 36q4 88 4 354q0 217 -3 266l-54 28l4 4q26 11 133 27q-3 -163 -3 -321q0 -204 4 -358z"/>
<glyph glyph-name="Lcommaaccent" horiz-adv-x="532" unicode="Ļ" d="M276 -190l-8 6q38 35 38 72q0 21 -10 31l-23 15v5l52 29h7q22 -19 22 -53q0 -29 -20.5 -57.5t-57.5 -47.5zM35 656v4q93 -3 119 -3q30 0 123 3l-2 -5l-78 -35v-276q0 -281 4 -309l225 -16q56 83 93 129l3 -4q-2 -21 -14 -75.5t-18 -72.5q-7 0 -41 1t-109 2t-182 1 q-16 0 -136 -3v4l90 36q4 34 4 306v277z"/>
<glyph glyph-name="lcommaaccent" horiz-adv-x="235" unicode="ļ" d="M83 -190l-9 6q38 35 38 72q0 21 -10 31l-23 15v5l52 29h7q22 -19 22 -53q0 -29 -20.5 -57.5t-56.5 -47.5zM160 37l66 -36l-3 -4q-105 3 -106 3q-2 0 -107 -3l2 4l63 36q4 88 4 354q0 217 -3 266l-54 28l4 4q26 11 133 27q-3 -163 -3 -321q0 -204 4 -358z"/>
<glyph glyph-name="Lcaron" horiz-adv-x="532" unicode="Ľ" d="M329 539l-9 6q38 35 38 72q0 21 -10 31l-23 15v5l52 29h7q22 -19 22 -54q0 -28 -20.5 -56.5t-56.5 -47.5zM35 656v4q93 -3 119 -3q27 0 123 3l-3 -5l-77 -35v-276q0 -281 4 -309l224 -16q69 99 94 129l3 -4q-2 -20 -14.5 -75t-18.5 -73q-7 0 -41 1t-109 2t-181 1 q-16 0 -136 -3v4l90 36q4 34 4 306v277z"/>
<glyph glyph-name="lcaron" horiz-adv-x="235" unicode="ľ" d="M202 590l-8 6q38 35 38 72q0 21 -10 30l-23 15v6l52 29h7q22 -19 22 -54q0 -28 -20.5 -56.5t-57.5 -47.5zM160 37l66 -36l-3 -4q-105 3 -106 3q-2 0 -107 -3l2 4l63 36q4 88 4 354q0 217 -3 266l-54 28l4 4q26 11 133 27q-3 -163 -3 -321q0 -204 4 -358z"/>
<glyph glyph-name="Ldot" horiz-adv-x="532" unicode="Ŀ" d="M377 383l5 1q8 -3 21.5 -18t18.5 -28l-2 -7q-10 -21 -42 -47l-7 -1q-25 16 -40 46l2 7q20 32 44 47zM35 656v4q93 -3 119 -3q27 0 123 3l-3 -5l-77 -35v-276q0 -281 4 -309l224 -16q69 99 94 129l3 -4q-2 -19 -14 -74.5t-18 -73.5q-7 0 -41.5 1t-109.5 2t-181 1 q-16 0 -136 -3v4l90 36q4 34 4 306v277z"/>
<glyph glyph-name="ldot" horiz-adv-x="255" unicode="ŀ" d="M245 432l5 1q8 -3 21 -18t19 -29l-2 -7q-12 -23 -43 -46l-6 -2q-26 18 -41 47l2 6q19 31 45 48zM160 37l66 -36l-3 -4q-105 3 -106 3q-2 0 -107 -3l2 4l63 36q4 88 4 354q0 217 -3 266l-54 28l4 4q26 11 133 27q-3 -163 -3 -321q0 -204 4 -358z"/>
<glyph glyph-name="Lslash" horiz-adv-x="543" unicode="Ł" d="M42 262l86 63v295l-82 36l1 4q93 -3 118 -3t124 3l-3 -5l-78 -35v-236l134 98l-5 -35l-129 -94q0 -290 4 -318l224 -16q69 99 94 129l3 -3q-2 -21 -14.5 -76t-18.5 -73q-7 0 -41 1t-109 2t-181 1q-16 0 -136 -3v4l90 36q5 27 5 256l-91 -66z"/>
<glyph glyph-name="lslash" horiz-adv-x="259" unicode="ł" d="M33 326l69 60q0 224 -3 271l-53 28l3 4q38 13 133 27q-3 -150 -3 -267l98 80l-7 -38l-91 -73q1 -278 4 -381l66 -36l-3 -4q-105 3 -106 3q-2 0 -107 -3l2 4l63 36q4 84 4 317l-77 -64z"/>
<glyph glyph-name="Nacute" horiz-adv-x="733" unicode="Ń" d="M321 686l-5 5l135 107q27 -5 50 -35v-9zM248 1l-1 -4q-117 3 -118 3q-3 0 -111 -3l1 4l88 39q13 201 18 523q-34 49 -48 61t-55 30l3 5l128 5q4 -16 33 -52q181 -235 419 -505h3q0 247 -7 510l-81 39l4 4q11 0 44 -1.5t50 -1.5l114 3l-2 -5l-85 -38q-11 -264 -12 -531 q0 -70 -4 -102l-5 -5q-38 27 -109 105.5t-133.5 155.5t-180.5 224q-34 43 -52 65h-2v-116q0 -322 8 -371z"/>
<glyph glyph-name="nacute" horiz-adv-x="526" unicode="ń" d="M240 492l-5 7l65 148q2 0 5 0.5t4 0.5q26 0 46 -11v-7zM87 281v99l-50 25l2 5q18 8 61.5 21t63.5 14l-4 -83h2q55 46 89.5 64.5t66.5 18.5q66 0 97.5 -43.5t31.5 -103.5v-246q0 -17 12 -22l58 -29l-3 -4q-57 3 -109 3q-11 0 -77 -3l2 4l32 34q7 70 7 251q0 56 -27.5 83.5 t-68.5 27.5q-52 0 -109 -57q0 -289 5 -305l51 -34l-1 -4q-35 3 -95 3q-22 0 -100 -3l2 4l56 34q5 16 5 246z"/>
<glyph glyph-name="Ncommaaccent" horiz-adv-x="733" unicode="Ņ" d="M343 -170l-9 6q38 35 38 72q0 21 -10 31l-23 15v5l52 29h7q22 -19 22 -53q0 -29 -20.5 -57.5t-56.5 -47.5zM248 1l-1 -4q-117 3 -118 3q-3 0 -111 -3l1 4l88 39q13 201 18 523q-34 49 -48 61t-55 30l3 5l128 5q4 -16 33 -52q181 -235 419 -505h3q0 247 -7 510l-81 39l4 4 q11 0 44 -1.5t50 -1.5l114 3l-2 -5l-85 -38q-11 -264 -12 -531q0 -70 -4 -102l-5 -5q-38 27 -109 105.5t-133.5 155.5t-180.5 224q-34 43 -52 65h-2v-116q0 -322 8 -371z"/>
<glyph glyph-name="ncommaaccent" horiz-adv-x="526" unicode="ņ" d="M239 -205l-9 6q38 35 38 72q0 21 -10 31l-23 15v5l52 29h7q22 -19 22 -53q0 -29 -20.5 -57.5t-56.5 -47.5zM87 281v99l-50 25l2 5q18 8 61.5 21t63.5 14l-4 -83h2q55 46 89.5 64.5t66.5 18.5q66 0 97.5 -43.5t31.5 -103.5v-246q0 -17 12 -22l58 -29l-3 -4q-57 3 -109 3 q-11 0 -77 -3l2 4l32 34q7 70 7 251q0 56 -27.5 83.5t-68.5 27.5q-52 0 -109 -57q0 -289 5 -305l51 -34l-1 -4q-35 3 -95 3q-22 0 -100 -3l2 4l56 34q5 16 5 246z"/>
<glyph glyph-name="Ncaron" horiz-adv-x="733" unicode="Ň" d="M377 680h-6q-78 74 -119 110l7 5q39 -18 115 -58q78 40 116 58l6 -5q-41 -36 -119 -110zM248 1l-1 -4q-117 3 -118 3q-3 0 -111 -3l1 4l88 39q13 201 18 523q-34 49 -48 61t-55 30l3 5l128 5q4 -16 33 -52q181 -235 419 -505h3q0 247 -7 510l-81 39l4 4q11 0 44 -1.5 t50 -1.5l114 3l-2 -5l-85 -38q-11 -264 -12 -531q0 -70 -4 -102l-5 -5q-38 27 -109 105.5t-133.5 155.5t-180.5 224q-34 43 -52 65h-2v-116q0 -322 8 -371z"/>
<glyph glyph-name="ncaron" horiz-adv-x="526" unicode="ň" d="M267 499l-8 -3l-78 153l7 4l75 -82l74 82l7 -5zM87 281v99l-50 25l2 5q18 8 61.5 21t63.5 14l-4 -83h2q55 46 89.5 64.5t66.5 18.5q66 0 97.5 -43.5t31.5 -103.5v-246q0 -17 12 -22l58 -29l-3 -4q-57 3 -109 3q-11 0 -77 -3l2 4l32 34q7 70 7 251q0 56 -27.5 83.5 t-68.5 27.5q-52 0 -109 -57q0 -289 5 -305l51 -34l-1 -4q-35 3 -95 3q-22 0 -100 -3l2 4l56 34q5 16 5 246z"/>
<glyph glyph-name="napostrophe" horiz-adv-x="526" unicode="ŉ" d="M41 533l-8 6q38 35 38 72q0 21 -10 31l-23 15v5l52 29h7q22 -19 22 -53q0 -29 -20.5 -57.5t-57.5 -47.5zM87 281v99l-50 25l2 5q18 8 61.5 21t63.5 14l-4 -83h2q55 46 89.5 64.5t66.5 18.5q66 0 97.5 -43.5t31.5 -103.5v-246q0 -17 12 -22l58 -29l-3 -4q-57 3 -109 3 q-11 0 -77 -3l2 4l32 34q7 70 7 251q0 56 -27.5 83.5t-68.5 27.5q-52 0 -109 -57q0 -289 5 -305l51 -34l-1 -4q-35 3 -95 3q-22 0 -100 -3l2 4l56 34q5 16 5 246z"/>
<glyph glyph-name="Eng" horiz-adv-x="717" unicode="Ŋ" d="M248 1l-1 -4q-117 3 -118 3q-3 0 -111 -3l1 4l88 39q11 138 18 523q-34 49 -48 61t-55 30l3 5l128 5q4 -16 33 -52q195 -252 418 -503h3q0 283 -6 508l-80 39l3 4q11 0 44.5 -1.5t49.5 -1.5l114 3l-2 -5l-89 -38q-9 -450 -9 -533q0 -172 -30 -223q-13 -25 -30 -37.5 t-29 -12.5q-13 0 -29 14t-18 26l3 4q45 5 68 25q37 31 37 99v17q-28 25 -63 62t-62.5 68t-78 92t-75 91t-89 110.5t-86.5 108.5h-3v-93q0 -338 7 -393z"/>
<glyph glyph-name="eng" horiz-adv-x="512" unicode="ŋ" d="M87 280v99l-50 26l2 5q18 8 61.5 21t63.5 14l-5 -84l2 -1q57 48 91 66.5t67 18.5q65 0 96.5 -44t31.5 -105v-211q0 -75 -18 -121t-60 -88t-65 -42q-8 0 -17 11.5t-13 31.5l2 3q32 -8 49 -8q18 0 27 10.5t13.5 45.5t4.5 105v149v97q-1 61 -28 88.5t-68 27.5 q-52 0 -110 -55q0 -289 5 -305l51 -34l-1 -4q-69 3 -95 3q-22 0 -100 -3l2 4l56 34q5 16 5 245z"/>
<glyph glyph-name="Omacron" horiz-adv-x="765" unicode="Ō" d="M476 729h-185l12 40h185zM378 657q-118 0 -184 -93t-66 -226q0 -136 74.5 -237t194.5 -101q63 0 110.5 28.5t75 76.5t41 104t13.5 118q0 133 -75.5 231.5t-183.5 98.5zM379 677q62 0 122.5 -20.5t112 -60t84 -105.5t33.5 -149v-8q0 -87 -30 -156.5t-80 -111t-111 -63.5 t-127 -22q-59 0 -118.5 20.5t-112 60t-85.5 107.5t-33 154q0 88 33 158.5t86 111.5t111 62.5t115 21.5z"/>
<glyph glyph-name="omacron" horiz-adv-x="500" unicode="ō" d="M332 548h-177l14 41h177zM250 428q-45 0 -76 -34.5t-43.5 -79.5t-12.5 -93q0 -82 39 -149.5t102 -67.5q62 0 92 63t30 144q0 80 -35 148.5t-96 68.5zM251 445q92 0 155.5 -63.5t63.5 -161.5q0 -104 -63.5 -168.5t-159.5 -64.5q-86 0 -152 61t-66 162q0 104 69 169.5 t153 65.5z"/>
<glyph glyph-name="Obreve" horiz-adv-x="765" unicode="Ŏ" d="M375 713q-52 0 -76 28t-24 74l12 4q17 -58 89 -58q69 0 90 55l12 3q-2 -48 -27.5 -77t-75.5 -29zM378 657q-118 0 -184 -93t-66 -226q0 -136 74.5 -237t194.5 -101q63 0 110.5 28.5t75 76.5t41 104t13.5 118q0 133 -75.5 231.5t-183.5 98.5zM379 677q62 0 122.5 -20.5 t112 -60t84 -105.5t33.5 -149v-8q0 -87 -30 -156.5t-80 -111t-111 -63.5t-127 -22q-59 0 -118.5 20.5t-112 60t-85.5 107.5t-33 154q0 88 33 158.5t86 111.5t111 62.5t115 21.5z"/>
<glyph glyph-name="obreve" horiz-adv-x="500" unicode="ŏ" d="M152 631l11 5q20 -75 76 -75q58 0 81 70l12 5q-2 -53 -25.5 -86t-69.5 -33q-44 0 -64.5 30.5t-20.5 76.5v7zM250 428q-45 0 -76 -34.5t-43.5 -79.5t-12.5 -93q0 -82 39 -149.5t102 -67.5q62 0 92 63t30 144q0 80 -35 148.5t-96 68.5zM251 445q92 0 155.5 -63.5 t63.5 -161.5q0 -104 -63.5 -168.5t-159.5 -64.5q-86 0 -152 61t-66 162q0 104 69 169.5t153 65.5z"/>
<glyph glyph-name="Ohungarumlaut" horiz-adv-x="765" unicode="Ő" d="M279 708l-9 5l72 107q19 -4 47 -23v-8zM408 708l-9 5l72 107q19 -4 47 -23v-8zM378 657q-118 0 -184 -93t-66 -226q0 -136 74.5 -237t194.5 -101q63 0 110.5 28.5t75 76.5t41 104t13.5 118q0 133 -75.5 231.5t-183.5 98.5zM379 677q62 0 122.5 -20.5t112 -60t84 -105.5 t33.5 -149v-8q0 -87 -30 -156.5t-80 -111t-111 -63.5t-127 -22q-59 0 -118.5 20.5t-112 60t-85.5 107.5t-33 154q0 88 33 158.5t86 111.5t111 62.5t115 21.5z"/>
<glyph glyph-name="ohungarumlaut" horiz-adv-x="500" unicode="ő" d="M293 492l-6 8l50 148q30 0 51 -11v-5zM183 492l-6 8l51 148q30 0 51 -11v-5zM250 428q-45 0 -76 -34.5t-43.5 -79.5t-12.5 -93q0 -82 39 -149.5t102 -67.5q62 0 92 63t30 144q0 80 -35 148.5t-96 68.5zM251 445q92 0 155.5 -63.5t63.5 -161.5q0 -104 -63.5 -168.5 t-159.5 -64.5q-86 0 -152 61t-66 162q0 104 69 169.5t153 65.5z"/>
<glyph glyph-name="OE" horiz-adv-x="944" unicode="Œ" d="M530 32v598q-33 14 -93 14q-80 0 -142.5 -28t-98 -74.5t-53 -100.5t-17.5 -112q0 -60 18.5 -115t53.5 -100.5t94 -73t134 -27.5q64 0 104 19zM602 659h225q33 11 66 11l2 -2q-2 -16 -14 -71.5t-14 -63.5l-5 -2q-22 58 -38 106l-213 -8v-271q177 0 250 10l2 -3 q-3 -6 -24.5 -26t-25.5 -20q-3 0 -95 4.5t-107 4.5q0 -203 4 -296l220 -11q70 100 86 119h5q-6 -51 -30 -143q-64 3 -179 3h-115q-22 0 -101.5 -3t-92.5 -3q-174 0 -274.5 90t-100.5 239q0 150 108.5 245.5t306.5 95.5q12 0 70.5 -2.5t76.5 -2.5h7z"/>
<glyph glyph-name="oe" horiz-adv-x="759" unicode="œ" d="M443 259h201q7 21 7 52q0 46 -22.5 81t-67.5 35q-31 0 -55 -18t-36.5 -46.5t-19 -54.5t-7.5 -49zM631 237h-188v-23q0 -89 44.5 -140t124.5 -51q12 0 29 6q51 48 80 56l1 -3q-5 -20 -23 -45.5t-31 -30.5q-51 -19 -103 -19q-116 0 -165 91q-24 -43 -68.5 -67t-93.5 -24 q-85 0 -147 61t-62 165q0 107 66.5 169.5t147.5 62.5q53 0 95.5 -25.5t66.5 -70.5q30 46 74 71t92 25q67 0 114.5 -43t47.5 -121q0 -28 -10 -32q-22 -12 -92 -12zM237 427q-34 0 -58.5 -19t-37 -51t-18 -65.5t-5.5 -70.5q0 -82 34.5 -149t98.5 -67q108 0 108 207 q0 49 -12 96t-41 83t-69 36z"/>
<glyph glyph-name="Racute" horiz-adv-x="589" unicode="Ŕ" d="M229 707l-6 6l136 106q26 -4 50 -35v-9zM34 644l3 4q88 20 229 20q238 0 238 -164q0 -41 -15 -73.5t-42 -53t-50 -31.5t-53 -21v-2q71 -112 163 -232q9 -13 80 -103l-2 -3q-54 3 -90.5 22t-70.5 57q-68 78 -175 244l3 4q81 21 123 63t42 115q0 156 -209 156h-10v-326 v-144q0 -108 2 -140l96 -35l-2 -4q-17 0 -46 1t-53 1.5t-45 0.5q-19 0 -39.5 -0.5t-46 -1.5t-39.5 -1l2 4l82 35q7 143 7 283v306z"/>
<glyph glyph-name="racute" horiz-adv-x="351" unicode="ŕ" d="M165 485l-6 7l66 147q1 0 4 0.5t5 0.5q24 0 46 -10v-7zM38 409l3 4q77 31 111 32q10 -28 10 -104h1q29 54 68 79t71 25q24 0 39 -11q-2 -42 -30 -104l-5 -3q-15 23 -34 71q-6 2 -14 2q-52 0 -94 -95v-272l93 -32v-4q-84 3 -142 3q-33 0 -93 -3v4l57 33q8 163 8 342z"/>
<glyph glyph-name="Rcommaaccent" horiz-adv-x="589" unicode="Ŗ" d="M311 -183l-9 6q38 35 38 72q0 21 -10 31l-23 15v5l52 29h7q22 -17 22 -53q0 -29 -20.5 -57.5t-56.5 -47.5zM34 644l3 4q88 20 229 20q238 0 238 -164q0 -42 -15 -74t-42 -52.5t-50 -31.5t-53 -21v-2q69 -110 163 -233q12 -17 80 -103l-2 -2q-54 2 -90.5 21t-70.5 58 q-68 76 -175 244l3 4q81 21 123 63t42 115q0 156 -209 156h-10v-326v-144q0 -108 2 -140l96 -35l-2 -4q-17 0 -46 1t-53 1.5t-45 0.5q-19 0 -39.5 -0.5t-46 -1.5t-39.5 -1l2 4l82 35q7 143 7 283v306z"/>
<glyph glyph-name="rcommaaccent" horiz-adv-x="351" unicode="ŗ" d="M96 -190l-9 6q38 35 38 72q0 21 -10 30l-23 15v6l52 29h7q22 -19 22 -54q0 -28 -20.5 -56.5t-56.5 -47.5zM38 409l3 4q77 31 111 32q10 -28 10 -104h1q29 54 68 79t71 25q24 0 39 -11q-2 -42 -30 -104l-5 -3q-15 23 -34 71q-6 2 -14 2q-52 0 -94 -95v-272l93 -32v-4 q-84 3 -142 3q-33 0 -93 -3v4l57 33q8 163 8 342z"/>
<glyph glyph-name="Rcaron" horiz-adv-x="589" unicode="Ř" d="M275 705h-6q-59 57 -119 110l6 5q30 -13 116 -58q93 48 116 58l6 -5q-60 -53 -119 -110zM34 644l3 4q88 20 229 20q238 0 238 -164q0 -41 -15 -73.5t-42 -53t-50 -31.5t-53 -21v-2q71 -112 163 -232q9 -13 80 -103l-2 -3q-54 3 -90.5 22t-70.5 57q-68 78 -175 244l3 4 q81 21 123 63t42 115q0 156 -209 156h-10v-326v-144q0 -108 2 -140l96 -35l-2 -4q-17 0 -46 1t-53 1.5t-45 0.5q-19 0 -39.5 -0.5t-46 -1.5t-39.5 -1l2 4l82 35q7 143 7 283v306z"/>
<glyph glyph-name="rcaron" horiz-adv-x="351" unicode="ř" d="M196 499l-8 -3l-78 153l7 4l75 -82l74 82l7 -5zM38 409l3 4q77 31 111 32q10 -28 10 -104h1q29 54 68 79t71 25q24 0 39 -11q-2 -42 -30 -104l-5 -3q-15 23 -34 71q-6 2 -14 2q-52 0 -94 -95v-272l93 -32v-4q-84 3 -142 3q-33 0 -93 -3v4l57 33q8 163 8 342z"/>
<glyph glyph-name="Sacute" horiz-adv-x="481" unicode="Ś" d="M195 712l-5 5l135 106q28 -4 50 -35v-8zM252 677q65 0 108 -37q24 20 59 34l4 -2q-8 -60 -37 -137l-4 -3q-14 31 -30 91q-33 24 -94 24q-59 0 -95 -37t-36 -89q0 -66 64 -105q3 -2 144 -79q114 -65 114 -159q0 -56 -23.5 -97.5t-60.5 -61.5t-72.5 -29t-70.5 -9 q-57 0 -110 22t-76 41q4 17 21 61t25 60l4 2q9 -29 24 -141q31 -17 95 -17h6q76 2 117 38.5t41 102.5q0 64 -81 110q-13 7 -63 35t-78 45q-91 58 -91 157q0 71 53 125.5t143 54.5z"/>
<glyph glyph-name="sacute" horiz-adv-x="358" unicode="ś" d="M155 492l-6 7l65 148q2 0 5 0.5t4 0.5q27 0 47 -11v-7zM185 445q39 0 70 -24q26 18 51 26l4 -4q-6 -78 -22 -112l-4 -3q-14 22 -34 75q-30 15 -60 15q-37 0 -59 -22.5t-22 -52.5q0 -42 42 -63q56 -28 98 -46q83 -38 83 -113q0 -46 -28.5 -78t-63 -44t-69.5 -12 q-77 0 -140 44q4 45 27 103l3 3q6 -11 14.5 -35t17.5 -52t10 -32q22 -9 60 -9t67.5 24.5t29.5 60.5q0 44 -43 65q-79 40 -89 44q-84 40 -84 116q0 52 39 89t102 37z"/>
<glyph glyph-name="Scircumflex" horiz-adv-x="481" unicode="Ŝ" d="M251 823h6q52 -49 119 -108l-7 -6q-38 17 -116 57q-76 -40 -116 -57l-5 6q67 59 119 108zM252 677q65 0 108 -37q24 20 59 34l4 -2q-8 -60 -37 -137l-4 -3q-14 31 -30 91q-33 24 -94 24q-59 0 -95 -37t-36 -89q0 -66 64 -105q3 -2 144 -79q114 -65 114 -159 q0 -56 -23.5 -97.5t-60.5 -61.5t-72.5 -29t-70.5 -9q-57 0 -110 22t-76 41q4 17 21 61t25 60l4 2q9 -29 24 -141q31 -17 95 -17h6q76 2 117 38.5t41 102.5q0 64 -81 110q-13 7 -63 35t-78 45q-91 58 -91 157q0 71 53 125.5t143 54.5z"/>
<glyph glyph-name="scircumflex" horiz-adv-x="358" unicode="ŝ" d="M179 646l8 4l78 -153l-7 -5l-75 83l-75 -83l-7 5zM185 445q39 0 70 -24q26 18 51 26l4 -4q-6 -78 -22 -112l-4 -3q-14 22 -34 75q-30 15 -60 15q-37 0 -59 -22.5t-22 -52.5q0 -42 42 -63q56 -28 98 -46q83 -38 83 -113q0 -46 -28.5 -78t-63 -44t-69.5 -12q-77 0 -140 44 q4 45 27 103l3 3q6 -11 14.5 -35t17.5 -52t10 -32q22 -9 60 -9t67.5 24.5t29.5 60.5q0 44 -43 65q-79 40 -89 44q-84 40 -84 116q0 52 39 89t102 37z"/>
<glyph glyph-name="Scedilla" horiz-adv-x="481" unicode="Ş" d="M262 -15l-29 -41q64 -29 64 -67q0 -23 -28 -45t-73 -36l-5 9q60 29 60 60q0 14 -14 24.5t-49 23.5l52 69q-3 0 -9.5 -0.5t-9.5 -0.5q-50 0 -102.5 18t-82.5 42q4 19 20 62.5t24 56.5l5 3q5 -15 26 -139q30 -15 90 -15h6q78 2 120 38t42 103q0 66 -82 113q-7 4 -61.5 34 t-85.5 50q-86 55 -86 153q0 68 55 122.5t142 54.5h1q68 0 107 -37q24 19 58 34l7 -4q-16 -83 -36 -134l-6 -4q-14 34 -29 92q-28 25 -94 25q-59 0 -95.5 -37t-36.5 -89q0 -68 61 -106q20 -13 72 -39t75 -39q114 -63 114 -161q0 -48 -17.5 -85t-46.5 -58.5t-59.5 -33 t-63.5 -16.5z"/>
<glyph glyph-name="scedilla" horiz-adv-x="358" unicode="ş" d="M202 -10l-33 -44q62 -27 62 -65q0 -22 -27 -43.5t-70 -34.5l-5 9q58 29 58 57q0 13 -14 24t-47 24l55 70h-7q-75 0 -143 40q1 19 10.5 56.5t15.5 50.5l3 3q13 -23 43 -118q23 -10 60 -10q38 0 67.5 25t29.5 61q0 41 -37 61q-9 5 -23.5 12t-36 17.5t-34.5 17.5 q-85 40 -85 117q0 51 39 88t100 37h1q44 0 73 -24q24 18 50 26l3 -4q-10 -87 -22 -112l-4 -3q-16 25 -35 76q-17 14 -59 14q-35 0 -58 -22t-23 -52q0 -42 41 -63q29 -15 97 -46q85 -39 85 -115q0 -57 -39 -89.5t-91 -40.5z"/>
<glyph glyph-name="Scaron" horiz-adv-x="481" unicode="Š" d="M252 714h-6q-77 73 -118 109l6 5q19 -8 116 -58q97 50 116 58l5 -5q-77 -69 -119 -109zM252 677q65 0 108 -37q24 20 59 34l4 -2q-8 -60 -37 -137l-4 -3q-14 31 -30 91q-33 24 -94 24q-59 0 -95 -37t-36 -89q0 -66 64 -105q3 -2 144 -79q114 -65 114 -159 q0 -56 -23.5 -97.5t-60.5 -61.5t-72.5 -29t-70.5 -9q-57 0 -110 22t-76 41q4 17 21 61t25 60l4 2q9 -29 24 -141q31 -17 95 -17h6q76 2 117 38.5t41 102.5q0 64 -81 110q-13 7 -63 35t-78 45q-91 58 -91 157q0 71 53 125.5t143 54.5z"/>
<glyph glyph-name="scaron" horiz-adv-x="358" unicode="š" d="M178 499l-8 -3l-78 153l6 4l76 -82l74 82l7 -5zM185 445q39 0 70 -24q26 18 51 26l4 -4q-6 -78 -22 -112l-4 -3q-14 22 -34 75q-30 15 -60 15q-37 0 -59 -22.5t-22 -52.5q0 -42 42 -63q56 -28 98 -46q83 -38 83 -113q0 -46 -28.5 -78t-63 -44t-69.5 -12q-77 0 -140 44 q4 45 27 103l3 3q6 -11 14.5 -35t17.5 -52t10 -32q22 -9 60 -9t67.5 24.5t29.5 60.5q0 44 -43 65q-79 40 -89 44q-84 40 -84 116q0 52 39 89t102 37z"/>
<glyph glyph-name="Tcommaaccent" horiz-adv-x="630" unicode="Ţ" d="M277 -200l-9 6q38 35 38 72q0 21 -10 31l-23 15v5l52 29h7q22 -19 22 -53q0 -29 -20.5 -57.5t-56.5 -47.5zM97 658h444q4 1 65 15l1 -3q-14 -95 -26 -142l-4 -5l-11 33t-16.5 49t-10.5 32l-189 -10v-260q0 -118 1 -192.5t2.5 -102.5t1.5 -34l107 -37l-1 -4q-17 0 -47.5 1 t-55.5 1.5t-47 0.5t-46.5 -0.5t-55 -1.5t-47.5 -1l2 4l102 37q3 52 3 296v293l-175 10q-16 -35 -58 -112l-5 -1q-1 9 -1 39q0 80 4 106l3 4q41 -9 60 -15z"/>
<glyph glyph-name="tcommaaccent" horiz-adv-x="308" unicode="ţ" d="M145 -205l-9 6q38 35 38 72q0 21 -10 31l-23 15v5l52 29h7q22 -19 22 -53q0 -29 -20.5 -57.5t-56.5 -47.5zM154 432h147l-15 -20l-132 -13v-319q0 -17 15 -32q21 -15 51 -15q41 0 77 25l3 -1l-2 -16q-37 -54 -110 -54q-57 0 -90 40q-22 27 -22 107v265l-64 13l14 20h51 q10 55 29 109q7 12 24.5 22.5t27.5 10.5z"/>
<glyph glyph-name="Tcaron" horiz-adv-x="630" unicode="Ť" d="M319 697h-7q-68 66 -118 110l6 5q29 -13 116 -58q87 45 116 58l6 -5q-41 -36 -119 -110zM97 658h445q6 2 64 15l1 -3q-14 -95 -26 -142l-4 -5l-11 33t-16.5 49t-10.5 32l-189 -10v-260q0 -118 1 -192.5t2.5 -102.5t1.5 -34l107 -37l-1 -4q-17 0 -47.5 1t-55.5 1.5 t-47 0.5t-46.5 -0.5t-55 -1.5t-47.5 -1l2 4l102 37q3 52 3 296v293l-175 10q-16 -35 -58 -112l-5 -1q-1 9 -1 39q0 80 4 106l3 4q41 -9 60 -15z"/>
<glyph glyph-name="tcaron" horiz-adv-x="308" unicode="ť" d="M219 541l-9 6q38 35 38 72q0 21 -10 30l-23 15v6l52 29h7q22 -19 22 -54q0 -28 -20.5 -56.5t-56.5 -47.5zM154 432h147l-15 -20l-132 -13v-319q0 -17 15 -32q21 -15 51 -15q41 0 77 25l3 -1l-2 -16q-37 -54 -110 -54q-57 0 -90 40q-22 27 -22 107v265l-64 13l14 20h51 q10 55 29 109q7 12 24.5 22.5t27.5 10.5z"/>
<glyph glyph-name="Tbar" horiz-adv-x="630" unicode="Ŧ" d="M132 375h137v252l-175 10q-16 -35 -58 -112l-5 -2q-1 9 -1 40q0 79 4 107l3 3q29 -5 60 -15h445q6 2 64 15l1 -3q-15 -102 -26 -143l-4 -3q-2 5 -18 52.5t-20 60.5l-189 -10v-252h149l-9 -26h-140q0 -111 1 -181.5t2.5 -97t1.5 -32.5l107 -37l-1 -4q-17 0 -47.5 1 t-55.5 1.5t-47 0.5t-46.5 -0.5t-55 -1.5t-47.5 -1l2 4l102 37q3 50 3 311h-145z"/>
<glyph glyph-name="tbar" horiz-adv-x="308" unicode="ŧ" d="M26 432h51q10 55 29 109q7 12 24 22.5t28 10.5l-4 -142h147l-16 -21l-131 -10v-137h102l-10 -26h-92v-158q0 -17 15 -32q21 -15 44 -15q42 0 83 33l4 -1l-3 -23q-15 -24 -44.5 -39.5t-64.5 -15.5q-58 0 -89 41q-14 17 -18.5 38t-4.5 68v104h-64l10 26h54v137l-60 10z"/>
<glyph glyph-name="Utilde" horiz-adv-x="702" unicode="Ũ" d="M494 774l7 -5q-49 -67 -85 -67q-11 0 -49 18q-35 16 -43 16q-27 0 -60 -35l-8 7q53 69 85 69q12 0 46 -16q41 -17 47 -17q28 0 60 30zM15 656l2 4q14 0 39 -1t45.5 -1.5t38.5 -0.5q24 0 102 3l-2 -4l-57 -36q-2 -129 -2 -412q0 -72 34 -117q52 -70 164 -70q116 0 165 74 q33 50 36 143q2 70 2 198q0 32 -0.5 93t-0.5 91l-77 36l3 4q10 0 28.5 -1t33.5 -1.5t28 -0.5q27 0 114 3l-2 -4l-85 -36q-1 -11 -13 -356q-3 -109 -37 -165q-66 -116 -222 -116q-152 0 -220 105q-31 51 -34 152q0 13 -0.5 40.5t-0.5 42.5q0 41 1 120.5t1 111.5q0 13 -0.5 35 t-0.5 30z"/>
<glyph glyph-name="utilde" horiz-adv-x="513" unicode="ũ" d="M369 601l7 -4q-49 -67 -84 -67q-10 0 -49 17q-31 15 -42 15q-28 0 -60 -34l-7 7q52 68 84 68q9 0 45 -14q36 -17 46 -17q28 0 60 29zM76 391l-56 29l4 4q51 14 130 14h6q-8 -90 -8 -296q0 -53 18 -76q28 -30 72 -30q29 0 62 18.5t49 43.5v290q-13 7 -68 34l4 4 q76 12 137 12h8q-3 -45 -3 -376q21 -34 76 -55l-1 -4q-18 -12 -52 -12q-88 0 -100 78l-2 1q-71 -83 -144 -83q-61 0 -96 34q-38 38 -38 111q0 36 1 127.5t1 131.5z"/>
<glyph glyph-name="Umacron" horiz-adv-x="702" unicode="Ū" d="M459 711h-185l12 40h185zM15 656l2 4q14 0 39 -1t45.5 -1.5t38.5 -0.5q24 0 102 3l-2 -4l-57 -36q-2 -129 -2 -412q0 -72 34 -117q52 -70 164 -70q116 0 165 74q33 50 36 143q2 70 2 198q0 32 -0.5 93t-0.5 91l-77 36l3 4q10 0 28.5 -1t33.5 -1.5t28 -0.5q27 0 114 3 l-2 -4l-85 -36q-1 -11 -13 -356q-3 -109 -37 -165q-66 -116 -222 -116q-152 0 -220 105q-31 51 -34 152q0 13 -0.5 40.5t-0.5 42.5q0 41 1 120.5t1 111.5q0 13 -0.5 35t-0.5 30z"/>
<glyph glyph-name="umacron" horiz-adv-x="513" unicode="ū" d="M337 548h-177l15 41h176zM76 391l-56 29l4 4q51 14 130 14h6q-8 -90 -8 -296q0 -53 18 -76q28 -30 72 -30q29 0 62 18.5t49 43.5v290q-13 7 -68 34l4 4q76 12 137 12h8q-3 -45 -3 -376q21 -34 76 -55l-1 -4q-18 -12 -52 -12q-88 0 -100 78l-2 1q-71 -83 -144 -83 q-61 0 -96 34q-38 38 -38 111q0 36 1 127.5t1 131.5z"/>
<glyph glyph-name="Ubreve" horiz-adv-x="702" unicode="Ŭ" d="M372 695q-51 0 -75.5 28.5t-24.5 73.5l12 4q17 -58 89 -58q70 0 91 55l11 3q-2 -48 -27 -77t-76 -29zM15 656l2 4q14 0 39 -1t45.5 -1.5t38.5 -0.5q24 0 102 3l-2 -4l-57 -36q-2 -129 -2 -412q0 -72 34 -117q52 -70 164 -70q116 0 165 74q33 50 36 143q2 70 2 198 q0 32 -0.5 93t-0.5 91l-77 36l3 4q10 0 28.5 -1t33.5 -1.5t28 -0.5q27 0 114 3l-2 -4l-85 -36q-1 -11 -13 -356q-3 -109 -37 -165q-66 -116 -222 -116q-152 0 -220 105q-31 51 -34 152q0 13 -0.5 40.5t-0.5 42.5q0 41 1 120.5t1 111.5q0 13 -0.5 35t-0.5 30z"/>
<glyph glyph-name="ubreve" horiz-adv-x="513" unicode="ŭ" d="M159 631l11 5q20 -75 76 -75q58 0 81 70l12 5q-2 -53 -25.5 -86t-69.5 -33q-45 0 -65.5 32.5t-19.5 81.5zM76 391l-56 29l4 4q51 14 130 14h6q-8 -90 -8 -296q0 -53 18 -76q28 -30 72 -30q29 0 62 18.5t49 43.5v290q-13 7 -68 34l4 4q76 12 137 12h8q-3 -45 -3 -376 q21 -34 76 -55l-1 -4q-18 -12 -52 -12q-88 0 -100 78l-2 1q-71 -83 -144 -83q-61 0 -96 34q-38 38 -38 111q0 36 1 127.5t1 131.5z"/>
<glyph glyph-name="Uring" horiz-adv-x="702" unicode="Ů" d="M374 802q-18 0 -29.5 -12.5t-11.5 -36.5q0 -48 42 -48t42 48q0 49 -43 49zM376 826q28 0 49.5 -19.5t21.5 -52.5t-21.5 -52.5t-50.5 -19.5t-50.5 19.5t-21.5 52.5t21.5 52.5t51.5 19.5zM15 656l2 4q14 0 39 -1t45.5 -1.5t38.5 -0.5q24 0 102 3l-2 -4l-57 -36 q-2 -129 -2 -412q0 -72 34 -117q52 -70 164 -70q116 0 165 74q33 50 36 143q2 70 2 198q0 32 -0.5 93t-0.5 91l-77 36l3 4q10 0 28.5 -1t33.5 -1.5t28 -0.5q27 0 114 3l-2 -4l-85 -36q-1 -11 -13 -356q-3 -109 -37 -165q-66 -116 -222 -116q-152 0 -220 105q-31 51 -34 152 q0 13 -0.5 40.5t-0.5 42.5q0 41 1 120.5t1 111.5q0 13 -0.5 35t-0.5 30z"/>
<glyph glyph-name="uring" horiz-adv-x="513" unicode="ů" d="M252 645q30 0 50 -20t20 -51t-21.5 -50.5t-49.5 -19.5q-31 0 -51 19t-20 50q0 32 22 52t50 20zM250 622q-19 0 -29.5 -13.5t-10.5 -34.5t12 -34t29 -13q18 0 30 13t12 34q0 23 -12 35.5t-31 12.5zM76 391l-56 29l4 4q51 14 130 14h6q-8 -90 -8 -296q0 -53 18 -76 q28 -30 72 -30q29 0 62 18.5t49 43.5v290q-13 7 -68 34l4 4q76 12 137 12h8q-3 -45 -3 -376q21 -34 76 -55l-1 -4q-18 -12 -52 -12q-88 0 -100 78l-2 1q-71 -83 -144 -83q-61 0 -96 34q-38 38 -38 111q0 36 1 127.5t1 131.5z"/>
<glyph glyph-name="Uhungarumlaut" horiz-adv-x="702" unicode="Ű" d="M282 696l-9 6l72 107q19 -4 47 -23v-8zM411 696l-9 6l72 107q19 -4 47 -23v-8zM15 656l2 4q14 0 39 -1t45.5 -1.5t38.5 -0.5q24 0 102 3l-2 -4l-57 -36q-2 -129 -2 -412q0 -72 34 -117q52 -70 164 -70q116 0 165 74q33 50 36 143q2 70 2 198q0 32 -0.5 93t-0.5 91l-77 36 l3 4q10 0 28.5 -1t33.5 -1.5t28 -0.5q27 0 114 3l-2 -4l-85 -36q-1 -11 -13 -356q-3 -109 -37 -165q-66 -116 -222 -116q-152 0 -220 105q-31 51 -34 152q0 13 -0.5 40.5t-0.5 42.5q0 41 1 120.5t1 111.5q0 13 -0.5 35t-0.5 30z"/>
<glyph glyph-name="uhungarumlaut" horiz-adv-x="513" unicode="ű" d="M290 492l-6 8l50 148q30 0 51 -11v-5zM181 492l-6 8l50 148q30 0 51 -11v-5zM76 391l-56 29l4 4q51 14 130 14h6q-8 -90 -8 -296q0 -53 18 -76q28 -30 72 -30q29 0 62 18.5t49 43.5v290q-13 7 -68 34l4 4q76 12 137 12h8q-3 -45 -3 -376q21 -34 76 -55l-1 -4 q-18 -12 -52 -12q-88 0 -100 78l-2 1q-71 -83 -144 -83q-61 0 -96 34q-38 38 -38 111q0 36 1 127.5t1 131.5z"/>
<glyph glyph-name="Uogonek" horiz-adv-x="702" unicode="Ų" d="M451 -114l4 -10q-37 -43 -87 -43q-23 0 -45 14t-22 43q0 39 61 93h-5q-159 0 -225 105q-31 51 -34 152q0 13 -0.5 40.5t-0.5 42.5q0 41 1 120.5t1 111.5q0 13 -0.5 35t-0.5 30l-83 36l2 4q14 0 39 -1t45.5 -1.5t38.5 -0.5q24 0 102 3l-2 -4l-57 -36q-2 -129 -2 -412 q0 -72 34 -117q52 -70 164 -70q116 0 165 74q33 50 36 143q2 70 2 198q0 32 -0.5 93t-0.5 91l-77 36l3 4q10 0 28.5 -1t33.5 -1.5t28 -0.5q27 0 114 3l-2 -4l-85 -36q-1 -11 -13 -356q-3 -109 -37 -165q-57 -100 -184 -114q-39 -43 -39 -75q0 -36 46 -36q30 0 54 12z"/>
<glyph glyph-name="uogonek" horiz-adv-x="513" unicode="ų" d="M401 -129l4 -10q-37 -43 -87 -43q-23 0 -45 15t-22 44q0 59 123 144q-16 17 -20 48h-2q-72 -82 -144 -82q-61 0 -96 34q-38 37 -38 111q0 36 1 127.5t1 131.5l-56 29l4 4q51 14 130 14h6q-8 -90 -8 -296q0 -53 18 -76q28 -30 72 -30q29 0 62 18.5t49 43.5v290 q-13 7 -68 34l4 4q76 12 137 12h8q-3 -45 -3 -376q21 -34 76 -55l-1 -4q-18 -12 -52 -12q-43 0 -68 18q-49 -45 -67 -68.5t-18 -46.5q0 -35 46 -35q30 0 54 12z"/>
<glyph glyph-name="Wcircumflex" horiz-adv-x="996" unicode="Ŵ" d="M527 819h6q52 -49 119 -108l-6 -7q-29 13 -116 58q-87 -45 -116 -58l-6 7q67 59 119 108zM7 656l2 4q75 -3 109 -3q15 0 43 1t38 1l-2 -3l-28 -35q11 -32 214 -531h3q27 54 115 250q-41 101 -121 277q-7 4 -20.5 12.5t-24.5 15t-21 11.5l2 4q75 -3 101 -3q9 0 24.5 1 t21.5 1l3 -3l3 -35q18 -55 79 -189h2q58 133 77 185l1 39l2 3q4 0 17 -1t23 -1q8 0 89 3l-2 -4q-58 -28 -88 -43q-30 -53 -108 -213q5 -12 20 -47t47 -109t64 -149h2q110 293 185 522l-32 39l3 3q8 0 26 -1t28 -1q24 0 108 3v-4q-47 -22 -86 -42q-26 -50 -227 -571 q-10 -31 -39 -62h-6q-8 16 -28.5 65t-52 124.5t-58.5 136.5h-1q-34 -71 -73.5 -155.5t-52.5 -111.5q-18 -37 -41 -59h-6q-8 19 -118 288t-145 347q-65 37 -71 40z"/>
<glyph glyph-name="wcircumflex" horiz-adv-x="691" unicode="ŵ" d="M365 646l8 4l78 -153l-7 -5l-75 83l-74 -83l-8 5zM173 435l-1 -4l-33 -37q13 -42 102 -296h2q12 31 45.5 116.5t48.5 126.5l-6 64q21 18 60 30l4 -2l9 -76q14 -39 50.5 -128t52.5 -129h2q57 173 93 296l-44 35l2 4q66 -3 67 -3q2 0 74 3l-1 -4q-6 -3 -27.5 -16.5 t-33.5 -20.5q-23 -44 -131 -366q-6 -11 -31 -45h-5q-65 168 -124 308h-1q-86 -206 -107 -261q-11 -21 -32 -47h-5q-131 375 -149 412q-33 24 -54 36l3 4q84 -3 92 -3q12 0 25 0.5t28.5 1.5t24.5 1z"/>
<glyph glyph-name="Ycircumflex" horiz-adv-x="608" unicode="Ŷ" d="M317 811h6q52 -49 119 -108l-6 -6q-45 20 -116 57q-84 -43 -116 -57l-6 6q67 59 119 108zM1 657l4 3q12 0 34.5 -1t41 -1.5t34.5 -0.5q15 0 37.5 1t30.5 1l-1 -3l-15 -27q8 -17 29 -54t62.5 -110.5t76.5 -136.5h2q113 209 156 296l-23 32l4 3q6 0 22.5 -1t25.5 -1 q21 0 54 1.5t40 1.5l-1 -4l-66 -31q-16 -8 -26 -25q-108 -171 -167 -285q-7 -11 -7 -28q0 -229 4 -250l107 -36v-4q-102 3 -151 3q-48 0 -150 -3l3 4l99 35q8 88 8 236q0 16 -9 32q-78 144 -181 317z"/>
<glyph glyph-name="ycircumflex" horiz-adv-x="433" unicode="ŷ" d="M221 646l8 4l78 -153l-7 -5l-75 83l-74 -83l-8 5zM305 430l4 5q7 0 30 -1.5t34 -1.5q15 0 40.5 1.5t32.5 1.5l-3 -6q-9 -6 -27 -17t-27 -17q-30 -67 -104 -249.5t-123 -298.5q-18 -79 -24 -97q-4 -3 -19 -3t-32.5 7t-22.5 14q13 24 75 97q33 59 67 141q-2 4 -28.5 72.5 t-63 160.5t-63.5 152q-16 13 -57 39l3 5q87 -3 93 -3q1 0 76 3l-1 -4l-28 -33q13 -46 108 -291h2q59 146 105 289z"/>
<glyph glyph-name="Ydieresis" horiz-adv-x="608" unicode="Ÿ" d="M410 798l4 2q8 -3 21 -18t17 -27l-2 -4q-4 -11 -17 -25t-22 -19l-7 -2q-22 14 -37 43l2 6q15 26 41 44zM240 798l4 2q8 -3 20.5 -18t16.5 -27l-1 -4q-4 -11 -17 -25t-22 -19l-7 -2q-19 10 -38 43l3 6q16 29 41 44zM1 657l4 3q12 0 34.5 -1t41 -1.5t34.5 -0.5q15 0 37.5 1 t30.5 1l-1 -3l-15 -27q8 -17 29 -54t62.5 -110.5t76.5 -136.5h2q113 209 156 296l-23 32l4 3q6 0 22.5 -1t25.5 -1q21 0 54 1.5t40 1.5l-1 -4l-66 -31q-16 -8 -26 -25q-108 -171 -167 -285q-7 -11 -7 -28q0 -229 4 -250l107 -36v-4q-102 3 -151 3q-48 0 -150 -3l3 4l99 35 q8 88 8 236q0 16 -9 32q-78 144 -181 317z"/>
<glyph glyph-name="Zacute" horiz-adv-x="599" unicode="Ź" d="M273 697l-5 6l136 106q26 -4 50 -35v-9zM575 658v-7q-13 -21 -86 -125t-173.5 -249.5t-168.5 -247.5v-4q82 0 214.5 0.5t138.5 0.5q14 18 46.5 63.5t46.5 62.5l3 -3q-3 -22 -14.5 -79t-17.5 -74h-12q-6 0 -191 2t-330 2l-2 7q30 41 105.5 148.5t178 254t152.5 217.5v2 q-278 7 -334 7q-5 -9 -27.5 -54t-28.5 -56l-5 -2q-3 33 -3 104q0 34 1 40l3 3q20 -3 57 -13h447z"/>
<glyph glyph-name="zacute" horiz-adv-x="418" unicode="ź" d="M187 492l-6 7l65 148q2 0 5 0.5t4 0.5q25 0 47 -11v-7zM372 432l6 -7q-26 -45 -246 -404v-1q157 0 197 8q54 82 66 94l4 2q-6 -73 -19 -129q-23 0 -90.5 2.5t-113.5 2.5h-147l-2 4q35 51 76 115.5t96.5 154.5t84.5 135v2q-69 0 -182 -4q-27 -54 -49 -87l-4 -1 q-6 54 -6 104q0 4 0.5 9t0.5 6l3 3l57 -9h268z"/>
<glyph glyph-name="Zdotaccent" horiz-adv-x="599" unicode="Ż" d="M322 802l5 2q8 -3 21 -18.5t17 -27.5l-1 -5q-5 -11 -18.5 -25.5t-22.5 -19.5l-6 -2q-21 11 -39 45l2 6q18 29 42 45zM575 658v-7q-13 -21 -86 -125t-173.5 -249.5t-168.5 -247.5v-4q82 0 214.5 0.5t138.5 0.5q14 18 46.5 63.5t46.5 62.5l3 -3q-3 -22 -14.5 -79t-17.5 -74 h-12q-6 0 -191 2t-330 2l-2 7q30 41 105.5 148.5t178 254t152.5 217.5v2q-278 7 -334 7q-5 -9 -27.5 -54t-28.5 -56l-5 -2q-3 33 -3 104q0 34 1 40l3 3q20 -3 57 -13h447z"/>
<glyph glyph-name="zdotaccent" horiz-adv-x="418" unicode="ż" d="M210 635l5 1q8 -3 21.5 -18t19.5 -28l-2 -7q-5 -10 -19.5 -25t-23.5 -21l-6 -2q-23 14 -41 47l2 6q22 34 44 47zM372 432l6 -7q-26 -45 -246 -404v-1q157 0 197 8q54 82 66 94l4 2q-6 -73 -19 -129q-23 0 -90.5 2.5t-113.5 2.5h-147l-2 4q35 51 76 115.5t96.5 154.5 t84.5 135v2q-69 0 -182 -4q-27 -54 -49 -87l-4 -1q-6 54 -6 104q0 4 0.5 9t0.5 6l3 3l57 -9h268z"/>
<glyph glyph-name="Zcaron" horiz-adv-x="599" unicode="Ž" d="M321 697h-6q-59 57 -119 110l7 5q19 -8 116 -58q97 50 116 58l5 -5q-60 -53 -119 -110zM575 658v-7q-13 -21 -86 -125t-173.5 -249.5t-168.5 -247.5v-4q82 0 214.5 0.5t138.5 0.5q14 18 46.5 63.5t46.5 62.5l3 -3q-3 -22 -14.5 -79t-17.5 -74h-12q-6 0 -191 2t-330 2 l-2 7q30 41 105.5 148.5t178 254t152.5 217.5v2q-278 7 -334 7q-5 -9 -27.5 -54t-28.5 -56l-5 -2q-3 33 -3 104q0 34 1 40l3 3q20 -3 57 -13h447z"/>
<glyph glyph-name="zcaron" horiz-adv-x="418" unicode="ž" d="M216 499l-8 -3l-78 153l7 4l75 -82l74 82l7 -5zM372 432l6 -7q-26 -45 -246 -404v-1q157 0 197 8q54 82 66 94l4 2q-6 -73 -19 -129q-23 0 -90.5 2.5t-113.5 2.5h-147l-2 4q35 51 76 115.5t96.5 154.5t84.5 135v2q-69 0 -182 -4q-27 -54 -49 -87l-4 -1q-6 54 -6 104 q0 4 0.5 9t0.5 6l3 3l57 -9h268z"/>
<glyph glyph-name="longs" horiz-adv-x="245" unicode="ſ" d="M20 -3l3 4l58 36q6 42 6 210v154l-66 12l15 19h51q0 141 67 215q61 69 140 69q54 0 72 -22q-20 -59 -33 -81l-5 -2q-21 31 -37 83q-4 1 -13 1q-114 0 -114 -260v-180q0 -199 5 -218l68 -36l-2 -4q-8 0 -51.5 1.5t-66.5 1.5q-4 0 -97 -3z"/>
<glyph glyph-name="florin" d="M71 369h91q17 97 39.5 151t57.5 91q53 57 121 57q37 0 62 -19q-4 -30 -39 -81l-6 -3q-11 21 -24 83q-4 1 -7 1q-72 0 -110 -185q-11 -52 -16 -95h142l-8 -13l-140 -18q-36 -243 -65.5 -330t-95.5 -137q-43 -32 -87 -32q-17 0 -37.5 9.5t-29.5 22.5l31 43q5 5 8 2 q27 -38 73 -38q26 0 41.5 28t30.5 100q29 144 54 332l-93 18z" unicode="ƒ"/>
<glyph glyph-name="uni01C4" horiz-adv-x="1312" unicode="Ǆ" d="M1034 698h-6q-87 83 -118 109l6 5q44 -19 116 -58q72 39 116 58l6 -5q-50 -43 -120 -109zM1288 658l1 -7q-7 -11 -171.5 -246.5t-256.5 -375.5v-4q81 0 213.5 0.5t138.5 0.5q11 14 45 61t49 65l3 -3q-4 -25 -15.5 -80.5t-17.5 -72.5h-12q-6 0 -190.5 2t-330.5 2l-2 7 q60 82 436 620v2q-278 7 -334 7q-3 -5 -26 -51.5t-30 -58.5l-5 -2q-2 48 -2 116v28l3 3q14 -2 58 -13h446zM197 646v-302q0 -310 5 -327q193 0 283 79q102 86 102 246q0 150 -102 235q-85 69 -265 69h-23zM29 652l4 4q132 12 226 12q196 0 308.5 -79.5t112.5 -242.5 q0 -70 -21 -127t-56.5 -93t-69.5 -58t-73 -37q-89 -34 -260 -34q-59 0 -176 3l2 4l84 32q6 15 6 307v285z"/>
<glyph glyph-name="uni01C5" horiz-adv-x="1131" unicode="ǅ" d="M930 499l-8 -3l-78 153l7 4l75 -82l74 82l7 -5zM1086 432l6 -7q-26 -45 -246 -404v-1q157 0 197 8q54 82 66 94l4 2q-6 -73 -19 -129q-23 0 -90.5 2.5t-113.5 2.5h-147l-2 5q35 51 75.5 114t97.5 155t84 135v2q-69 0 -182 -4q-27 -54 -49 -87l-4 -1q-6 34 -6 101 q0 5 0.5 11t0.5 7l3 3l57 -9h268zM197 646v-302q0 -310 5 -327q193 0 283 79q102 86 102 246q0 150 -102 235q-85 69 -265 69h-23zM29 652l4 4q132 12 226 12q196 0 308.5 -79.5t112.5 -242.5q0 -70 -21 -127t-56.5 -93t-69.5 -58t-73 -37q-89 -34 -260 -34q-59 0 -176 3 l2 4l84 32q6 15 6 307v285z"/>
<glyph glyph-name="uni01C6" horiz-adv-x="931" unicode="ǆ" d="M729 499l-8 -3l-78 153l7 4l75 -82l74 82l7 -5zM885 432l6 -7q-26 -45 -246 -404v-1q157 0 197 8q54 82 66 94l4 2q-6 -73 -19 -129q-23 0 -90.5 2.5t-113.5 2.5h-147l-2 4q35 51 76 115.5t96.5 154.5t84.5 135v2q-69 0 -182 -4q-27 -54 -49 -87l-4 -1q-6 54 -6 104 q0 4 0.5 9t0.5 6l3 3l57 -9h268zM352 61v332q-27 19 -72 19q-74 0 -120.5 -58.5t-46.5 -136.5q0 -76 44.5 -129.5t113.5 -53.5q41 0 81 27zM430 392v-336q36 -38 75 -55l-1 -3q-11 -11 -44 -11q-29 0 -59.5 14.5t-41.5 43.5h-2q-81 -58 -120 -58q-79 0 -143.5 58t-64.5 160 q0 109 74 174.5t168 65.5q34 0 79 -33l2 1q0 111 -3 243l-53 27l2 2q44 17 135 31q-3 -166 -3 -324z"/>
<glyph glyph-name="uni01C7" horiz-adv-x="819" unicode="Ǉ" d="M552 655l4 5q126 -3 127 -3q2 0 122 3l-4 -5l-76 -35q1 -39 1 -159q0 -72 -0.5 -189.5t-0.5 -133.5q0 -52 -13 -90q-36 -139 -146 -222l-16 7v5q56 45 75.5 110.5t19.5 163.5v12q0 14 -0.5 84t-0.5 149q-1 224 -3 263zM35 656v4q93 -3 119 -3q27 0 123 3l-3 -5l-77 -35 v-276q0 -281 4 -309l224 -16q69 99 94 129l3 -4q-2 -19 -14 -74.5t-18 -73.5q-7 0 -41.5 1t-109.5 2t-181 1q-16 0 -136 -3v4l90 36q4 34 4 306v277z"/>
<glyph glyph-name="uni01C8" horiz-adv-x="758" unicode="ǈ" d="M558 415l2 4q21 8 67 16.5t65 8.5v-380q0 -86 -42 -165q-54 -103 -120 -152l-13 8l-2 5q64 54 82.5 119t18.5 186q0 246 -5 323q-5 2 -24 12t-29 15zM653 652l5 1q8 -3 21.5 -18t19.5 -27l-2 -7q-5 -10 -20 -25.5t-24 -20.5l-6 -2q-23 15 -41 46l2 7q22 33 45 46zM35 656 v4q93 -3 119 -3q27 0 123 3l-3 -5l-77 -35v-276q0 -281 4 -309l224 -16q69 99 94 129l3 -4q-2 -19 -14 -74.5t-18 -73.5q-7 0 -41.5 1t-109.5 2t-181 1q-16 0 -136 -3v4l90 36q4 34 4 306v277z"/>
<glyph glyph-name="uni01C9" horiz-adv-x="461" unicode="ǉ" d="M261 416l2 3q21 8 67.5 17t64.5 9v-381q0 -88 -41 -165q-56 -106 -120 -152l-14 9l-1 4q64 55 82 119t18 186q0 247 -5 324q-34 18 -53 27zM356 653l6 1q8 -3 21 -18t19 -28l-2 -7q-5 -10 -19.5 -25t-23.5 -20l-6 -3q-24 16 -41 47l2 6q22 34 44 47zM160 37l66 -36l-3 -4 q-105 3 -106 3q-2 0 -107 -3l2 4l63 36q4 88 4 354q0 217 -3 266l-54 28l4 4q26 11 133 27q-3 -163 -3 -321q0 -204 4 -358z"/>
<glyph glyph-name="uni01CA" horiz-adv-x="1019" unicode="Ǌ" d="M753 656l3 4q15 0 38.5 -1t44.5 -1.5t44 -0.5q2 0 122 3l-3 -5l-76 -35q1 -39 1 -159q0 -72 -0.5 -189.5t-0.5 -133.5q0 -52 -14 -90q-22 -82 -64 -137.5t-81 -83.5l-17 6v6q55 43 75 107t20 157v21v45q0 92 -1 188q-1 224 -3 263zM248 1l-1 -4q-117 3 -118 3 q-3 0 -111 -3l1 4l88 39q13 201 18 522q-34 49 -48 61.5t-55 31.5l3 3l128 5q4 -16 33 -52q179 -233 419 -503h3q0 247 -7 510l-81 38l4 4q11 0 44 -1.5t50 -1.5l114 3l-2 -5l-85 -38q-11 -264 -12 -531q0 -71 -4 -102l-5 -4q-54 38 -151 151.5t-265 322.5q-39 49 -59 74h-2 v-115q0 -322 8 -371z"/>
<glyph glyph-name="uni01CB" horiz-adv-x="959" unicode="ǋ" d="M758 416l2 3q21 8 67 16.5t65 8.5v-379q0 -89 -41 -165q-55 -104 -120 -152l-14 8l-1 4q64 54 82 118.5t18 186.5q0 247 -5 324q-34 18 -53 27zM853 653l6 1q8 -3 21 -17.5t19 -27.5l-2 -8q-5 -9 -19.5 -24t-23.5 -21l-6 -2q-25 16 -41 46l2 7q22 34 44 46zM248 1l-1 -4 q-117 3 -118 3q-3 0 -111 -3l1 4l88 39q13 201 18 522q-34 49 -48 61.5t-55 31.5l3 3l128 5q4 -16 33 -52q179 -233 419 -503h3q0 247 -7 510l-81 38l4 4q11 0 44 -1.5t50 -1.5l114 3l-2 -5l-85 -38q-11 -264 -12 -531q0 -71 -4 -102l-5 -4q-54 38 -151 151.5t-265 322.5 q-39 49 -59 74h-2v-115q0 -322 8 -371z"/>
<glyph glyph-name="uni01CC" horiz-adv-x="751" unicode="ǌ" d="M551 416l2 4q21 8 67 16.5t65 8.5v-381q0 -86 -42 -165q-55 -102 -119 -152l-14 8l-2 5q64 54 82.5 119t18.5 186q0 247 -5 324q-31 17 -53 27zM646 654l5 1q8 -3 21.5 -18t19.5 -28l-2 -7q-5 -10 -20 -25.5t-24 -20.5l-6 -2q-23 15 -41 46l2 7q21 32 45 47zM87 281v99 l-50 25l2 5q18 8 61.5 21t63.5 14l-4 -83h2q55 46 89.5 64.5t66.5 18.5q66 0 97.5 -43.5t31.5 -103.5v-246q0 -17 12 -22l58 -29l-3 -4q-57 3 -109 3q-11 0 -77 -3l2 4l32 34q7 70 7 251q0 56 -27.5 83.5t-68.5 27.5q-52 0 -109 -57q0 -289 5 -305l51 -34l-1 -4q-69 3 -95 3 q-22 0 -100 -3l2 4l56 34q5 16 5 246z"/>
<glyph glyph-name="uni01F1" horiz-adv-x="1312" unicode="Ǳ" d="M1288 658l1 -7q-7 -11 -171.5 -246.5t-256.5 -375.5v-4q81 0 213.5 0.5t138.5 0.5q11 14 45 61t49 65l3 -3q-4 -25 -15.5 -80.5t-17.5 -72.5h-12q-6 0 -190.5 2t-330.5 2l-2 7q60 82 436 620v2q-278 7 -334 7q-3 -5 -26 -51.5t-30 -58.5l-5 -2q-2 48 -2 116v28l3 3 q14 -2 58 -13h446zM197 646v-302q0 -310 5 -327q193 0 283 79q102 86 102 246q0 150 -102 235q-85 69 -265 69h-23zM29 652l4 4q132 12 226 12q196 0 308.5 -79.5t112.5 -242.5q0 -70 -21 -127t-56.5 -93t-69.5 -58t-73 -37q-89 -34 -260 -34q-59 0 -176 3l2 4l84 32 q6 15 6 307v285z"/>
<glyph glyph-name="uni01F2" horiz-adv-x="1131" unicode="ǲ" d="M1086 432l6 -7q-26 -45 -246 -404v-1q157 0 197 8q54 82 66 94l4 2q-6 -73 -19 -129q-23 0 -90.5 2.5t-113.5 2.5h-147l-2 5q35 51 75.5 114t97.5 155t84 135v2q-69 0 -182 -4q-27 -54 -49 -87l-4 -1q-6 34 -6 101q0 5 0.5 11t0.5 7l3 3l57 -9h268zM197 646v-302 q0 -310 5 -327q193 0 283 79q102 86 102 246q0 150 -102 235q-85 69 -265 69h-23zM29 652l4 4q132 12 226 12q196 0 308.5 -79.5t112.5 -242.5q0 -70 -21 -127t-56.5 -93t-69.5 -58t-73 -37q-89 -34 -260 -34q-59 0 -176 3l2 4l84 32q6 15 6 307v285z"/>
<glyph glyph-name="uni01F3" horiz-adv-x="931" unicode="ǳ" d="M885 432l6 -7q-26 -45 -246 -404v-1q157 0 197 8q54 82 66 94l4 2q-6 -73 -19 -129q-23 0 -90.5 2.5t-113.5 2.5h-147l-2 4q35 51 76 115.5t96.5 154.5t84.5 135v2q-69 0 -182 -4q-27 -54 -49 -87l-4 -1q-6 54 -6 104q0 4 0.5 9t0.5 6l3 3l57 -9h268zM352 61v332 q-27 19 -72 19q-74 0 -120.5 -58.5t-46.5 -136.5q0 -76 44.5 -129.5t113.5 -53.5q41 0 81 27zM430 392v-336q36 -38 75 -55l-1 -3q-11 -11 -44 -11q-29 0 -59.5 14.5t-41.5 43.5h-2q-81 -58 -120 -58q-79 0 -143.5 58t-64.5 160q0 109 74 174.5t168 65.5q34 0 79 -33l2 1 q0 111 -3 243l-53 27l2 2q44 17 135 31q-3 -166 -3 -324z"/>
<glyph glyph-name="AEacute" horiz-adv-x="879" unicode="Ǽ" d="M490 698l-5 5l136 107q27 -5 50 -35v-9zM269 346h191l-5 283h-47q-119 -238 -139 -283zM461 316h-207q-82 -174 -128 -278l89 -37l-3 -4q-84 3 -118 3l-87 -3l2 4l70 36q104 197 298 588l-112 32l1 4q28 0 82 -1.5t81 -1.5h329q42 10 68 12l2 -2q-2 -12 -7 -37t-12 -55.5 t-9 -41.5l-5 -4q-16 40 -38 106l-224 -8l9 -282q169 0 256 9l1 -5q-3 -6 -25 -24t-26 -18t-99.5 4t-106.5 4q4 -133 14 -284l215 -11q54 80 85 119h5q-7 -67 -31 -143q-82 3 -190 3h-119q-22 0 -46 -0.5t-54 -1.5t-48 -1l3 4l89 36q1 3 1 35q0 76 -5 244z"/>
<glyph glyph-name="aeacute" horiz-adv-x="675" unicode="ǽ" d="M313 493l-6 7l65 147q2 0 5 0.5t4 0.5q27 0 47 -11v-7zM190 32q27 0 57.5 15.5t53.5 48.5q-21 46 -21 129q-85 -16 -133 -43q-21 -12 -28 -26.5t-7 -39.5q0 -44 25.5 -64t52.5 -20zM362 250h198q8 20 8 51q0 52 -22 87.5t-67 35.5q-40 0 -68 -32t-38.5 -69.5t-10.5 -72.5 zM104 282l-2 -1q-8 2 -33 30t-32 51q50 38 112 64q40 16 69 16q81 0 116 -83q62 83 156 83q65 0 112 -42.5t47 -119.5q0 -28 -10 -34q-32 -18 -92 -18h-186v-14q0 -88 44.5 -139.5t122.5 -51.5q12 0 29 6q43 41 76 56q2 1 3.5 0t1.5 -5q-6 -18 -23.5 -43.5t-30.5 -30.5 q-57 -19 -98 -19q-58 0 -105.5 25t-68.5 67q-41 -42 -84 -67t-74 -25q-59 0 -91 34.5t-32 76.5q0 51 36 71q16 13 85 37.5t128 35.5v27q0 81 -27 110t-75 29q-31 0 -68 -19q0 -61 -6 -107z"/>
<glyph glyph-name="Oslashacute" horiz-adv-x="765" unicode="Ǿ" d="M329 704l-5 5l136 106q26 -4 50 -35v-8zM559 560l-337 -474q70 -86 174 -86q63 0 111 28.5t75.5 77t41 104.5t13.5 117q0 140 -76 233h-2zM206 108l337 473q-66 76 -164 76q-117 0 -183.5 -93.5t-66.5 -228.5q0 -137 76 -227h1zM574 622l51 71l17 -19l-46 -65 q134 -101 135 -264v-6q0 -90 -30 -161t-80.5 -112.5t-110 -63t-123.5 -21.5q-113 0 -204 59l-65 -91l-16 22l60 83q-58 44 -93 114t-35 156q0 72 22.5 132t58.5 100t82 68t92 40.5t89 12.5q111 0 196 -55z"/>
<glyph glyph-name="oslashacute" horiz-adv-x="502" unicode="ǿ" d="M216 492l-6 7l65 148q1 0 4 0.5t5 0.5q27 0 47 -11v-7zM360 338l-196 -277q35 -57 96 -57q43 0 72 34t40.5 80t11.5 99q0 73 -22 120zM151 84l196 280q-38 64 -96 64q-65 0 -99.5 -65t-34.5 -143q0 -84 32 -136h2zM379 405l45 62l18 -17l-44 -60q74 -66 74 -170 t-64 -168.5t-160 -64.5q-65 0 -118 33l-50 -69l-16 19l46 64q-81 62 -81 176q0 104 69.5 169.5t152.5 65.5q74 0 128 -40z"/>
<glyph glyph-name="Scommaaccent" horiz-adv-x="481" unicode="Ș" d="M207 -210l-9 6q38 35 38 72q0 21 -10 31l-23 15v5l52 29h7q22 -19 22 -53q0 -29 -20.5 -57.5t-56.5 -47.5zM252 677q65 0 108 -37q24 20 59 34l4 -2q-8 -60 -37 -137l-4 -3q-14 31 -30 91q-33 24 -94 24q-59 0 -95 -37t-36 -89q0 -66 64 -105q3 -2 144 -79 q114 -65 114 -159q0 -56 -23.5 -97.5t-60.5 -61.5t-72.5 -29t-70.5 -9q-57 0 -110 22t-76 41q4 17 21 61t25 60l4 2q9 -29 24 -141q31 -17 95 -17h6q76 2 117 38.5t41 102.5q0 64 -81 110q-13 7 -63 35t-78 45q-91 58 -91 157q0 71 53 125.5t143 54.5z"/>
<glyph glyph-name="scommaaccent" horiz-adv-x="358" unicode="ș" d="M135 -201l-8 6q38 35 38 72q0 21 -10 31l-23 15v5l52 29h7q22 -19 22 -53q0 -29 -20.5 -57.5t-57.5 -47.5zM185 445q39 0 70 -24q26 18 51 26l4 -4q-6 -78 -22 -112l-4 -3q-14 22 -34 75q-30 15 -60 15q-37 0 -59 -22.5t-22 -52.5q0 -42 42 -63q56 -28 98 -46 q83 -38 83 -113q0 -46 -28.5 -78t-63 -44t-69.5 -12q-77 0 -140 44q4 45 27 103l3 3q6 -11 14.5 -35t17.5 -52t10 -32q22 -9 60 -9t67.5 24.5t29.5 60.5q0 44 -43 65q-79 40 -89 44q-84 40 -84 116q0 52 39 89t102 37z"/>
<glyph glyph-name="uni021A" horiz-adv-x="630" unicode="Ț" d="M277 -200l-8 6q37 35 37 72q0 21 -10 31l-23 15v5l52 29h7q22 -19 22 -53q0 -29 -20.5 -57.5t-56.5 -47.5zM97 658h445q9 3 19.5 5.5t23.5 5t20 4.5l1 -4q-7 -66 -25 -141l-4 -4q-2 5 -18 52.5t-20 60.5l-189 -10v-260q0 -118 1 -192.5t2.5 -102.5t1.5 -34l107 -37l-1 -4 q-17 0 -47.5 1t-55.5 1.5t-47 0.5t-46.5 -0.5t-55 -1.5t-47.5 -1l2 4l102 37q3 52 3 296v293l-175 10q-16 -35 -58 -112l-5 -2q-1 9 -1 39q0 79 4 107l3 4q25 -5 60 -15z"/>
<glyph glyph-name="uni021B" horiz-adv-x="308" unicode="ț" d="M145 -205l-8 6q37 35 37 72q0 21 -10 31l-23 15v5l52 29h7q22 -19 22 -53q0 -29 -20.5 -57.5t-56.5 -47.5zM154 432h147l-16 -20l-131 -13v-319q0 -17 15 -32q21 -15 50 -15q41 0 77 25l3 -1l-2 -16q-35 -54 -110 -54q-56 0 -89 40q-22 27 -22 107v265l-64 13l14 20h51 q10 55 29 109q7 12 24.5 22.5t27.5 10.5z"/>
<glyph glyph-name="uni0237" horiz-adv-x="222" unicode="ȷ" d="M22 416l2 3q21 8 67.5 17t64.5 9v-381q0 -88 -41 -165q-56 -106 -120 -152l-14 9l-1 4q64 55 82 119t18 186q0 247 -5 324q-34 18 -53 27z"/>
<glyph glyph-name="uni0259" horiz-adv-x="434" unicode="ə" d="M319 181h-205q-6 -8 -6 -41q0 -52 26 -93t72 -41q32 0 55.5 17.5t35 46t16.5 55.5t6 56zM319 204l1 23v9q0 80 -43 127.5t-108 47.5q-25 0 -47 -8q-47 -49 -80 -66l-1 4q4 15 21.5 38.5t27.5 30.5q18 13 52.5 24t63.5 11q92 0 145.5 -60.5t53.5 -162.5 q0 -108 -59.5 -171.5t-146.5 -63.5q-76 0 -124 46.5t-48 128.5q0 22 10 29q29 13 92 13h190z"/>
<glyph glyph-name="circumflex" horiz-adv-x="386" unicode="ˆ" d="M188 646l8 4l78 -153l-7 -5l-75 83l-74 -83l-8 5z"/>
<glyph glyph-name="caron" horiz-adv-x="386" unicode="ˇ" d="M197 498l-8 -2l-78 153l7 4l75 -82l74 82l7 -5z"/>
<glyph glyph-name="uni02C9" horiz-adv-x="386" unicode="ˉ" d="M275 548h-177l15 41h176z"/>
<glyph glyph-name="breve" horiz-adv-x="386" unicode="˘" d="M104 631l11 5q20 -75 76 -75q58 0 81 70l12 5q-2 -52 -25.5 -85.5t-69.5 -33.5t-66 32.5t-19 81.5z"/>
<glyph glyph-name="dotaccent" horiz-adv-x="386" unicode="˙" d="M193 635l5 1q8 -3 21.5 -18t19.5 -28l-2 -7q-5 -10 -19 -25t-24 -22l-6 -1q-22 13 -41 46l2 7q21 33 44 47z"/>
<glyph glyph-name="ring" horiz-adv-x="386" unicode="˚" d="M194 645q30 0 50 -20t20 -51t-21.5 -50.5t-49.5 -19.5q-31 0 -51 19t-20 50q0 32 22 52t50 20zM192 622q-19 0 -29.5 -13.5t-10.5 -34.5t12 -34t29 -13q18 0 30 13t12 34q0 23 -12 35.5t-31 12.5z"/>
<glyph glyph-name="ogonek" horiz-adv-x="386" unicode="˛" d="M276 -115l4 -9q-37 -43 -87 -43q-23 0 -45 14t-22 43q0 32 29.5 68t48.5 48l21 -1q-49 -59 -49 -93q0 -38 48 -38q26 0 52 11z"/>
<glyph glyph-name="tilde" horiz-adv-x="386" unicode="˜" d="M310 601l7 -4q-49 -67 -84 -67q-9 0 -48 17q-33 15 -43 15q-28 0 -59 -34l-8 7q53 68 84 68q8 0 46 -14q34 -17 45 -17q28 0 60 29z"/>
<glyph glyph-name="hungarumlaut" horiz-adv-x="386" unicode="˝" d="M237 492l-6 8l49 148q30 0 51 -11v-5zM127 492l-6 8l51 148q29 0 50 -11v-5z"/>
<glyph glyph-name="Wgrave" horiz-adv-x="996" unicode="Ẁ" d="M570 702l-4 -6l-175 66v9q21 29 46 36zM7 656l2 4q75 -3 109 -3q15 0 43 1t38 1l-2 -3l-28 -35q11 -32 214 -531h3q27 54 115 250q-41 101 -121 277q-7 4 -20.5 12.5t-24.5 15t-21 11.5l2 4q75 -3 101 -3q9 0 24.5 1t21.5 1l3 -3l3 -35q18 -55 79 -189h2q58 133 77 185 l1 39l2 3q4 0 17 -1t23 -1q8 0 89 3l-2 -4q-58 -28 -88 -43q-30 -53 -108 -213q5 -12 20 -47t47 -109t64 -149h2q110 293 185 522l-32 39l3 3q8 0 26 -1t28 -1q24 0 108 3v-4q-47 -22 -86 -42q-26 -50 -227 -571q-10 -31 -39 -62h-6q-8 16 -28.5 65t-52 124.5t-58.5 136.5 h-1q-34 -71 -73.5 -155.5t-52.5 -111.5q-18 -37 -41 -59h-6q-8 19 -118 288t-145 347q-65 37 -71 40z"/>
<glyph glyph-name="wgrave" horiz-adv-x="691" unicode="ẁ" d="M403 500l-6 -7l-115 137v8q27 9 45 9q9 0 14 -1zM173 435l-1 -4l-33 -37q13 -42 102 -296h2q12 31 45.5 116.5t48.5 126.5l-6 64q21 18 60 30l4 -2l9 -76q14 -39 50.5 -128t52.5 -129h2q57 173 93 296l-44 35l2 4q66 -3 67 -3q2 0 74 3l-1 -4q-6 -3 -27.5 -16.5 t-33.5 -20.5q-23 -44 -131 -366q-6 -11 -31 -45h-5q-65 168 -124 308h-1q-86 -206 -107 -261q-11 -21 -32 -47h-5q-131 375 -149 412q-33 24 -54 36l3 4q84 -3 92 -3q12 0 25 0.5t28.5 1.5t24.5 1z"/>
<glyph glyph-name="Wacute" horiz-adv-x="996" unicode="Ẃ" d="M472 696l-5 6l136 106q26 -4 50 -35v-9zM7 656l2 4q75 -3 109 -3q15 0 43 1t38 1l-2 -3l-28 -35q11 -32 214 -531h3q27 54 115 250q-41 101 -121 277q-7 4 -20.5 12.5t-24.5 15t-21 11.5l2 4q75 -3 101 -3q9 0 24.5 1t21.5 1l3 -3l3 -35q18 -55 79 -189h2q58 133 77 185 l1 39l2 3q4 0 17 -1t23 -1q8 0 89 3l-2 -4q-58 -28 -88 -43q-30 -53 -108 -213q5 -12 20 -47t47 -109t64 -149h2q110 293 185 522l-32 39l3 3q8 0 26 -1t28 -1q24 0 108 3v-4q-47 -22 -86 -42q-26 -50 -227 -571q-10 -31 -39 -62h-6q-8 16 -28.5 65t-52 124.5t-58.5 136.5 h-1q-34 -71 -73.5 -155.5t-52.5 -111.5q-18 -37 -41 -59h-6q-8 19 -118 288t-145 347q-65 37 -71 40z"/>
<glyph glyph-name="wacute" horiz-adv-x="691" unicode="ẃ" d="M341 492l-6 8l65 147q2 0 5 0.5t4 0.5q27 0 47 -11v-7zM173 435l-1 -4l-33 -37q13 -42 102 -296h2q12 31 45.5 116.5t48.5 126.5l-6 64q21 18 60 30l4 -2l9 -76q14 -39 50.5 -128t52.5 -129h2q57 173 93 296l-44 35l2 4q66 -3 67 -3q2 0 74 3l-1 -4q-6 -3 -27.5 -16.5 t-33.5 -20.5q-23 -44 -131 -366q-6 -11 -31 -45h-5q-65 168 -124 308h-1q-86 -206 -107 -261q-11 -21 -32 -47h-5q-131 375 -149 412q-33 24 -54 36l3 4q84 -3 92 -3q12 0 25 0.5t28.5 1.5t24.5 1z"/>
<glyph glyph-name="Wdieresis" horiz-adv-x="996" unicode="Ẅ" d="M616 798l5 2q8 -3 20.5 -18t16.5 -27l-1 -4q-5 -11 -18 -25t-22 -19l-6 -2q-23 13 -38 43l2 6q15 26 41 44zM446 798l5 2q7 -3 19.5 -18t16.5 -27l-1 -4q-4 -11 -17 -25t-22 -19l-7 -2q-19 10 -38 43l3 6q16 29 41 44zM7 656l2 4q75 -3 109 -3q15 0 43 1t38 1l-2 -3 l-28 -35q11 -32 214 -531h3q27 54 115 250q-41 101 -121 277q-7 4 -20.5 12.5t-24.5 15t-21 11.5l2 4q75 -3 101 -3q9 0 24.5 1t21.5 1l3 -3l3 -35q18 -55 79 -189h2q58 133 77 185l1 39l2 3q4 0 17 -1t23 -1q8 0 89 3l-2 -4q-58 -28 -88 -43q-30 -53 -108 -213 q5 -12 20 -47t47 -109t64 -149h2q110 293 185 522l-32 39l3 3q8 0 26 -1t28 -1q24 0 108 3v-4q-47 -22 -86 -42q-26 -50 -227 -571q-10 -31 -39 -62h-6q-8 16 -28.5 65t-52 124.5t-58.5 136.5h-1q-34 -71 -73.5 -155.5t-52.5 -111.5q-18 -37 -41 -59h-6q-8 19 -118 288 t-145 347q-65 37 -71 40z"/>
<glyph glyph-name="wdieresis" horiz-adv-x="691" unicode="ẅ" d="M444 628l5 2q7 -4 19 -18t17 -25l-1 -5q-15 -28 -39 -43l-6 -2q-25 19 -36 42l2 7q16 29 39 42zM293 628l6 2q7 -4 19 -18.5t15 -24.5l-1 -5q-4 -10 -16.5 -23.5t-21.5 -19.5l-6 -2q-24 15 -36 42l2 7q18 32 39 42zM173 435l-1 -4l-33 -37q13 -42 102 -296h2 q12 31 45.5 116.5t48.5 126.5l-6 64q21 18 60 30l4 -2l9 -76q14 -39 50.5 -128t52.5 -129h2q57 173 93 296l-44 35l2 4q66 -3 67 -3q2 0 74 3l-1 -4q-6 -3 -27.5 -16.5t-33.5 -20.5q-23 -44 -131 -366q-6 -11 -31 -45h-5q-65 168 -124 308h-1q-86 -206 -107 -261 q-11 -21 -32 -47h-5q-131 375 -149 412q-33 24 -54 36l3 4q84 -3 92 -3q12 0 25 0.5t28.5 1.5t24.5 1z"/>
<glyph glyph-name="Ygrave" horiz-adv-x="608" unicode="Ỳ" d="M371 703l-4 -6l-175 65v9q21 29 47 37zM1 657l4 3q12 0 34.5 -1t41 -1.5t34.5 -0.5q15 0 37.5 1t30.5 1l-1 -3l-15 -27q8 -17 29 -54t62.5 -110.5t76.5 -136.5h2q113 209 156 296l-23 32l4 3q6 0 22.5 -1t25.5 -1q21 0 54 1.5t40 1.5l-1 -4l-66 -31q-16 -8 -26 -25 q-108 -171 -167 -285q-7 -11 -7 -28q0 -229 4 -250l107 -36v-4q-102 3 -151 3q-48 0 -150 -3l3 4l99 35q8 88 8 236q0 16 -9 32q-78 144 -181 317z"/>
<glyph glyph-name="ygrave" horiz-adv-x="433" unicode="ỳ" d="M261 500l-6 -8l-114 138v8q25 9 45 9q9 0 14 -1zM305 430l4 5q7 0 30 -1.5t34 -1.5q15 0 40.5 1.5t32.5 1.5l-3 -6q-9 -6 -27 -17t-27 -17q-30 -67 -104 -249.5t-123 -298.5q-18 -79 -24 -97q-4 -3 -19 -3t-32.5 7t-22.5 14q13 24 75 97q33 59 67 141q-2 4 -28.5 72.5 t-63 160.5t-63.5 152q-16 13 -57 39l3 5q87 -3 93 -3q1 0 76 3l-1 -4l-28 -33q13 -46 108 -291h2q59 146 105 289z"/>
<glyph glyph-name="endash" horiz-adv-x="579" unicode="–" d="M522 206h-474l9 42h474z"/>
<glyph glyph-name="emdash" horiz-adv-x="820" unicode="—" d="M763 206h-715l9 42h715z"/>
<glyph glyph-name="quoteleft" horiz-adv-x="167" unicode="‘" d="M130 716l4 -7q-44 -58 -44 -118q0 -15 5 -30l34 -16v-6l-68 -38h-8q-21 13 -21 54q0 87 98 161z"/>
<glyph glyph-name="quoteright" horiz-adv-x="167" unicode="’" d="M37 497l-4 6q44 60 44 119q0 17 -5 29l-33 17v6l67 38h8q6 -3 13.5 -19.5t7.5 -36.5q0 -40 -25.5 -82t-72.5 -77z"/>
<glyph glyph-name="quotesinglbase" horiz-adv-x="204" unicode="‚" d="M51 -100l-3 7q46 62 46 125q0 19 -5 32l-36 18v6l75 40h9q7 -1 13 -21.5t6 -38.5q0 -88 -105 -168z"/>
<glyph glyph-name="quotedblleft" horiz-adv-x="308" unicode="“" d="M130 716l5 -7q-45 -57 -45 -118q0 -15 5 -30l34 -16v-6l-68 -38h-8q-21 13 -21 54q0 87 98 161zM271 716l4 -7q-44 -58 -44 -118q0 -15 5 -30l33 -16v-6l-67 -38h-8q-21 15 -21 54q0 87 98 161z"/>
<glyph glyph-name="quotedblright" horiz-adv-x="308" unicode="”" d="M178 498l-4 5q45 59 45 119q0 17 -5 29l-34 17v6l68 38h8q6 -3 13.5 -19.5t7.5 -36.5q0 -86 -99 -158zM37 498l-4 5q44 60 44 119q0 17 -5 29l-33 17v6l67 38h8q6 -3 13.5 -19.5t7.5 -36.5q0 -86 -98 -158z"/>
<glyph glyph-name="quotedblbase" horiz-adv-x="347" unicode="„" d="M195 -100l-4 7q47 61 47 125q0 20 -6 32l-35 18v6l75 40h8q7 -1 13.5 -21t6.5 -39q0 -88 -105 -168zM51 -100l-3 7q46 62 46 125q0 19 -5 32l-36 18v6l75 40h9q7 -1 13 -21t6 -39q0 -88 -105 -168z"/>
<glyph glyph-name="bullet" horiz-adv-x="361" unicode="•" d="M179 349l14 5q21 -9 56.5 -49.5t51.5 -73.5l-4 -18q-14 -29 -51.5 -67.5t-62.5 -53.5l-15 -5q-30 16 -61.5 52.5t-46.5 68.5l5 18q23 37 55.5 72t58.5 51z"/>
<glyph glyph-name="guilsinglleft" horiz-adv-x="269" unicode="‹" d="M217 39l-4 -7q-86 111 -165 185q73 71 162 183l3 -8q-28 -62 -93 -175q75 -124 97 -178z"/>
<glyph glyph-name="guilsinglright" horiz-adv-x="269" unicode="›" d="M52 393l5 7q74 -99 163 -185q-102 -105 -159 -183l-4 8q62 123 92 175q-69 112 -97 178z"/>
<glyph glyph-name="fraction" horiz-adv-x="92" unicode="⁄" d="M245 666l16 -18q-213 -347 -415 -687l-16 20q236 388 415 685z"/>
<glyph glyph-name="zero.superior" horiz-adv-x="296" unicode="⁰" d="M147 738q-33 0 -49.5 -46.5t-16.5 -102.5q0 -60 18 -105.5t51 -45.5q32 0 48 43.5t16 108.5q0 20 -2.5 41t-8.5 47.5t-20.5 43t-35.5 16.5zM154 754q46 0 82 -42t36 -121q0 -85 -38 -127t-88 -42t-86 41.5t-36 120.5q0 75 38 122.5t92 47.5z"/>
<glyph glyph-name="four.superior" horiz-adv-x="296" unicode="⁴" d="M158 548l8 164h-2q-57 -79 -108 -163zM212 527l2 -73l49 -23l-1 -3q-16 0 -42.5 1t-38.5 1q-14 0 -41.5 -1t-39.5 -1l1 3l56 24l2 72l-129 -3l-8 12q22 37 77 114.5t65 87.5q10 8 48 16v-207l36 -1q9 14 22 25h4q0 -37 -11 -70l-3 -3q-9 13 -15 31z"/>
<glyph glyph-name="five.superior" horiz-adv-x="296" unicode="⁵" d="M60 574l-8 6q8 48 24 167h120q20 0 55 13l2 -5q-20 -28 -37 -43q-10 -8 -24 -8q-6 0 -45 -1.5t-56 -1.5q-3 -14 -19 -106q52 21 87 21q54 0 77 -27t23 -60q0 -52 -39 -79.5t-87 -27.5q-26 0 -54 8.5t-41 20.5q19 47 28 57l5 2q1 -3 17 -67q12 -4 31 -4q32 0 56.5 25 t24.5 56t-18.5 51t-56.5 20q-31 0 -65 -17z"/>
<glyph glyph-name="six.superior" horiz-adv-x="296" unicode="⁶" d="M154 597q-33 0 -68 -30q0 -3 -0.5 -8t-0.5 -7q0 -43 18 -79t51 -36q31 0 45 25.5t14 56.5q0 37 -17.5 57.5t-41.5 20.5zM248 754l5 -11q-71 -8 -115 -51.5t-52 -107.5q55 39 92 39q35 0 63 -23.5t28 -70.5q0 -54 -37.5 -80.5t-81.5 -26.5q-57 0 -89.5 37.5t-32.5 93.5 q0 83 64 141t156 60z"/>
<glyph glyph-name="seven.superior" horiz-adv-x="296" unicode="⁷" d="M81 422l-3 3q4 23 53 104q55 88 100 175h-164q-13 -26 -19 -40l-5 -3q-9 27 -9 86l3 1q16 -1 29 -1h197l-2 -11q-4 -26 -67.5 -141.5t-68.5 -132.5l-1 -30z"/>
<glyph glyph-name="eight.superior" horiz-adv-x="296" unicode="⁸" d="M150 437q28 0 45.5 17t17.5 46q0 14 -7.5 26t-26 23.5t-28 16.5t-33.5 16q-36 -25 -36 -71q0 -32 19.5 -53t48.5 -21zM148 739q-22 0 -39 -16t-17 -40q0 -13 6 -23.5t21.5 -20t24 -13.5t30.5 -14q33 27 33 61q0 26 -15.5 46t-43.5 20zM154 754q44 0 69.5 -22t25.5 -54 q0 -38 -63 -72q19 -10 28 -15.5t23.5 -17.5t20.5 -26.5t6 -32.5q0 -35 -31.5 -63.5t-87.5 -28.5q-52 0 -81 25.5t-29 57.5q0 24 15 40.5t55 42.5q-57 34 -57 77q0 40 32 64.5t74 24.5z"/>
<glyph glyph-name="nine.superior" horiz-adv-x="296" unicode="⁹" d="M143 740q-28 0 -42.5 -26t-14.5 -58q1 -38 20 -57t46 -19q31 0 55 21q1 9 1 33q0 46 -17 76t-48 30zM57 422l-6 11q13 2 32 10t46 24.5t49 47.5t29 70h-1q-46 -31 -77 -31q-39 0 -68 25t-29 66q0 49 36 79t81 30q33 0 57 -14t36 -35.5t17 -42t5 -39.5q0 -90 -65 -144.5 t-142 -56.5z"/>
<glyph glyph-name="parenleft.superior" horiz-adv-x="189" unicode="⁽" d="M169 352l-4 -3q-54 37 -86 94t-32 127q0 69 32 127.5t89 95.5l1 -7q-72 -95 -72 -216q0 -119 72 -218z"/>
<glyph glyph-name="parenright.superior" horiz-adv-x="189" unicode="⁾" d="M28 790l4 3q53 -36 85.5 -93.5t32.5 -127.5q0 -69 -31.5 -127t-89.5 -96l-1 7q72 95 72 216q0 119 -72 218z"/>
<glyph glyph-name="n.superior" horiz-adv-x="293" unicode="ⁿ" d="M48 472v48l-27 14l3 4q6 4 33.5 10t39.5 6v-35q43 35 76 35q37 0 54.5 -23t17.5 -53v-119q0 -5 10 -12l27 -15l-2 -4q-10 0 -30.5 1t-31.5 1q-8 0 -24 -1t-24 -1l1 4l22 19q4 38 4 114q0 61 -50 61q-28 0 -50 -22q0 -145 2 -153l26 -20l-1 -3q-10 0 -27.5 1t-26.5 1 q-8 0 -26.5 -1t-28.5 -1l2 4l28 19q3 11 3 121z"/>
<glyph glyph-name="zero.inferior" horiz-adv-x="296" unicode="₀" d="M147 196q-33 0 -49.5 -46.5t-16.5 -102.5q0 -61 18 -106t51 -45q32 0 48 43.5t16 108.5q0 19 -2.5 40t-8.5 47.5t-20.5 43.5t-35.5 17zM154 212q46 0 82 -42t36 -121q0 -85 -38 -127t-88 -42t-86 41.5t-36 120.5q0 75 38 122.5t92 47.5z"/>
<glyph glyph-name="one.inferior" horiz-adv-x="296" unicode="₁" d="M122 162l-66 1l1 4q3 2 19.5 8.5t44.5 17.5t48 19h8q0 -33 1 -163t1 -135l62 -24l-3 -4q-15 0 -44.5 1t-44.5 1q-16 0 -47.5 -1t-46.5 -1l2 4l59 24q6 117 6 248z"/>
<glyph glyph-name="two.inferior" horiz-adv-x="296" unicode="₂" d="M264 -26l4 -4q-18 -68 -25 -85q-3 0 -21 0.5t-45 1.5t-50 1h-99v6l21 30q7 5 16 11q40 35 61 56t41.5 55.5t20.5 68.5q0 29 -17.5 50t-54.5 21q-22 0 -39 -10q-1 -8 -3 -23t-4 -27.5t-5 -24.5l-5 -3q-17 21 -29 58q54 56 119 56q37 0 66.5 -24t30.5 -72q0 -13 -3.5 -25 t-8 -21.5t-15.5 -22t-18 -20.5t-24.5 -22.5t-27 -21.5t-33 -25t-34.5 -26q14 0 74 1.5t69 1.5q21 23 38 39z"/>
<glyph glyph-name="three.inferior" horiz-adv-x="296" unicode="₃" d="M68 118l-3 -2q-5 6 -25 46q52 50 112 50q35 0 62 -19t27 -57q0 -30 -23 -49t-52 -27l-1 -2q93 -13 93 -80q-1 -46 -40.5 -72t-88.5 -26q-34 0 -61 11t-35 21q16 41 26 54l4 1q4 -8 19 -66q16 -4 30 -4q35 0 59 23t24 57q0 61 -56 68q-48 -8 -50 -8l-2 3q0 12 18 25 q13 0 36 -3q44 17 44 61q0 30 -16.5 48.5t-46.5 18.5q-14 0 -37 -9q-7 -52 -17 -63z"/>
<glyph glyph-name="four.inferior" horiz-adv-x="296" unicode="₄" d="M158 6l8 164h-2q-57 -79 -108 -163zM212 -14l2 -73l49 -24l-1 -3q-16 0 -42.5 1t-38.5 1q-14 0 -41.5 -1t-39.5 -1l1 3l56 24l2 72l-129 -3l-8 13q22 36 76.5 113.5t65.5 88.5q14 10 48 15v-206l36 -1q10 15 22 24l4 1q0 -37 -11 -70l-3 -3q-9 13 -15 31z"/>
<glyph glyph-name="five.inferior" horiz-adv-x="296" unicode="₅" d="M60 32l-8 6q8 48 24 167h120q20 0 55 13l2 -5q-20 -28 -37 -43q-10 -8 -24 -8q-6 0 -45 -1.5t-56 -1.5q-3 -14 -19 -106q53 21 87 21q54 0 77 -27t23 -60q0 -52 -39 -79.5t-87 -27.5q-26 0 -54 8.5t-41 21.5q19 47 28 57l5 1q6 -18 17 -68q18 -3 31 -3q32 0 56.5 25 t24.5 57q0 30 -18.5 50t-56.5 20q-31 0 -65 -17z"/>
<glyph glyph-name="six.inferior" horiz-adv-x="296" unicode="₆" d="M154 55q-33 0 -68 -30q0 -3 -0.5 -8t-0.5 -7q0 -43 18 -79t51 -36q31 0 45 25.5t14 56.5q0 37 -17.5 57.5t-41.5 20.5zM248 212l5 -11q-71 -8 -115 -51.5t-52 -107.5q55 39 92 39q35 0 63 -23.5t28 -70.5q0 -54 -37.5 -80.5t-81.5 -26.5q-57 0 -89.5 37.5t-32.5 93.5 q0 83 64 141t156 60z"/>
<glyph glyph-name="seven.inferior" horiz-adv-x="296" unicode="₇" d="M81 -120l-3 3q4 23 53 104q55 88 100 175h-164q-13 -26 -19 -40l-5 -3q-9 27 -9 86l3 1q16 -1 29 -1h197l-2 -11q-4 -26 -67.5 -141.5t-68.5 -132.5l-1 -30z"/>
<glyph glyph-name="eight.inferior" horiz-adv-x="296" unicode="₈" d="M150 -105q28 0 45.5 17t17.5 46q0 14 -7.5 26t-26 23.5t-28 16.5t-33.5 16q-36 -25 -36 -71q0 -32 19.5 -53t48.5 -21zM148 197q-22 0 -39 -16t-17 -40q0 -13 6 -23.5t21.5 -20t24 -13.5t30.5 -14q33 27 33 61q0 26 -15.5 46t-43.5 20zM154 212q44 0 69.5 -22t25.5 -54 q0 -38 -63 -72q19 -10 28 -15.5t23.5 -17.5t20.5 -26.5t6 -33.5q0 -34 -31.5 -62.5t-87.5 -28.5q-52 0 -81 25.5t-29 57.5q0 24 15 40.5t55 42.5q-57 34 -57 77q0 40 32 64.5t74 24.5z"/>
<glyph glyph-name="nine.inferior" horiz-adv-x="296" unicode="₉" d="M143 198q-28 0 -42.5 -26t-14.5 -58q1 -38 20 -57t46 -19q31 0 55 21q1 9 1 33q0 46 -17 76t-48 30zM57 -120l-6 11q13 2 32 10t46 24.5t49 47.5t29 70h-1q-46 -31 -77 -31q-39 0 -68 25t-29 66q0 49 36 79t81 30q33 0 57 -14t36 -35.5t17 -42t5 -39.5q0 -90 -65 -144.5 t-142 -56.5z"/>
<glyph glyph-name="parenleft.inferior" horiz-adv-x="189" unicode="₍" d="M169 -190l-4 -3q-54 37 -86 94t-32 127q0 69 32 127.5t89 95.5l1 -7q-72 -95 -72 -216q0 -119 72 -218z"/>
<glyph glyph-name="parenright.inferior" horiz-adv-x="189" unicode="₎" d="M28 248l4 3q53 -36 85.5 -93.5t32.5 -127.5q0 -69 -31.5 -127t-89.5 -96l-1 7q72 95 72 216q0 119 -72 218z"/>
<glyph glyph-name="colonmonetary" horiz-adv-x="576" unicode="₡" d="M331 43l65 558q-22 2 -29 2q-12 0 -38 -4l-64 -535q35 -18 66 -21zM241 80l61 514q-85 -24 -127.5 -100t-42.5 -176q0 -75 27.5 -140t81.5 -98zM305 623l12 89l26 6l-10 -91q24 2 33 2q16 0 34 -3l10 86l26 6l-12 -96q37 -7 64 -26q41 24 62 31l4 -4q-3 -17 -20 -74 t-21 -65l-4 -4q-12 23 -33 102q-20 10 -55 16l-64 -559q8 -1 23 -1q34 0 52 10q67 67 98 90l11 4q-2 -13 -19 -50.5t-28 -49.5q-74 -30 -141 -31l-10 -84l-27 -6l11 90q-37 1 -65 11l-14 -96l-27 -6l15 108q-89 26 -143 99t-54 185q0 124 74.5 208.5t191.5 102.5z"/>
<glyph glyph-name="franc" d="M30 196h77v409l-74 35l2 4q11 0 32 -1t38 -1.5t32 -0.5h245q47 10 61 10h2l2 -2q-1 -16 -8.5 -58t-13.5 -56l-5 -2q-24 42 -38 87l-197 -10v-256q157 0 240 10v-5q-3 -5 -23.5 -21.5t-24.5 -17.5q-3 0 -89.5 3.5t-102.5 3.5v-131h119l-9 -24h-110q0 -96 4 -136l96 -35 l-2 -4q-78 3 -140 3q-22 0 -66 -1.5t-53 -1.5l3 4l76 35q3 15 3 136h-89z" unicode="₣"/>
<glyph glyph-name="lira" d="M35 385h84q0 63 22 128t79 107q47 34 105 34q32 0 58 -9t37 -20q-22 -70 -36 -94l-5 -3q-17 42 -26 102q-22 5 -30 5q-122 0 -122 -250h164l-10 -24h-154v-32q0 -24 -1 -31h165l-10 -24h-156q-5 -73 -30 -122t-70 -93v-3h45q166 0 251 5q35 53 62 82l5 -5 q-18 -87 -39 -143q-6 0 -82 2.5t-132 2.5h-199v7l37 41q26 7 34 19q35 61 37 207h-96l13 24h83q0 6 0.5 17t0.5 16q0 6 -0.5 15.5t-0.5 14.5h-96z" unicode="₤"/>
<glyph glyph-name="peseta" d="M34 473h63v134l-70 22l2 4q126 15 171 15q103 0 156 -38q66 -46 70 -137h49l-12 -24h-36q-4 -92 -60 -139.5t-126 -47.5q-22 0 -33 4l-3 6q71 11 107 61.5t36 115.5h-174v-102q0 -108 1 -180.5t2.5 -101t1.5 -29.5l97 -35l-1 -4q-138 3 -140 3l-111 -3l1 4l68 34 q4 21 4 309v105h-77zM174 473h173q-3 69 -44.5 111.5t-121.5 42.5h-7v-154z" unicode="₧"/>
<glyph glyph-name="Euro" d="M34 382h33q21 122 92 188.5t161 66.5q81 0 134 -42q-2 -15 -13.5 -52.5t-17.5 -49.5l-4 -3q-6 11 -15 48t-11 66q-19 10 -54 10q-76 0 -124 -59.5t-62 -171.5l277 4l-12 -31l-268 4q-2 -20 -2 -37q0 -5 0.5 -12.5t0.5 -10.5l250 4l-13 -32l-236 3q4 -110 48.5 -177 t115.5 -67q23 0 40 7q69 82 96 103l3 -2q-2 -15 -19 -58.5t-23 -49.5q-53 -28 -113 -28q-95 0 -161.5 72.5t-74.5 200.5l-55 1l7 22l47 1q0 41 3 61l-37 -1z" unicode="€"/>
<glyph glyph-name="uni2215" horiz-adv-x="92" unicode="∕" d="M245 666l16 -18q-213 -347 -415 -687l-16 20q236 388 415 685z"/>
</font>
</defs>
</svg>
